<!-- Generated by IcoMoon.io -->
<svg version="1.1" xmlns="http://www.w3.org/2000/svg" width="32" height="32" viewBox="0 0 32 32">
<title>consultant</title>
<path d="M7.973 20.333c2.173-1.087 3.053-3.733 1.96-5.907-1.087-2.173-3.733-3.053-5.907-1.96-2.173 1.087-3.053 3.733-1.96 5.907 0.427 0.847 1.113 1.54 1.96 1.96-2.407 0.84-4.027 3.113-4.027 5.667v6h12v-6c0-2.553-1.62-4.827-4.027-5.667zM2.4 16.4c0-1.987 1.613-3.6 3.6-3.6s3.6 1.613 3.6 3.6c0 1.987-1.613 3.6-3.6 3.6s-3.6-1.613-3.6-3.6zM11.2 31.2h-10.4v-5.2c0-2.873 2.327-5.2 5.2-5.2s5.2 2.327 5.2 5.2v5.2zM27.973 20.333c2.173-1.087 3.053-3.733 1.96-5.907-1.087-2.173-3.733-3.053-5.907-1.96-2.173 1.087-3.053 3.733-1.96 5.907 0.427 0.847 1.113 1.54 1.96 1.96-2.407 0.84-4.027 3.113-4.027 5.667v6h12v-6c0-2.553-1.62-4.827-4.027-5.667zM22.4 16.4c0-1.987 1.613-3.6 3.6-3.6s3.6 1.613 3.6 3.6c0 1.987-1.613 3.6-3.6 3.6s-3.6-1.613-3.6-3.6zM31.2 31.2h-10.4v-5.2c0-2.873 2.327-5.2 5.2-5.2s5.2 2.327 5.2 5.2v5.2zM20.3 11.2c1.087-1.2 1.693-2.76 1.7-4.387 0-3.773-3.22-6.813-7.2-6.813s-7.2 3.047-7.2 6.8c0 3.76 3.22 6.8 7.2 6.8 1.167 0 2.313-0.273 3.36-0.8l2.88 0.787-0.74-2.387zM18.060 11.98l-0.273 0.14c-0.933 0.453-1.953 0.687-2.987 0.687-3.52 0-6.4-2.693-6.4-6s2.88-6 6.4-6c3.52 0 6.4 2.693 6.4 6-0.013 1.42-0.54 2.787-1.493 3.84l-0.3 0.333 0.433 1.473-1.78-0.473z"></path>
</svg>
