<!-- Generated by IcoMoon.io -->
<svg version="1.1" xmlns="http://www.w3.org/2000/svg" width="32" height="32" viewBox="0 0 32 32">
<title>creation</title>
<path d="M9.193 7.313h-2.827c-0.713 0-1.287 0.573-1.287 1.273v1.313c0 0.233 0.193 0.427 0.433 0.427s0.433-0.193 0.433-0.427v-1.313c0-0.233 0.193-0.42 0.427-0.42h2.82c0.24 0 0.433-0.193 0.433-0.427-0.007-0.24-0.2-0.427-0.433-0.427z"></path>
<path d="M13.26 7.313h-0.647c-0.24 0-0.433 0.193-0.433 0.427s0.193 0.427 0.433 0.427h0.647c0.24 0 0.433-0.193 0.433-0.427-0.007-0.24-0.2-0.427-0.433-0.427z"></path>
<path d="M24.187 13.16c1.247 0 2.26-1 2.26-2.233s-1.013-2.233-2.26-2.233c-1.247 0-2.26 1-2.26 2.233 0.007 1.233 1.020 2.233 2.26 2.233zM24.187 9.553c0.767 0 1.393 0.62 1.393 1.38s-0.627 1.38-1.393 1.38c-0.767 0-1.393-0.62-1.393-1.38 0.007-0.767 0.627-1.38 1.393-1.38z"></path>
<path d="M26.3 14.847h-4.22c-0.727 0-1.313 0.587-1.313 1.3v3.54c0 0.72 0.587 1.3 1.313 1.3h4.22c0.727 0 1.313-0.587 1.313-1.3v-3.54c0-0.72-0.587-1.3-1.313-1.3zM26.747 19.687c0 0.247-0.2 0.447-0.453 0.447h-4.22c-0.247 0-0.453-0.2-0.453-0.447v-3.54c0-0.247 0.2-0.447 0.453-0.447h4.22c0.247 0 0.453 0.2 0.453 0.447v3.54z"></path>
<path d="M25.22 16.613h-2.067c-0.24 0-0.433 0.193-0.433 0.427s0.193 0.427 0.433 0.427h2.067c0.24 0 0.433-0.193 0.433-0.427 0-0.24-0.193-0.427-0.433-0.427z"></path>
<path d="M25.22 18.287h-2.067c-0.24 0-0.433 0.193-0.433 0.427s0.193 0.427 0.433 0.427h2.067c0.24 0 0.433-0.193 0.433-0.427 0-0.24-0.193-0.427-0.433-0.427z"></path>
<path d="M30.573 20.267c0.787 0 1.42-0.633 1.42-1.407v-7.173c0-0.773-0.64-1.407-1.42-1.407h-0.9c-0.693-2.98-3.36-5.107-6.493-5.107h-14.567v-1.38c0-0.233-0.193-0.427-0.433-0.427h-3.247c-0.24 0-0.433 0.193-0.433 0.427v1.38h-1.153c-0.24 0-0.433 0.193-0.433 0.427v8.567c0 1.020 0.66 1.887 1.58 2.213v1.52c0 0.233 0.193 0.427 0.433 0.427h1.193v2.24c0 0.233 0.193 0.427 0.433 0.427s0.433-0.193 0.433-0.427v-2.24h1.193c0.24 0 0.433-0.193 0.433-0.427v-1.52c0.92-0.327 1.58-1.193 1.58-2.213v-1.38h7.247c0.633 0 1.153 0.513 1.153 1.14v8.82h-16.873c-0.947 0-1.72 0.767-1.72 1.707 0 0.787 0.54 1.44 1.273 1.64l0.58 1.153c0.453 0.907 1.373 1.467 2.393 1.467h23.52c1.020 0 1.933-0.56 2.393-1.467l0.58-1.153c0.727-0.2 1.273-0.853 1.273-1.64 0-0.94-0.773-1.707-1.72-1.707h-0.413v-2.48h0.693zM30.573 11.133c0.307 0 0.56 0.247 0.56 0.553v7.173c0 0.307-0.253 0.553-0.56 0.553h-0.713v-7.64c0-0.207-0.013-0.407-0.033-0.613 0-0.013 0-0.020 0-0.033h0.747zM5.367 4.22h2.38v0.953h-2.38v-0.953zM7.747 17.467h-2.38v-0.953h2.38v0.953zM29.373 26.853c-0.307 0.613-0.927 0.993-1.613 0.993h-23.52c-0.693 0-1.307-0.38-1.613-0.993l-0.36-0.707h27.46l-0.353 0.707zM31.133 24.447c0 0.467-0.387 0.847-0.86 0.847h-28.553c-0.473 0-0.86-0.38-0.86-0.847s0.387-0.847 0.86-0.847h17.3c0 0 0.007 0 0.007 0h10.4c0 0 0.007 0 0.007 0h0.84c0.473-0.007 0.86 0.373 0.86 0.847zM19.46 22.74v-8.82c0-1.1-0.907-1.993-2.020-1.993h-7.68c-0.24 0-0.433 0.193-0.433 0.427v1.813c0 0.82-0.68 1.493-1.513 1.493h-2.52c-0.833 0-1.513-0.667-1.513-1.493v-8.14h19.407c2.827 0 5.233 2 5.72 4.753 0.060 0.327 0.093 0.66 0.093 0.993v10.967h-9.54z"></path>
</svg>
