<?xml version="1.0" encoding="utf-8"?>
<!-- Generator: Adobe Illustrator 24.1.1, SVG Export Plug-In . SVG Version: 6.00 Build 0)  -->
<svg version="1.1" id="OBJECTS" xmlns="http://www.w3.org/2000/svg" xmlns:xlink="http://www.w3.org/1999/xlink" x="0px" y="0px"
	 viewBox="0 0 52.01 58" style="enable-background:new 0 0 52.01 58;" xml:space="preserve">
<style type="text/css">
	.st0{fill:#231F20;}
</style>
<g>
	<g>
		<path class="st0" d="M31.19,17.99c-0.09,0.7-0.15,1.44-0.19,2.19c-0.03,0.53,0.4,0.99,0.93,0.99c0.49,0,0.9-0.39,0.93-0.88
			c0.04-0.71,0.1-1.4,0.18-2.06c0.06-0.51-0.3-0.98-0.81-1.04C31.72,17.12,31.26,17.48,31.19,17.99z M51.71,26.03
			C51.77,26.39,52.16,29.01,51.71,26.03C51.71,26.02,51.71,26.02,51.71,26.03c-0.07-0.46-0.46-0.8-0.92-0.8h-3.86
			c1.31-2.64,2.38-5.41,2.63-8.37c0.29-3.4-1.95-6.53-5.33-7.45c-0.82-0.22-1.65-0.3-2.45-0.24c0.35-0.29,0.73-0.55,1.15-0.75
			c1.23-0.6,1.92-2.03,1.58-3.37c-0.36-1.4-1.76-2.36-3.19-2.17c-2.72,0.39-4.97,2.24-6.02,4.7C34.56,7,33.7,6.55,32.73,6.28
			c0,0,0,0,0,0c-3.38-0.92-6.87,0.65-8.29,3.75c-1.06,2.3-1.52,4.76-1.74,7.26c-0.24,2.63-0.25,5.32,0.14,7.94h-2.92
			c0.11-4.76-0.29-9.86-2.29-14.24c-1.38-3.01-4.39-4.81-7.62-4.73l1.47-2.65c0.25-0.45,0.09-1.02-0.36-1.27
			c-0.45-0.25-1.01-0.09-1.26,0.36L8.56,5.05L7.41,0.7C7.28,0.2,6.77-0.1,6.27,0.03c-0.5,0.13-0.79,0.64-0.66,1.14l1.15,4.37
			l-2.3-1.37C4.03,3.91,3.46,4.05,3.2,4.5C2.94,4.94,3.08,5.52,3.52,5.78L6.1,7.32c-2.83,1.57-4.56,4.65-4.27,7.96
			c0.31,3.52,1.58,6.81,3.12,9.95H1.32c-0.45,0-0.83,0.32-0.91,0.77c-0.54,2.99-0.54,5.95,0,8.8c1.92,10.09,9.81,15.38,12.19,16.76
			c1.04,0.61,2.14,1.13,3.27,1.58v3.93c0,0.52,0.42,0.94,0.93,0.94h18.49c0.51,0,0.93-0.42,0.93-0.94v-3.94
			c1.46-0.62,2.88-1.37,4.2-2.25c5.5-3.67,9.36-8.98,10.87-14.93C52.08,32.76,52.22,29.42,51.71,26.03z M47.72,16.7
			c0,1.44-0.48,2.92-0.96,4.26c-0.53,1.47-1.19,2.89-1.92,4.27h-4.48c1.36-2.45,2.44-5.03,2.94-6.94c0.64-2.43,0.86-5-0.51-7.22
			C43.65,11.06,47.72,12.05,47.72,16.7z M41.59,4.74c1.32-0.26,1.94,1.34,0.53,2c-0.87,0.41-1.61,0.98-2.24,1.65
			c-0.79-0.4-1.64-0.66-2.53-0.76C38.25,6.11,39.8,5.09,41.59,4.74z M36.55,9.46c1.87,0,3.67,0.97,4.67,2.57
			c1.1,1.77,0.8,3.85,0.3,5.77c-0.58,2.2-1.83,4.97-3.3,7.43h-5.33c-0.1-0.82-0.06-1.39-0.07-2.69c0-0.51-0.42-0.93-0.93-0.93h-0.01
			c-0.51,0-0.92,0.43-0.92,0.94c0.01,1.24-0.01,1.89,0.06,2.67h-0.72c-0.3-3.33-0.09-7.4,0.68-10.3c0.35-1.34,0.8-2.74,1.74-3.79
			C33.67,10.06,35.11,9.46,36.55,9.46z M24.49,18c0.18-2.46,0.59-4.93,1.63-7.18c1.22-2.65,4.49-3.6,7.05-2.38
			c-1.28,0.69-2.34,1.77-2.98,3.16c-0.94,2.04-1.41,4.21-1.66,6.44c-0.27,2.38-0.33,4.8-0.13,7.19h-3.68
			C24.35,22.85,24.32,20.4,24.49,18z M4.77,20.2c1.5-0.4,4-1.07,4-1.07c0.5-0.13,0.79-0.65,0.65-1.15c-0.13-0.5-0.64-0.79-1.14-0.66
			l-4.01,1.09c-0.18-0.75-0.34-1.59-0.49-2.56c1.43-0.38,3.85-1.03,3.85-1.03c0.5-0.13,0.79-0.65,0.65-1.15
			c-0.13-0.5-0.65-0.79-1.14-0.66l-3.51,0.96c0.17-2.62,2.17-4.9,4.84-5.63c3.05-0.83,6.19,0.61,7.47,3.42
			c1.89,4.14,2.25,8.96,2.1,13.46H7.01c-0.16-0.31-0.31-0.61-0.46-0.9c1.34-0.36,3.35-0.9,3.35-0.9c0.5-0.13,0.79-0.65,0.65-1.15
			c-0.13-0.5-0.64-0.79-1.14-0.66l-3.7,1.01C5.38,21.89,5.06,21.12,4.77,20.2z M34.35,56.13H17.72v-2.71h16.63V56.13z M49.47,35.48
			c-1.74,6.56-7.39,12.88-14.33,16.08H16.95c-6.6-2.44-12.18-8.2-14.21-15c-0.91-3.06-1.11-6.3-0.64-9.46h47.88
			C50.32,29.97,50.18,32.8,49.47,35.48z M51.71,26.02C51.71,26.02,51.71,26.02,51.71,26.02C51.7,25.98,51.7,25.97,51.71,26.02z"/>
	</g>
</g>
</svg>
