<?xml version="1.0" encoding="utf-8"?>
<!-- Generator: Adobe Illustrator 24.1.1, SVG Export Plug-In . SVG Version: 6.00 Build 0)  -->
<svg version="1.1" id="OBJECTS" xmlns="http://www.w3.org/2000/svg" xmlns:xlink="http://www.w3.org/1999/xlink" x="0px" y="0px"
	 viewBox="0 0 48 45" style="enable-background:new 0 0 48 45;" xml:space="preserve">
<g>
	<g>
		<path d="M47.21,17.11c-0.01,0-0.01,0-0.02,0h-5.53V4.98c0-2.74-2.23-4.98-4.93-4.98H11.26c-2.7,0-4.93,2.24-4.93,4.98v12.13H0.8
			c-0.44,0-0.8,0.35-0.8,0.8c0,0.01,0,0.01,0,0.02v7.98c-0.01,0.46,0.35,0.84,0.8,0.85h1.75v13.27c0,2.75,2.19,4.98,4.9,4.98h33.09
			c2.71-0.01,4.9-2.23,4.9-4.98V26.75h1.75c0.45-0.01,0.81-0.39,0.8-0.85v-7.98C48,17.48,47.65,17.11,47.21,17.11z M7.97,4.98
			c0.02-1.84,1.49-3.32,3.3-3.32h25.47c1.81,0,3.28,1.48,3.3,3.32v12.13h-2.78c0-0.1,0.01-0.16,0.01-0.23
			c-0.01-0.63-0.08-1.26-0.22-1.87c-0.05-0.21-0.09-0.43-0.13-0.63c-0.19-0.93-0.54-1.9-1.08-2.96c-0.42-0.85-0.97-1.61-1.63-2.28
			c-0.73-0.71-1.53-1.16-2.37-1.34c-0.26-0.06-0.53-0.08-0.8-0.08c-1.18,0-2.33,0.54-3.32,1.56c-0.13-0.15-0.27-0.3-0.41-0.44
			c-0.76-0.74-1.6-1.21-2.47-1.4c-0.28-0.06-0.56-0.09-0.84-0.09c-1.24,0-2.45,0.57-3.5,1.65c-0.06,0.07-0.13,0.13-0.19,0.19
			c-0.01,0.01-0.03,0.03-0.04,0.04c-0.98-0.99-2.12-1.52-3.29-1.52c-0.27,0-0.54,0.03-0.8,0.09c-0.84,0.18-1.64,0.63-2.37,1.34
			c-0.66,0.66-1.22,1.43-1.63,2.28c-0.54,1.06-0.89,2.03-1.08,2.96c-0.04,0.2-0.08,0.41-0.13,0.62c-0.14,0.62-0.21,1.24-0.22,1.87
			c0,0.08,0,0.13,0.01,0.23H7.97V4.98z M30.27,14.99c-0.05-0.23-0.09-0.45-0.14-0.66c-0.2-0.98-0.57-2-1.13-3.11
			c-0.1-0.2-0.21-0.4-0.33-0.59c0.05-0.05,0.11-0.11,0.17-0.17c0.68-0.71,1.44-1.08,2.18-1.08c0.16,0,0.32,0.02,0.47,0.05
			c0.54,0.11,1.07,0.42,1.58,0.91c0.53,0.54,0.97,1.16,1.31,1.84c0.47,0.92,0.77,1.75,0.93,2.53c0.04,0.21,0.09,0.42,0.13,0.64
			c0.11,0.5,0.17,1.01,0.18,1.52c0,0.08,0,0.13-0.01,0.23h-5.12c0-0.1,0-0.11,0-0.16C30.49,16.29,30.41,15.63,30.27,14.99z
			 M17.53,17.11h-5.15c0-0.1-0.01-0.16-0.01-0.23c0.01-0.51,0.07-1.02,0.18-1.52c0.05-0.22,0.09-0.44,0.13-0.64
			c0.19-0.88,0.51-1.74,0.93-2.53c0.33-0.68,0.77-1.3,1.31-1.84c0.51-0.49,1.04-0.8,1.58-0.91c0.9-0.19,1.82,0.18,2.65,1.03
			c0.02,0.02,0.04,0.05,0.07,0.07c-0.33,0.5-0.61,1.02-0.85,1.57c-0.54,1.25-0.81,2.47-0.86,3.95C17.5,16.4,17.5,16.75,17.53,17.11z
			 M19.86,12.77c0.41-0.95,0.97-1.79,1.57-2.38c0.07-0.07,0.15-0.15,0.22-0.22c0.73-0.76,1.53-1.15,2.33-1.15
			c0.17,0,0.34,0.02,0.5,0.05c0.58,0.12,1.14,0.45,1.68,0.97c0.56,0.57,1.03,1.23,1.39,1.95c0.5,0.98,0.82,1.85,0.98,2.68
			c0.04,0.22,0.09,0.45,0.14,0.68c0.12,0.53,0.18,1.07,0.19,1.61c0,0.05,0,0.05,0,0.16h-9.69c-0.03-0.33-0.04-0.67-0.03-1
			C19.16,14.95,19.41,13.82,19.86,12.77z M43.81,40.02c0,1.83-1.46,3.32-3.27,3.32H7.45c-1.8,0-3.27-1.49-3.27-3.32V26.75h39.62
			V40.02z M46.36,25.09H1.63v-6.33h44.73V25.09z M24,39.26c0.45,0,0.82-0.37,0.82-0.83v-7.95c0-0.46-0.37-0.83-0.82-0.83
			c-0.45,0-0.82,0.37-0.82,0.83v7.95C23.18,38.89,23.55,39.26,24,39.26z M33.19,39.26c0.45,0,0.82-0.37,0.82-0.83v-7.95
			c0-0.46-0.37-0.83-0.82-0.83c-0.45,0-0.82,0.37-0.82,0.83v7.95C32.37,38.89,32.74,39.26,33.19,39.26z M14.81,39.26
			c0.45,0,0.82-0.37,0.82-0.83v-7.95c0-0.46-0.37-0.83-0.82-0.83c-0.45,0-0.82,0.37-0.82,0.83v7.95
			C13.99,38.89,14.36,39.26,14.81,39.26z"/>
	</g>
</g>
</svg>
