<!-- Generated by IcoMoon.io -->
<svg version="1.1" xmlns="http://www.w3.org/2000/svg" width="32" height="32" viewBox="0 0 32 32">
<title>design</title>
<path d="M16 0c-8.82 0-16 7.18-16 16s7.18 16 16 16 16-7.18 16-16c0-8.82-7.18-16-16-16zM16 31.2c-8.38 0-15.2-6.82-15.2-15.2s6.82-15.2 15.2-15.2 15.2 6.82 15.2 15.2c0 8.38-6.82 15.2-15.2 15.2z"></path>
<path d="M16 3.613c-6.833 0-12.393 5.553-12.393 12.387s5.56 12.387 12.393 12.387 12.387-5.553 12.387-12.387c0-6.833-5.553-12.387-12.387-12.387zM16 27.587c-6.393 0-11.593-5.2-11.593-11.587 0-6.393 5.2-11.587 11.593-11.587s11.587 5.2 11.587 11.593c0 6.387-5.193 11.58-11.587 11.58z"></path>
<path d="M10.653 13.18c-1.553 0-2.82 1.267-2.82 2.82s1.267 2.82 2.82 2.82 2.82-1.267 2.82-2.82c0-1.553-1.267-2.82-2.82-2.82zM10.653 18.020c-1.113 0-2.020-0.907-2.020-2.020s0.907-2.020 2.020-2.020c1.113 0 2.020 0.907 2.020 2.020s-0.907 2.020-2.020 2.020z"></path>
<path d="M21.347 13.18c-1.553 0-2.82 1.267-2.82 2.82s1.267 2.82 2.82 2.82 2.82-1.267 2.82-2.82c0.007-1.553-1.26-2.82-2.82-2.82zM21.347 18.020c-1.113 0-2.020-0.907-2.020-2.020s0.907-2.020 2.020-2.020c1.113 0 2.020 0.907 2.020 2.020 0.007 1.113-0.907 2.020-2.020 2.020z"></path>
<path d="M16 13.473c1.553 0 2.82-1.267 2.82-2.82s-1.267-2.82-2.82-2.82-2.82 1.267-2.82 2.82c0 1.553 1.267 2.82 2.82 2.82zM16 8.627c1.113 0 2.020 0.907 2.020 2.020s-0.907 2.020-2.020 2.020-2.020-0.907-2.020-2.020c0-1.113 0.907-2.020 2.020-2.020z"></path>
<path d="M16 18.527c-1.553 0-2.82 1.267-2.82 2.82s1.267 2.82 2.82 2.82 2.82-1.267 2.82-2.82c0-1.553-1.267-2.82-2.82-2.82zM16 23.373c-1.113 0-2.020-0.907-2.020-2.020s0.907-2.020 2.020-2.020 2.020 0.907 2.020 2.020c0 1.113-0.907 2.020-2.020 2.020z"></path>
</svg>
