<!-- Generated by IcoMoon.io -->
<svg version="1.1" xmlns="http://www.w3.org/2000/svg" width="32" height="32" viewBox="0 0 32 32">
<title>experiences</title>
<path d="M7.147 11.68l-4.287 5.207 13.147 13.113 13.147-13.113-4.333-5.207h-17.673zM24.187 12.413l-3.793 3.78-3.793-3.78h7.587zM19.653 16.493h-7.287l3.647-3.633 3.64 3.633zM15.42 12.413l-3.793 3.78-3.793-3.78h7.587zM7.193 12.807l3.647 3.687h-6.7l3.053-3.687zM4.24 17.227h7.14l3.74 10.853-10.88-10.853zM12.167 17.227h7.633l-3.793 11.053-3.84-11.053zM16.8 28.18l3.793-10.953h7.24l-11.033 10.953zM27.927 16.493h-6.747l3.693-3.687 3.053 3.687zM16.353 2h-0.74v3.587h0.74v-3.587zM8.987 7.32l-1.8-3.107-0.633 0.367 1.8 3.107 0.633-0.367zM3.48 12.58l-3.113-1.793-0.367 0.64 3.113 1.793 0.367-0.64zM32 11.4l-0.367-0.64-3.113 1.793 0.367 0.64 3.113-1.793zM25.48 4.593l-0.64-0.367-1.8 3.107 0.64 0.367 1.8-3.107z"></path>
</svg>
