<?xml version="1.0" encoding="utf-8"?>
<!-- Generator: Adobe Illustrator 24.1.1, SVG Export Plug-In . SVG Version: 6.00 Build 0)  -->
<svg version="1.1" id="OBJECTS" xmlns="http://www.w3.org/2000/svg" xmlns:xlink="http://www.w3.org/1999/xlink" x="0px" y="0px"
	 viewBox="0 0 54 54.01" style="enable-background:new 0 0 54 54.01;" xml:space="preserve">
<style type="text/css">
	.st0{fill:#231F20;}
</style>
<g>
	<g>
		<path class="st0" d="M18.17,46.78c-3.73-1.7-7.8-2.55-11.9-2.5L2.4,44.47l-1.2,0.19c-0.51,0.08-0.86,0.55-0.78,1.07
			c0.07,0.49,0.51,0.82,0.99,0.78l1.27-0.18l3.6-0.28c3.82-0.02,7.6,0.8,11.07,2.41c2.67,1.24,5.1,2.93,7.19,5
			c0.41,0.31,0.99,0.22,1.29-0.19c0.25-0.33,0.25-0.78,0-1.11C23.6,49.94,21.01,48.12,18.17,46.78z M1.48,46.51
			c-0.02,0-0.04-0.01-0.07,0l-0.02,0H1.48z M37.91,52.25c-3.95-6.02-9.47-10.83-15.96-13.9c-6.45-3-13.6-4.15-20.66-3.34
			c-0.51,0.05-0.88,0.51-0.83,1.02c0.05,0.51,0.51,0.89,1.01,0.83c6.71-0.78,13.51,0.31,19.64,3.15c6.2,2.95,11.47,7.57,15.22,13.34
			c0.17,0.23,0.45,0.37,0.74,0.37l0.55-0.19c0.43-0.27,0.56-0.84,0.29-1.28C37.92,52.26,37.91,52.26,37.91,52.25z M53.13,44.65
			l-1.29-0.19c-2.73-0.35-5.49-0.32-8.21,0.09c-1.71-2.3-3.63-4.44-5.72-6.39c4.84-1.44,9.92-1.88,14.94-1.3
			c0.51,0.05,0.96-0.32,1.01-0.83c0.05-0.51-0.32-0.97-0.83-1.02c-5.65-0.67-11.38-0.1-16.79,1.67c-2.23-1.89-4.64-3.57-7.19-5h0.09
			c7.44-3.41,15.67-4.72,23.79-3.8c0.51,0.05,0.96-0.32,1.01-0.83c0.05-0.51-0.32-0.97-0.83-1.02l-2.95-0.28v-7.13l2.21,1.67
			l0.55,0.19c0.51,0,0.92-0.41,0.92-0.93c0-0.29-0.14-0.57-0.37-0.74l-10.14-7.41c-0.33-0.25-0.78-0.25-1.11,0L32.1,18.8
			c-0.41,0.31-0.49,0.89-0.18,1.3c0.31,0.41,0.88,0.49,1.29,0.18l2.21-1.67v8.9c-2.4,0.67-4.75,1.54-7.01,2.59l-1.29,0.65
			l-1.29-0.65c-3.97-1.89-8.2-3.2-12.54-3.89v-6.76c5.34-0.24,9.48-4.79,9.23-10.16c-0.24-5.37-4.77-9.52-10.11-9.28
			C7.06,0.25,2.93,4.8,3.17,10.17c0.21,4.66,3.68,8.51,8.27,9.18v6.67c-3.52-0.39-7.08-0.39-10.61,0C0.33,26.08-0.05,26.53,0,27.05
			c0.05,0.51,0.51,0.89,1.01,0.83c8.19-0.95,16.48,0.36,23.98,3.8c9.54,4.52,17.23,12.21,21.77,21.77c0.14,0.33,0.47,0.55,0.83,0.56
			h0.37c0.45-0.21,0.66-0.74,0.46-1.2c-1.06-2.25-2.3-4.42-3.69-6.49c2.27-0.28,4.56-0.28,6.82,0l1.38,0.19h0.09
			c0.51,0.03,0.94-0.37,0.97-0.88C54.03,45.11,53.64,44.68,53.13,44.65z M44.64,25.84l-3.69,0.37v-3.98h3.69V25.84z M37.26,17.22
			l5.53-4.08l5.53,4.08v8.52h-1.84V21.3c0-0.51-0.41-0.93-0.92-0.93h-5.53c-0.51,0-0.92,0.41-0.92,0.93v5.28l-1.84,0.37V17.22z
			 M12.36,5.55c-0.51,0-0.92,0.41-0.92,0.93v3.61L8.03,8.42C7.57,8.19,7.01,8.38,6.78,8.84C6.55,9.3,6.74,9.86,7.2,10.09l4.24,2.04
			v5.37c-3.75-0.68-6.47-3.96-6.46-7.78c0.01-4.35,3.52-7.87,7.85-7.86c4.33,0.01,7.83,3.54,7.83,7.89
			c-0.01,4.16-3.24,7.6-7.38,7.85v-2.78l4.06-1.95c0.46-0.23,0.64-0.79,0.42-1.25c-0.23-0.46-0.79-0.65-1.25-0.42l-3.23,1.58v-6.3
			C13.29,5.96,12.87,5.55,12.36,5.55z"/>
	</g>
</g>
</svg>
