<?xml version="1.0" encoding="utf-8"?>
<!-- Generator: Adobe Illustrator 24.1.1, SVG Export Plug-In . SVG Version: 6.00 Build 0)  -->
<svg version="1.1" id="OBJECTS" xmlns="http://www.w3.org/2000/svg" xmlns:xlink="http://www.w3.org/1999/xlink" x="0px" y="0px"
	 viewBox="0 0 48 47.99" style="enable-background:new 0 0 48 47.99;" xml:space="preserve">
<g>
	<g>
		<path d="M33.6,35.99c7.94,0,14.4-6.46,14.4-14.4c0-7.94-6.46-14.4-14.4-14.4c-2.27,0-4.42,0.54-6.33,1.49C24.24,5.67,20.27,4,16,4
			c-0.48,0-0.98,0.03-1.54,0.09c-1.72-2.6-4.29-3.68-5.41-4.05C8.72-0.07,8.36,0.05,8.16,0.32l-2.4,3.2
			C5.62,3.71,5.57,3.95,5.62,4.17c0.05,0.23,0.2,0.42,0.41,0.53c0.75,0.4,1.44,0.86,2.09,1.39C3.15,8.92,0,14.25,0,19.99
			c0,8.82,7.18,15.99,16,15.99c3.26,0,6.37-0.99,9.05-2.84C27.44,34.93,30.4,35.99,33.6,35.99z M7.58,3.75l1.5-2
			c1.17,0.48,3.4,1.67,4.59,4.19c0.68,1.44,0.81,2.83,0.76,3.86l-1.19,0.4c-0.58-1.28-1.33-2.46-2.24-3.53c0,0,0,0,0,0
			c-0.19-0.22-0.39-0.44-0.61-0.66c-0.1-0.1-0.2-0.2-0.3-0.3c-0.01-0.01-0.02-0.02-0.02-0.02c0,0-0.01,0-0.01-0.01
			C9.3,4.95,8.48,4.31,7.58,3.75z M16,34.39c-7.94,0-14.4-6.46-14.4-14.4c0-5.34,3.02-10.28,7.75-12.75C9.5,7.4,9.65,7.55,9.79,7.72
			c0.96,1.12,1.72,2.39,2.26,3.77c0.04,0.09,0.09,0.17,0.15,0.24c0.02,0.02,0.04,0.04,0.06,0.06c0.05,0.04,0.09,0.08,0.15,0.11
			c0.03,0.02,0.06,0.03,0.09,0.04c0.06,0.02,0.12,0.04,0.18,0.05c0.03,0.01,0.06,0.01,0.09,0.01c0.01,0,0.02,0.01,0.03,0.01
			c0.08,0,0.17-0.01,0.25-0.04l2.4-0.8c0.3-0.1,0.51-0.36,0.54-0.68c0.02-0.15,0.03-0.32,0.04-0.49c0-0.05,0-0.11,0-0.16
			c0-0.13,0.01-0.25,0.01-0.39c0-0.07,0-0.14,0-0.21c0-0.13,0-0.25-0.01-0.38c0-0.08-0.01-0.16-0.02-0.24
			C16,8.48,15.99,8.36,15.97,8.22c-0.01-0.09-0.02-0.17-0.04-0.26c-0.02-0.13-0.04-0.27-0.07-0.4c-0.02-0.09-0.04-0.19-0.06-0.28
			c-0.03-0.14-0.06-0.27-0.1-0.41c-0.03-0.1-0.06-0.2-0.09-0.3c-0.04-0.14-0.09-0.28-0.14-0.42c-0.04-0.1-0.08-0.21-0.12-0.31
			c-0.03-0.07-0.05-0.15-0.08-0.22C15.53,5.61,15.77,5.6,16,5.6c3.69,0,7.14,1.37,9.82,3.88c-0.09,0.06-0.17,0.12-0.25,0.17
			c-0.01,0-0.01,0.01-0.02,0.01c-1.54,1.04-2.85,2.36-3.87,3.86c-0.01,0.01-0.02,0.03-0.03,0.04c-0.49,0.73-0.91,1.5-1.26,2.31
			c-0.03,0.07-0.06,0.13-0.09,0.2c-0.16,0.38-0.3,0.77-0.43,1.17c-0.02,0.07-0.04,0.15-0.06,0.22c-0.1,0.35-0.2,0.7-0.27,1.06
			c-0.02,0.08-0.04,0.16-0.05,0.24c-0.08,0.4-0.14,0.81-0.19,1.23c-0.01,0.1-0.02,0.19-0.03,0.29c-0.04,0.43-0.07,0.87-0.07,1.31
			c0,0.5,0.03,0.99,0.08,1.48c0.02,0.19,0.06,0.38,0.09,0.56c0.04,0.29,0.08,0.59,0.14,0.87c0.05,0.27,0.13,0.52,0.2,0.79
			c0.05,0.2,0.1,0.4,0.16,0.6c0.09,0.29,0.21,0.58,0.32,0.87c0.06,0.15,0.11,0.31,0.17,0.46c0.12,0.29,0.27,0.57,0.41,0.85
			c0.07,0.14,0.13,0.28,0.21,0.42c0.15,0.27,0.31,0.52,0.47,0.78c0.09,0.14,0.18,0.29,0.27,0.43c0.16,0.23,0.33,0.45,0.5,0.67
			c0.12,0.16,0.24,0.32,0.37,0.48c0.16,0.19,0.33,0.37,0.5,0.55c0.16,0.17,0.33,0.35,0.5,0.51c0.06,0.06,0.11,0.12,0.17,0.18
			C21.44,33.6,18.77,34.39,16,34.39z M24.26,30.32c-0.21-0.22-0.42-0.45-0.61-0.69c-0.13-0.16-0.25-0.33-0.37-0.49
			c-0.14-0.19-0.28-0.38-0.4-0.57c-0.12-0.18-0.23-0.37-0.34-0.56c-0.11-0.19-0.22-0.39-0.32-0.59c-0.1-0.19-0.2-0.39-0.29-0.59
			c-0.1-0.21-0.18-0.43-0.26-0.64c-0.08-0.19-0.15-0.39-0.22-0.59c-0.08-0.24-0.15-0.49-0.21-0.74c-0.05-0.18-0.1-0.36-0.14-0.55
			c-0.06-0.29-0.11-0.59-0.15-0.88c-0.02-0.15-0.05-0.3-0.07-0.45c-0.05-0.45-0.08-0.91-0.08-1.38c0-0.39,0.02-0.78,0.06-1.16
			c0.01-0.1,0.02-0.2,0.03-0.3c0.04-0.35,0.09-0.7,0.16-1.05c0.01-0.03,0.01-0.06,0.02-0.09c0.08-0.36,0.17-0.71,0.27-1.06
			c0.03-0.1,0.06-0.19,0.09-0.29c0.11-0.33,0.23-0.66,0.36-0.99c0.01-0.02,0.01-0.04,0.02-0.05c0.15-0.36,0.32-0.7,0.5-1.04
			c0.03-0.05,0.05-0.1,0.08-0.15c0.98-1.76,2.36-3.28,4.02-4.41c0.02-0.01,0.04-0.03,0.06-0.04C28.52,9.6,30.97,8.8,33.6,8.8
			c7.06,0,12.8,5.74,12.8,12.8s-5.74,12.8-12.8,12.8c-3.06,0-5.87-1.08-8.07-2.88c-0.35-0.29-0.68-0.59-1-0.9
			C24.43,30.52,24.35,30.41,24.26,30.32z M26.23,30c0.24,0.21,0.49,0.41,0.75,0.6c0.04,0.03,0.09,0.07,0.13,0.1
			c0.28,0.2,0.58,0.39,0.88,0.57c0.02,0.01,0.04,0.03,0.07,0.04c1.64,0.93,3.52,1.48,5.54,1.48c0.38,0,0.76-0.02,1.13-0.06
			c0.06-0.01,0.12-0.02,0.17-0.03c0.32-0.04,0.63-0.08,0.94-0.14c0.01,0,0.02-0.01,0.04-0.01c2.12-0.44,4.07-1.48,5.63-3.04
			c0.01-0.01,0.01-0.02,0.02-0.03c2.02-2.03,3.26-4.81,3.26-7.89c0-2.9-1.12-5.55-2.94-7.54c-0.01-0.01-0.01-0.02-0.02-0.03
			c-0.02-0.03-0.05-0.05-0.07-0.07c-0.22-0.23-0.44-0.45-0.67-0.66c-0.05-0.04-0.1-0.09-0.14-0.13c-0.25-0.22-0.52-0.43-0.79-0.63
			c-0.03-0.02-0.06-0.05-0.09-0.07c-1.83-1.3-4.06-2.07-6.47-2.07c-0.38,0-0.76,0.02-1.13,0.06c-0.06,0.01-0.11,0.02-0.17,0.03
			c-0.32,0.04-0.63,0.08-0.95,0.14c-0.01,0-0.02,0.01-0.03,0.01c-2.12,0.44-4.07,1.48-5.64,3.04c-0.01,0.01-0.01,0.02-0.02,0.03
			c-2.02,2.03-3.26,4.81-3.26,7.89c0,2.88,1.11,5.51,2.9,7.49c0.01,0.01,0.01,0.02,0.02,0.03c0.03,0.03,0.06,0.06,0.09,0.08
			c0.21,0.23,0.43,0.44,0.66,0.65C26.12,29.9,26.17,29.95,26.23,30z M40.92,27.78l-5.39-5.39h7.63
			C42.99,24.44,42.18,26.3,40.92,27.78z M41.21,15.76c1.09,1.42,1.8,3.15,1.95,5.03h-7.49L41.21,15.76z M34.4,12.04
			c0.03,0,0.05,0,0.08,0c0.13,0.01,0.27,0.03,0.4,0.05c0.15,0.02,0.3,0.04,0.44,0.07c0.17,0.03,0.33,0.07,0.5,0.11
			c0.1,0.02,0.19,0.05,0.29,0.07c0.19,0.05,0.38,0.11,0.57,0.17c0.04,0.02,0.09,0.03,0.13,0.05c0.95,0.34,1.84,0.82,2.64,1.44
			c0.02,0.01,0.03,0.02,0.05,0.04c0.18,0.14,0.36,0.29,0.53,0.45c0.02,0.02,0.04,0.04,0.07,0.06l-5.7,5.2V12.04z M34.4,23.52
			l5.39,5.39c-0.26,0.22-0.53,0.43-0.81,0.62c-0.02,0.01-0.04,0.02-0.06,0.04c-0.24,0.16-0.48,0.31-0.74,0.45
			c-0.01,0.01-0.02,0.01-0.04,0.02c-0.54,0.29-1.1,0.53-1.7,0.72c-0.01,0-0.03,0.01-0.04,0.01c-0.26,0.08-0.53,0.15-0.79,0.2
			c-0.07,0.01-0.14,0.03-0.21,0.04c-0.23,0.04-0.45,0.08-0.69,0.1c-0.07,0.01-0.15,0.02-0.22,0.03c-0.04,0-0.07,0-0.11,0.01V23.52z
			 M32.8,31.15c-0.03,0-0.06,0-0.09,0c-0.12-0.01-0.24-0.03-0.36-0.05c-0.16-0.02-0.32-0.04-0.48-0.07
			c-0.16-0.03-0.31-0.06-0.47-0.1c-0.11-0.03-0.22-0.06-0.33-0.09c-0.18-0.05-0.36-0.1-0.54-0.16c-0.07-0.02-0.13-0.05-0.19-0.07
			c-0.94-0.34-1.83-0.83-2.63-1.46c-0.01-0.01-0.02-0.01-0.03-0.02c-0.18-0.14-0.36-0.3-0.53-0.45c-0.02-0.02-0.05-0.04-0.07-0.06
			l5.73-5.21V31.15z M28.21,13.66c0.02-0.01,0.04-0.02,0.06-0.04c0.24-0.16,0.48-0.31,0.74-0.45c0.01-0.01,0.02-0.01,0.04-0.02
			c0.54-0.29,1.1-0.53,1.7-0.72c0.01,0,0.03-0.01,0.04-0.01c0.26-0.08,0.53-0.15,0.79-0.2c0.07-0.01,0.14-0.03,0.21-0.04
			c0.23-0.04,0.45-0.08,0.69-0.1c0.07-0.01,0.15-0.02,0.22-0.03c0.04,0,0.07,0,0.11-0.01v7.63l-5.39-5.39
			C27.67,14.05,27.93,13.85,28.21,13.66z M26.28,15.4l5.39,5.39h-7.63C24.21,18.75,25.02,16.88,26.28,15.4z M24.04,22.39h7.46
			l-5.51,5.03C24.9,26,24.2,24.28,24.04,22.39z M26.59,37.07c-0.18,0.21-1.79,2.14-1.79,3.72c0,0.9,0.31,2.4,2.4,2.4
			c2.09,0,2.4-1.5,2.4-2.4c0-1.57-1.61-3.5-1.79-3.72C27.5,36.71,26.9,36.71,26.59,37.07z M27.2,41.59c-0.64,0-0.8-0.09-0.8-0.8
			c0-0.5,0.38-1.24,0.8-1.86c0.42,0.63,0.8,1.37,0.8,1.86C28,41.49,27.84,41.59,27.2,41.59z M39.39,37.07
			c-0.18,0.21-1.79,2.14-1.79,3.72c0,0.9,0.31,2.4,2.4,2.4c2.09,0,2.4-1.5,2.4-2.4c0-1.57-1.61-3.5-1.79-3.72
			C40.3,36.71,39.7,36.71,39.39,37.07z M40,41.59c-0.64,0-0.8-0.09-0.8-0.8c0-0.5,0.38-1.24,0.8-1.86c0.42,0.63,0.8,1.37,0.8,1.86
			C40.8,41.49,40.64,41.59,40,41.59z M8.63,26.69c-1.5-1.89-2.04-3.88-2.23-5.21l-1.58,0.22c0.22,1.53,0.84,3.81,2.57,5.98
			c1.14,1.43,2.62,2.61,4.28,3.42l0.7-1.44C10.91,28.97,9.62,27.94,8.63,26.69z M32.99,41.87c-0.18,0.21-1.79,2.14-1.79,3.72
			c0,0.9,0.31,2.4,2.4,2.4c2.09,0,2.4-1.5,2.4-2.4c0-1.57-1.61-3.5-1.79-3.72C33.9,41.51,33.3,41.51,32.99,41.87z M33.6,46.39
			c-0.64,0-0.8-0.09-0.8-0.8c0-0.5,0.38-1.24,0.8-1.86c0.42,0.63,0.8,1.37,0.8,1.86C34.4,46.29,34.24,46.39,33.6,46.39z
			 M44.99,41.87c-0.18,0.21-1.79,2.14-1.79,3.72c0,0.9,0.31,2.4,2.4,2.4c2.09,0,2.4-1.5,2.4-2.4c0-1.57-1.61-3.5-1.79-3.72
			C45.9,41.51,45.3,41.51,44.99,41.87z M45.6,46.39c-0.64,0-0.8-0.09-0.8-0.8c0-0.5,0.38-1.24,0.8-1.86c0.42,0.63,0.8,1.37,0.8,1.86
			C46.4,46.29,46.24,46.39,45.6,46.39z M20.99,41.87c-0.18,0.21-1.79,2.14-1.79,3.72c0,0.9,0.31,2.4,2.4,2.4c2.09,0,2.4-1.5,2.4-2.4
			c0-1.57-1.61-3.5-1.79-3.72C21.9,41.51,21.3,41.51,20.99,41.87z M21.6,46.39c-0.64,0-0.8-0.09-0.8-0.8c0-0.5,0.38-1.24,0.8-1.86
			c0.42,0.63,0.8,1.37,0.8,1.86C22.4,46.29,22.24,46.39,21.6,46.39z M39.2,46.39h1.6v-1.6h-1.6V46.39z M26.4,46.39H28v-1.6h-1.6
			V46.39z M46.4,33.59h-1.6v1.6h1.6V33.59z M32.8,39.99h1.6v-1.6h-1.6V39.99z M22.4,39.99v-1.6h-1.6v1.6H22.4z M44.8,39.99h1.6v-1.6
			h-1.6V39.99z"/>
	</g>
</g>
</svg>
