<?xml version="1.0" encoding="utf-8"?>
<!-- Generator: Adobe Illustrator 24.1.1, SVG Export Plug-In . SVG Version: 6.00 Build 0)  -->
<svg version="1.1" id="OBJECTS" xmlns="http://www.w3.org/2000/svg" xmlns:xlink="http://www.w3.org/1999/xlink" x="0px" y="0px"
	 viewBox="0 0 40 48.02" style="enable-background:new 0 0 40 48.02;" xml:space="preserve">
<g>
	<g>
		<path d="M8.1,27.2l-2.72-2.74V15.1c0-1.49-1.21-2.71-2.69-2.71C1.21,12.39,0,13.61,0,15.1v17.04c0,0.17,0.06,0.34,0.16,0.48
			l6.76,8.7v6.7h1.54v-6.97c0-0.17-0.06-0.34-0.16-0.48l-6.76-8.7V15.1c0-0.64,0.52-1.16,1.15-1.16c0.64,0,1.15,0.52,1.15,1.16v9.68
			c0,0.21,0.08,0.4,0.23,0.55l1.13,1.13c-1.22,0.36-2.12,1.49-2.12,2.83c0,0.79,0.31,1.54,0.86,2.1l4.75,4.78l1.09-1.1L5.03,30.3
			c-0.26-0.26-0.41-0.63-0.41-1c0-0.78,0.63-1.42,1.41-1.42c0.37,0,0.73,0.15,0.99,0.41l0.13,0.14l6.7,6.74v12.85h1.54V34.85
			c0-0.21-0.08-0.4-0.23-0.55L8.1,27.2z M37.31,12.39c-1.48,0-2.69,1.22-2.69,2.71v9.36L31.9,27.2c0,0,0,0,0,0l-7.05,7.1
			c-0.14,0.14-0.23,0.34-0.23,0.55v13.17h1.54V35.17l6.7-6.74l0.14-0.14c0.27-0.26,0.62-0.41,0.99-0.41c0.78,0,1.41,0.64,1.41,1.42
			c0,0.37-0.15,0.74-0.41,1l-4.75,4.78l1.09,1.1l4.75-4.78c0.56-0.56,0.86-1.3,0.86-2.1c0-1.34-0.9-2.47-2.12-2.83l1.13-1.13
			c0.14-0.14,0.23-0.34,0.23-0.55V15.1c0-0.64,0.52-1.16,1.15-1.16c0.64,0,1.15,0.52,1.15,1.16v16.77l-6.76,8.7
			c-0.11,0.14-0.16,0.3-0.16,0.48v6.97h1.54v-6.7l6.76-8.7c0.11-0.14,0.16-0.3,0.16-0.48V15.1C40,13.61,38.79,12.39,37.31,12.39z
			 M28.46,21.65c-0.02-0.39-0.33-0.71-0.73-0.73c-0.16-0.01-4.01-0.2-6.35,2.16c-0.23,0.23-0.43,0.48-0.61,0.74V20.9
			c1.29-0.06,3.82-0.42,5.54-2.15c2.34-2.35,2.15-6.23,2.14-6.39c-0.02-0.4-0.33-0.71-0.73-0.73c-0.16-0.01-4.01-0.2-6.35,2.16
			c-0.23,0.23-0.43,0.48-0.61,0.74v-2.54c0.82-0.73,3.08-2.99,3.08-5.78c0-3.33-3.23-5.92-3.37-6.03c-0.28-0.22-0.67-0.22-0.95,0
			c-0.14,0.11-3.37,2.7-3.37,6.03c0,2.79,2.26,5.05,3.08,5.78v2.54c-0.18-0.26-0.38-0.51-0.61-0.74c-2.34-2.35-6.18-2.17-6.35-2.16
			c-0.39,0.02-0.7,0.34-0.73,0.73c-0.01,0.16-0.19,4.04,2.14,6.39c1.72,1.73,4.26,2.09,5.54,2.15v2.92
			c-0.18-0.26-0.38-0.51-0.61-0.74c-2.34-2.35-6.18-2.17-6.35-2.16c-0.39,0.02-0.7,0.34-0.73,0.73c-0.01,0.16-0.19,4.04,2.14,6.39
			c1.72,1.73,4.26,2.09,5.54,2.15v4.66h1.54v-4.66c1.28-0.06,3.82-0.42,5.54-2.15C28.65,25.69,28.46,21.81,28.46,21.65z
			 M22.47,14.88c1.31-1.32,3.35-1.63,4.44-1.69c-0.06,1.09-0.37,3.14-1.68,4.47c-1.31,1.32-3.35,1.63-4.44,1.69
			C20.85,18.25,21.15,16.2,22.47,14.88z M14.78,17.65c-1.31-1.32-1.62-3.37-1.68-4.47c1.08,0.07,3.12,0.37,4.44,1.7
			c1.31,1.32,1.62,3.37,1.68,4.47C18.13,19.28,16.09,18.98,14.78,17.65z M14.78,26.95c-1.31-1.32-1.62-3.37-1.68-4.47
			c1.08,0.06,3.12,0.37,4.44,1.7c1.31,1.32,1.62,3.37,1.68,4.47C18.13,28.58,16.09,28.27,14.78,26.95z M17.69,6.2
			c0-1.91,1.51-3.62,2.31-4.39c0.8,0.77,2.31,2.48,2.31,4.39c0,1.91-1.51,3.62-2.31,4.39C19.2,9.81,17.69,8.1,17.69,6.2z
			 M20.79,28.64c0.06-1.09,0.37-3.14,1.68-4.47c1.31-1.32,3.35-1.63,4.44-1.69c-0.06,1.09-0.37,3.14-1.68,4.47
			C23.91,28.26,21.87,28.57,20.79,28.64z"/>
	</g>
</g>
</svg>
