<?xml version="1.0" encoding="utf-8"?>
<!-- Generator: Adobe Illustrator 24.1.1, SVG Export Plug-In . SVG Version: 6.00 Build 0)  -->
<svg version="1.1" id="OBJECTS" xmlns="http://www.w3.org/2000/svg" xmlns:xlink="http://www.w3.org/1999/xlink" x="0px" y="0px"
	 viewBox="0 0 58.02 46.99" style="enable-background:new 0 0 58.02 46.99;" xml:space="preserve">
<style type="text/css">
	.st0{fill:#231F20;}
</style>
<g>
	<g>
		<path class="st0" d="M57.06,27.42H38.69C38.68,19.9,34.41,13.06,27.72,9.8h1.3c3.74,0,6.76-3.07,6.77-6.85V1.97
			c0-0.54-0.43-0.98-0.97-0.98h-9.67c-2.25,0-4.35,1.13-5.61,3.02c-0.27-0.6-0.63-1.16-1.06-1.66c-1.53-1.63-3.69-2.48-5.9-2.34
			v1.96c1.65-0.13,3.28,0.48,4.45,1.67c0.86,1.09,1.34,2.43,1.38,3.82c-0.01,0.13-0.02,0.25-0.02,0.38v0.05
			C7.72,8.42-0.5,17.59,0.02,28.38c0.52,10.79,9.58,19.11,20.24,18.59c3.33-0.16,6.56-1.2,9.38-3c8.48,5.61,19.85,3.2,25.39-5.39
			c1.95-3.03,2.99-6.57,2.99-10.18C58.02,27.86,57.59,27.42,57.06,27.42z M43.75,29.38h8.44c-0.34,3.79-2.34,7.23-5.45,9.37v0
			l-4.61-8l4.83,2.45l0.86-1.75L43.75,29.38z M40.62,36.23v-4.21l4.46,7.73c-3.4,1.79-7.45,1.79-10.85,0l4.46-7.73v4.21H40.62z
			 M34.4,35.56l-1.83,3.17c-3.06-2.17-5.04-5.59-5.41-9.36h8.39l-4.07,2.05l0.86,1.75l4.83-2.45L34.4,35.56z M25.15,2.95h8.7
			c0,2.7-2.17,4.89-4.83,4.89h-8.66c0-0.09,0-0.19-0.01-0.29C20.49,4.98,22.6,2.96,25.15,2.95z M19.35,45.03
			c-9.61,0-17.4-7.89-17.4-17.62c0-9.73,7.79-17.62,17.4-17.62c9.61,0,17.4,7.89,17.4,17.62h-14.5c-0.53,0-0.97,0.44-0.97,0.98
			c0,5.54,2.45,10.8,6.67,14.33C25.33,44.24,22.37,45.04,19.35,45.03z M39.65,45.03c-8.7-0.01-15.89-6.87-16.41-15.66h1.99
			c0.41,4.8,3.07,9.11,7.16,11.59h0c4.44,2.82,10.07,2.82,14.51,0c4.14-2.43,6.84-6.76,7.22-11.59h1.94
			C55.54,38.16,48.35,45.02,39.65,45.03z M7.9,34.35c-1.13-2.18-1.84-4.55-2.09-7l-1.93,0.13c0.01,0.16,1.19,15.59,15.47,15.59
			v-1.96C14.14,41.12,10.29,38.84,7.9,34.35z M21.28,43.08h1.93v-1.96h-1.93V43.08z M23.22,13.72h-1.93v1.96h1.93V13.72z
			 M27.08,15.67h-1.93v1.96h1.93V15.67z"/>
	</g>
</g>
</svg>
