<?xml version="1.0" encoding="utf-8"?>
<!-- Generator: Adobe Illustrator 24.1.1, SVG Export Plug-In . SVG Version: 6.00 Build 0)  -->
<svg version="1.1" id="OBJECTS" xmlns="http://www.w3.org/2000/svg" xmlns:xlink="http://www.w3.org/1999/xlink" x="0px" y="0px"
	 viewBox="0 0 48 34.99" style="enable-background:new 0 0 48 34.99;" xml:space="preserve">
<g>
	<g>
		<path d="M47.2,20.34c-1.79,0.01-3.36,1.23-3.84,2.99c-0.5-0.34-1.09-0.53-1.7-0.55c-0.61-1.26-1.53-2.34-2.66-3.14
			c3.33-6.5,1.95-14.47-3.36-19.43C35.4,0,35.07-0.06,34.78,0.07L9.28,11.41c-0.29,0.13-0.48,0.42-0.48,0.75
			c0,1.4,0.18,2.79,0.53,4.14c-0.17-0.01-0.35-0.03-0.53-0.03c-4.86,0-8.79,4-8.8,8.94c0,2.92,1.4,5.66,3.76,7.33H0v1.63h16v-1.63
			h-2.16c1.95-1.39,3.26-3.53,3.64-5.92c1.83,0.96,3.83,1.55,5.88,1.73c0.58,0.59,1.36,0.92,2.18,0.94
			c0.64,1.32,1.61,2.44,2.82,3.26H27.2v1.63h17.6v-1.63h-5.96c1.21-0.81,2.18-1.93,2.82-3.26c1.46-0.03,2.72-1.07,3.05-2.51
			c1.9-0.35,3.29-2.03,3.29-4v-1.63C48,20.71,47.64,20.34,47.2,20.34z M34.93,1.78c4.46,4.47,5.55,11.38,2.69,17.05
			c-0.48-0.24-0.99-0.43-1.5-0.58c2.75-5.28,1.61-11.78-2.77-15.76L34.93,1.78z M12.01,11.98c0,0.06-0.01,0.12-0.01,0.18
			c0,1.82,0.39,3.62,1.12,5.28c-0.64-0.37-1.33-0.65-2.04-0.85c-0.4-1.26-0.63-2.58-0.68-3.9L12.01,11.98z M8.8,32.55
			c-3.98,0-7.2-3.28-7.2-7.32c0-4.04,3.22-7.32,7.2-7.32c3.98,0,7.2,3.28,7.2,7.32C16,29.27,12.77,32.55,8.8,32.55z M22.46,26.6
			c-1.72-0.29-3.37-0.89-4.88-1.78c-0.03-0.74-0.15-1.48-0.36-2.2c1.59,1.2,3.42,2,5.37,2.35c-0.12,0.34-0.19,0.7-0.19,1.06
			C22.4,26.23,22.42,26.42,22.46,26.6z M13.6,12.16c0-0.28,0.02-0.59,0.05-0.91l18.04-8.03c4.44,3.51,5.62,9.83,2.74,14.74
			c-0.28-0.02-0.55-0.06-0.84-0.06c-1.05,0.01-2.1,0.19-3.09,0.54l-1.14-1.16l-1.13,1.15l0.71,0.72c-1.47,0.83-2.66,2.1-3.4,3.63
			c-0.69,0.02-1.35,0.26-1.89,0.69C17.95,22.87,13.62,17.99,13.6,12.16z M41.6,27.67c-0.1,0-0.2-0.01-0.3-0.03
			c-0.38-0.07-0.76,0.14-0.89,0.51c-1.17,2.75-3.86,4.49-6.81,4.41c-2.94,0.09-5.64-1.66-6.81-4.41c-0.12-0.31-0.41-0.52-0.75-0.52
			c-0.05,0-0.1,0.01-0.15,0.01c-0.1,0.02-0.2,0.03-0.3,0.03c-0.88,0-1.6-0.73-1.6-1.63c0-0.9,0.72-1.63,1.6-1.63
			c0.1,0,0.2,0.01,0.3,0.03c0.38,0.07,0.75-0.14,0.89-0.51c1.17-2.75,3.86-4.49,6.81-4.41c2.94-0.09,5.64,1.66,6.81,4.41
			c0.14,0.37,0.52,0.58,0.89,0.51c0.1-0.02,0.2-0.03,0.3-0.03c0.88,0,1.6,0.73,1.6,1.63C43.2,26.94,42.48,27.67,41.6,27.67z
			 M46.4,22.79c0,1.03-0.64,1.96-1.6,2.3v-0.67c0-1.03,0.64-1.96,1.6-2.3V22.79z M19.34,19.04l1.33,0.9l1.6-2.44l-1.33-0.9
			L19.34,19.04z M25.6,18.67H24v2.44h1.6V18.67z M30.95,16.19l2.4,0.81l0.51-1.54l-2.4-0.81L30.95,16.19z M32,12.16h2.4v-1.63H32
			V12.16z M19.56,13.11l-2.4,1.63l0.89,1.35l2.4-1.63L19.56,13.11z M32.44,7.96L31.56,6.6l-2.4,1.63l0.89,1.35L32.44,7.96z
			 M33.6,29.3v1.63c0.15,0,3.79-0.03,4.76-3l-1.52-0.51C36.24,29.26,33.62,29.3,33.6,29.3z M6.04,19.66l-0.88,1.36
			c0.96,0.58,2.06,0.88,3.17,0.86c1.12-0.01,2.23-0.29,3.23-0.81l-0.72-1.46C9.36,20.47,7.54,20.49,6.04,19.66z M18.4,33.37H20
			v-1.63h-1.6V33.37z M23.2,34.99h1.6v-1.63h-1.6V34.99z M46.4,34.18H48v-1.63h-1.6V34.18z M7.2,23.6H5.6v1.63h1.6V23.6z M8.8,25.23
			h1.6V23.6H8.8V25.23z M7.2,28.48h1.6v-1.63H7.2V28.48z"/>
	</g>
</g>
</svg>
