<!-- Generated by IcoMoon.io -->
<svg version="1.1" xmlns="http://www.w3.org/2000/svg" width="32" height="32" viewBox="0 0 32 32">
<title>oneclick</title>
<path d="M31.353 16.86l-19.3-5.3c-0.133-0.047-0.313 0-0.453 0.133-0.133 0.133-0.18 0.273-0.133 0.453l5.187 19.533c0.047 0.18 0.227 0.32 0.407 0.32s0.36-0.133 0.407-0.32l3.787-10.287 10.1-3.673c0.18-0.047 0.313-0.227 0.313-0.453 0.007-0.18-0.133-0.36-0.313-0.407zM20.8 20.62c-0.133 0.047-0.227 0.133-0.273 0.273l-3.34 9.107-4.647-17.36 17.18 4.76-8.92 3.22zM10.253 20.44c-5.053-0.407-9.020-4.667-9.020-9.787 0-5.393 4.373-9.787 9.74-9.787 5.007 0 9.153 3.76 9.693 8.747 0.047 0.227 0.273 0.407 0.493 0.407 0.227-0.047 0.407-0.273 0.407-0.5-0.587-5.44-5.14-9.52-10.593-9.52-5.867 0-10.647 4.807-10.647 10.7 0 5.527 4.287 10.2 9.833 10.653 0.273 0 0.453-0.18 0.493-0.407 0-0.28-0.18-0.46-0.4-0.507zM15.48 8.253c0.133 0.227 0.407 0.32 0.633 0.18 0.227-0.133 0.313-0.407 0.18-0.633-1.040-1.947-3.067-3.127-5.233-3.127-3.293 0-5.953 2.673-5.953 5.98 0 2.353 1.4 4.533 3.56 5.487 0.047 0.047 0.133 0.047 0.18 0.047 0.18 0 0.313-0.093 0.407-0.273 0.093-0.227 0-0.5-0.227-0.587-1.847-0.813-3.020-2.627-3.020-4.62-0.047-2.853 2.207-5.12 5.007-5.12 1.853-0.007 3.567 1.033 4.467 2.667z"></path>
</svg>
