<!-- Generated by IcoMoon.io -->
<svg version="1.1" xmlns="http://www.w3.org/2000/svg" width="32" height="32" viewBox="0 0 32 32">
<title>performance</title>
<path d="M23.727 24.773c-0.2-0.2-0.527-0.2-0.727 0s-0.2 0.527 0 0.72l2.007 1.987c0.1 0.1 0.233 0.147 0.367 0.147s0.267-0.053 0.367-0.147c0.2-0.2 0.2-0.527 0-0.72l-2.013-1.987zM27.313 6.647c-3.020-2.993-7.040-4.64-11.313-4.64s-8.293 1.647-11.313 4.64c-3.020 2.987-4.687 6.967-4.687 11.2s1.667 8.213 4.687 11.2c0.2 0.2 0.527 0.2 0.727 0s0.2-0.527 0-0.72c-2.827-2.8-4.387-6.52-4.387-10.48s1.56-7.68 4.387-10.48c2.833-2.793 6.587-4.34 10.587-4.34s7.753 1.54 10.587 4.34c2.827 2.8 4.387 6.52 4.387 10.48s-1.56 7.68-4.387 10.48c-0.2 0.2-0.2 0.527 0 0.72 0.1 0.1 0.233 0.147 0.367 0.147s0.267-0.053 0.367-0.147c3.013-2.987 4.68-6.967 4.68-11.2s-1.667-8.213-4.687-11.2zM8.273 24.773l-2.007 1.987c-0.2 0.2-0.2 0.527 0 0.72 0.1 0.1 0.233 0.147 0.367 0.147s0.267-0.053 0.367-0.147l2.007-1.987c0.2-0.2 0.2-0.527 0-0.72-0.2-0.2-0.527-0.2-0.733 0zM7 8.213c-0.2-0.2-0.527-0.2-0.727 0s-0.2 0.527 0 0.72l2.007 1.987c0.1 0.1 0.233 0.147 0.367 0.147s0.267-0.053 0.367-0.147c0.2-0.2 0.2-0.527 0-0.72l-2.013-1.987zM5.593 17.333h-2.84c-0.287 0-0.513 0.227-0.513 0.513 0 0.28 0.233 0.513 0.513 0.513h2.84c0.287 0 0.513-0.227 0.513-0.513 0.007-0.28-0.227-0.513-0.513-0.513zM29.767 17.847c0-0.28-0.233-0.513-0.513-0.513h-2.84c-0.287 0-0.513 0.227-0.513 0.513 0 0.28 0.233 0.513 0.513 0.513h2.84c0.28 0 0.513-0.233 0.513-0.513zM23.353 11.073c0.133 0 0.267-0.053 0.367-0.147l2.007-1.987c0.2-0.2 0.2-0.527 0-0.72-0.2-0.2-0.527-0.2-0.727 0l-2.007 1.987c-0.2 0.2-0.2 0.527 0 0.72 0.1 0.093 0.233 0.147 0.36 0.147zM16.513 7.547v-2.813c0-0.28-0.233-0.513-0.513-0.513-0.287 0-0.513 0.227-0.513 0.513v2.813c0 0.28 0.233 0.513 0.513 0.513 0.287-0.007 0.513-0.233 0.513-0.513zM11.893 29.993h8.213v-3.727h-8.213v3.727zM12.927 27.293h6.147v1.68h-6.147v-1.68zM13.607 17.847c0 1.307 1.073 2.373 2.393 2.373s2.393-1.060 2.393-2.373c0-0.833-0.44-1.56-1.093-1.987l2.413-6.4c0.1-0.267-0.033-0.56-0.3-0.66s-0.567 0.033-0.667 0.3l-2.413 6.4c-0.113-0.013-0.22-0.027-0.333-0.027-1.32 0-2.393 1.067-2.393 2.373zM16 16.5c0.753 0 1.36 0.6 1.36 1.347s-0.613 1.347-1.36 1.347c-0.753 0-1.36-0.6-1.36-1.347s0.607-1.347 1.36-1.347z"></path>
</svg>
