<!-- Generated by IcoMoon.io -->
<svg version="1.1" xmlns="http://www.w3.org/2000/svg" width="32" height="32" viewBox="0 0 32 32">
<title>play</title>
<path d="M13.673 13.053l4.422 2.947-4.422 2.947v-5.894zM13.382 12.509v6.982l5.236-3.491-5.236-3.491z"></path>
<path d="M16 0.291c8.663 0 15.709 7.046 15.709 15.709s-7.046 15.709-15.709 15.709c-8.663 0-15.709-7.046-15.709-15.709s7.046-15.709 15.709-15.709zM16 0c-8.838 0-16 7.162-16 16s7.162 16 16 16c8.838 0 16-7.162 16-16s-7.162-16-16-16v0z"></path>
</svg>
