<!-- Generated by IcoMoon.io -->
<svg version="1.1" xmlns="http://www.w3.org/2000/svg" width="32" height="32" viewBox="0 0 32 32">
<title>product</title>
<path d="M11.4 0.333c-0.033-0.193-0.2-0.333-0.393-0.333h-2.773c-0.187 0-0.353 0.133-0.393 0.32-0.013 0.080-0.367 1.993 2.107 10.553-0.547 0.52-2.213 2.22-3.893 5.127-1.847 3.187-4.053 8.487-4.053 15.6 0 0.22 0.18 0.4 0.4 0.4h27.2c0.22 0 0.4-0.18 0.4-0.4 0-12.467-6.78-19.553-8-20.727 2.473-8.567 2.127-10.48 2.107-10.56-0.033-0.18-0.2-0.313-0.387-0.313h-2.72c-0.193 0-0.36 0.14-0.393 0.333-0.387 2.24-2.327 3.867-4.6 3.867-2.28 0-4.22-1.627-4.607-3.867zM29.2 31.2h-26.4c0.147-12.147 6.827-18.92 7.76-19.8h2.833c-0.793 1.847-3.16 7.82-3.16 13.3 0 0.22 0.18 0.4 0.4 0.4s0.4-0.18 0.4-0.4c0-5.633 2.673-12.020 3.233-13.3h3.42c0.56 1.28 3.233 7.667 3.233 13.3 0 0.22 0.18 0.4 0.4 0.4s0.4-0.18 0.4-0.4c0-5.48-2.367-11.453-3.16-13.3h2.833c0.927 0.88 7.66 7.653 7.807 19.8zM21.32 0.8h2.020c-0.007 0.813-0.227 3.333-2.093 9.8h-10.54c-1.867-6.473-2.087-8.993-2.093-9.8h2.067c0.58 2.453 2.767 4.2 5.32 4.2s4.74-1.747 5.32-4.2z"></path>
</svg>
