<!-- Generated by IcoMoon.io -->
<svg version="1.1" xmlns="http://www.w3.org/2000/svg" width="32" height="32" viewBox="0 0 32 32">
<title>quality</title>
<path d="M16 32c-6.187 0-10.367-2.473-10.54-2.593-0.093-0.053-0.16-0.147-0.187-0.253s-0.007-0.22 0.047-0.313c0 0 0.46-0.767 1.053-2.013-0.66-0.4-1.26-0.887-1.787-1.447-0.133-0.153-0.133-0.387 0-0.547 0.020-0.027 1.993-2.38 3.32-7.8 1.167-4.747 3.54-5.927 4.467-6.213-0.107-1.26-0.553-2.467-1.293-3.487-0.6-0.813-0.733-1.88-0.353-2.82 0.333-0.78 1.033-1.347 1.86-1.5l-0.467-2.52c-0.040-0.227 0.107-0.447 0.333-0.487s0.44 0.107 0.48 0.333l0.487 2.587c1.1-0.007 2.107 0.62 2.587 1.62 0.48-1.007 1.493-1.64 2.6-1.627l0.487-2.587c0.040-0.227 0.26-0.38 0.48-0.333 0.227 0.040 0.373 0.26 0.333 0.487l-0.467 2.52c0.833 0.153 1.533 0.713 1.867 1.5 0.373 0.94 0.233 2.013-0.373 2.827-0.747 1.020-1.193 2.227-1.293 3.487 0.927 0.287 3.32 1.487 4.487 6.213 1.313 5.413 3.3 7.767 3.3 7.793 0.133 0.153 0.133 0.387 0 0.547-0.527 0.56-1.133 1.047-1.787 1.447 0.593 1.24 1.040 1.987 1.053 2.013 0.060 0.093 0.073 0.207 0.047 0.313s-0.093 0.2-0.187 0.253c-0.187 0.113-4.367 2.6-10.553 2.6zM14.58 31.127c0.953 0.060 1.907 0.060 2.853 0-0.48-1.16-0.827-2.373-1.027-3.62-0.040-0.227 0.113-0.447 0.333-0.487 0.227-0.040 0.44 0.113 0.48 0.34 0.18 1.273 0.54 2.52 1.067 3.687 0.613-0.060 1.2-0.153 1.753-0.253-2.44-3.133-3.54-7.313-4.040-10.487-0.5 3.173-1.6 7.353-4.047 10.493 0.553 0.107 1.14 0.193 1.753 0.253 0.527-1.173 0.887-2.413 1.067-3.687 0.040-0.227 0.253-0.38 0.48-0.34s0.373 0.26 0.333 0.487c-0.187 1.24-0.527 2.453-1.007 3.613zM16.407 15.653c0 0.3 0.087 9.6 4.54 14.96 1.673-0.367 3.3-0.947 4.833-1.72-1.82-3.28-3.060-6.86-3.667-10.567-0.533-3.653-1.6-6.153-2.853-6.767v0c-0.433 0.080-0.853 0.22-1.253 0.413 0.787 0.967 1.36 2.093 1.687 3.3 0.060 0.22-0.067 0.447-0.287 0.507s-0.44-0.067-0.5-0.287v0c-0.307-1.153-0.86-2.22-1.633-3.12-0.34 0.233-0.647 0.52-0.907 0.847l-0.033 0.040c-0.033 0.033-0.073 0.060-0.113 0.080-0.053 0.027-0.113 0.040-0.173 0.040v0c-0.060 0-0.12-0.013-0.173-0.040-0.040-0.020-0.080-0.047-0.113-0.080l-0.033-0.040c-0.273-0.32-0.593-0.593-0.947-0.82-0.767 0.9-1.327 1.967-1.633 3.12-0.060 0.22-0.287 0.347-0.5 0.287-0.22-0.060-0.347-0.287-0.287-0.507v0c0.32-1.207 0.893-2.333 1.687-3.3-0.4-0.193-0.82-0.327-1.253-0.413v0c-1.267 0.613-2.333 3.113-2.853 6.767-0.613 3.713-1.853 7.287-3.667 10.567 1.533 0.773 3.147 1.347 4.82 1.72 4.42-5.38 4.507-14.667 4.507-14.987v0 0c0-0.227 0.18-0.413 0.407-0.413v0c0.22 0 0.4 0.187 0.4 0.413zM21.627 13.36c0.627 1.553 1.053 3.18 1.267 4.847 0.44 2.713 1.247 5.347 2.387 7.84 0.46-0.28 0.893-0.6 1.287-0.96-0.587-0.827-2.133-3.26-3.26-7.84-0.293-1.4-0.867-2.72-1.68-3.887zM5.433 25.087c0.393 0.373 0.827 0.707 1.287 1 1.14-2.493 1.947-5.133 2.387-7.84 0.213-1.673 0.64-3.32 1.267-4.88-0.813 1.167-1.387 2.487-1.687 3.887-1.12 4.56-2.667 7.007-3.253 7.833zM15.033 11.587c0.353 0.22 0.68 0.487 0.967 0.787 0.287-0.3 0.613-0.567 0.967-0.787v0c0.060-0.067 0.133-0.107 0.22-0.127 0.513-0.293 1.060-0.507 1.633-0.647 0.113-1.44 0.627-2.827 1.48-3.987 0.413-0.573 0.5-1.32 0.233-1.98-0.293-0.647-0.927-1.060-1.633-1.067v0c-2.073-0.2-2.447 1.94-2.493 2.107 0.013 0.227-0.153 0.427-0.38 0.44s-0.42-0.153-0.433-0.387v-0.053c-0.027-0.153-0.407-2.307-2.493-2.107v0c-0.7 0.007-1.34 0.42-1.633 1.067-0.26 0.66-0.173 1.407 0.233 1.98 0.853 1.16 1.367 2.54 1.48 3.987 0.573 0.133 1.12 0.353 1.633 0.647 0.087 0.020 0.16 0.060 0.22 0.127v0z"></path>
</svg>
