<!-- Generated by IcoMoon.io -->
<svg version="1.1" xmlns="http://www.w3.org/2000/svg" width="32" height="32" viewBox="0 0 32 32">
<title>return</title>
<path d="M3.787 0c-0.16 0.033-0.307 0.16-0.36 0.32l-3.393 9.213c-0.020 0.053-0.033 0.107-0.033 0.167v5.333c0 0.253 0.233 0.487 0.487 0.487s0.487-0.233 0.487-0.493v-4.847h30.060v20.847h-30.060v-10.667h13.087v2.907c0 0.347 0.453 0.593 0.74 0.407l5.333-3.393c0.273-0.173 0.273-0.647 0-0.82l-5.333-3.393c-0.107-0.073-0.24-0.1-0.367-0.073-0.22 0.047-0.387 0.26-0.38 0.487v2.907h-13.567c-0.253 0.007-0.487 0.24-0.487 0.493v11.633c0 0.253 0.233 0.487 0.487 0.487h31.027c0.253 0 0.487-0.233 0.487-0.487v-21.813c0-0.040-0.007-0.080-0.013-0.12l-2.427-9.233c-0.060-0.2-0.26-0.347-0.473-0.347-8.427 0-16.873 0-25.3 0zM4.213 0.973h10.82v8.24h-13.847l3.027-8.24zM16 0.973h12.713l2.167 8.24h-14.88v-8.24zM15.033 17.36l3.953 2.513-3.953 2.513v-5.027z"></path>
</svg>
