<?xml version="1.0" encoding="utf-8"?>
<!-- Generator: Adobe Illustrator 24.1.1, SVG Export Plug-In . SVG Version: 6.00 Build 0)  -->
<svg version="1.1" id="OBJECTS" xmlns="http://www.w3.org/2000/svg" xmlns:xlink="http://www.w3.org/1999/xlink" x="0px" y="0px"
	 viewBox="0 0 51 58" style="enable-background:new 0 0 51 58;" xml:space="preserve">
<style type="text/css">
	.st0{fill:#231F20;}
</style>
<g>
	<g>
		<path class="st0" d="M26.17,31.65c-0.11-0.02-0.22-0.03-0.33-0.01c-1.09-0.13-1.91-1.05-1.91-2.14c0-0.53-0.43-0.95-0.95-0.95
			c-0.52,0-0.95,0.43-0.95,0.95c0,1.83,1.23,3.43,2.99,3.92v0.95c0,0.53,0.42,0.95,0.95,0.95s0.95-0.43,0.95-0.95v-0.89
			c2.03-0.43,3.42-2.32,3.2-4.39c-0.21-2.07-1.96-3.64-4.03-3.64c-1.19,0-2.16-0.97-2.16-2.16c0-1.19,0.97-2.16,2.16-2.16
			c1.19,0,2.16,0.97,2.16,2.16c0,0.53,0.43,0.95,0.95,0.95s0.95-0.43,0.95-0.95c0-1.92-1.35-3.58-3.22-3.98v-0.87
			c0-0.53-0.43-0.95-0.95-0.95s-0.95,0.43-0.95,0.95v0.92c-1.96,0.54-3.22,2.44-2.95,4.46c0.27,2.02,1.99,3.52,4.02,3.52
			c1.17,0,2.13,0.94,2.15,2.12C28.27,30.63,27.35,31.61,26.17,31.65z M26.09,40.26c7.6,0,13.77-6.18,13.77-13.8
			c0-7.62-6.16-13.8-13.77-13.8c-7.6,0.01-13.76,6.18-13.77,13.8C12.32,34.08,18.49,40.26,26.09,40.26z M26.09,14.57
			c6.56,0,11.87,5.32,11.87,11.89c0,6.57-5.31,11.89-11.87,11.89c-6.56,0-11.87-5.32-11.87-11.89
			C14.23,19.89,19.54,14.57,26.09,14.57z M50.88,44.53c-1.26-2.24-4.05-3.09-6.33-1.93l-7.44,3.52c-1.03-1.91-3-3.13-5.16-3.19
			l-6.87-0.19c-1.09-0.03-2.15-0.31-3.12-0.81l-0.7-0.36c-3.58-1.87-7.84-1.86-11.41,0.01L9.88,40c0.01-0.53-0.4-0.96-0.92-0.98
			l-7.53-0.21c-0.52-0.01-0.96,0.4-0.97,0.92L0,56.29c-0.01,0.53,0.4,0.96,0.92,0.98l7.53,0.21h0.03c0.51,0,0.94-0.41,0.95-0.93
			l0.02-0.79l1.96-1.05c0.77-0.41,1.67-0.51,2.5-0.27l11.68,3.28c0.02,0.01,0.04,0.01,0.06,0.02c0.84,0.18,1.7,0.27,2.57,0.27
			c1.83,0,3.63-0.39,5.29-1.16c0.04-0.02,0.08-0.04,0.12-0.06L50.57,45.8C50.99,45.53,51.12,44.97,50.88,44.53z M7.56,55.55
			l-5.63-0.16l0.4-14.65l5.63,0.16L7.56,55.55z M32.66,55.14c-2.06,0.93-4.37,1.19-6.58,0.74L14.42,52.6
			c-1.31-0.37-2.71-0.22-3.91,0.43l-1,0.54l0.27-9.74c3.17-2.11,7.23-2.33,10.6-0.57l0.7,0.36c1.22,0.63,2.57,0.98,3.94,1.02
			l6.87,0.19c1.93,0.06,3.57,1.43,3.96,3.33l-10.23-0.28c-0.52-0.01-0.96,0.4-0.98,0.93c-0.01,0.53,0.4,0.96,0.92,0.98l11.29,0.31
			h0.03c0.51,0,0.93-0.41,0.95-0.93c0.01-0.41-0.02-0.83-0.09-1.23l7.63-3.61c0.01,0,0.01-0.01,0.02-0.01
			c1.08-0.55,2.39-0.37,3.28,0.46L32.66,55.14z M26.09,10.94c0.52,0,0.95-0.43,0.95-0.95V0.95c0-0.53-0.43-0.95-0.95-0.95
			c-0.52,0-0.95,0.43-0.95,0.95v9.04C25.14,10.51,25.57,10.94,26.09,10.94z M33.21,10.94c0.52,0,0.95-0.43,0.95-0.95V5.71
			c0-0.53-0.43-0.95-0.95-0.95s-0.95,0.43-0.95,0.95v4.28C32.26,10.51,32.69,10.94,33.21,10.94z M18.97,10.94
			c0.52,0,0.95-0.43,0.95-0.95V5.71c0-0.53-0.43-0.95-0.95-0.95c-0.52,0-0.95,0.43-0.95,0.95v4.28
			C18.02,10.51,18.45,10.94,18.97,10.94z"/>
	</g>
</g>
</svg>
