<!-- Generated by IcoMoon.io -->
<svg version="1.1" xmlns="http://www.w3.org/2000/svg" width="32" height="32" viewBox="0 0 32 32">
<title>seo</title>
<path d="M31.2 27.267l-8.927-9.027c0.647-1.040 1.127-2.173 1.42-3.247 0.873-3.313 0-6.167-0.613-7.593-0.227-0.52-2.32-5.193-7.507-6.847-0.513-0.16-1.9-0.553-3.58-0.553-6.607-0.007-11.993 5.42-11.993 12.107 0 6.56 5.513 12.073 12.020 12.107h0.033c2.42 0 4.573-0.78 6.38-1.98l8.9 8.96c0.547 0.553 1.26 0.813 1.933 0.813 0.707 0 1.42-0.26 1.933-0.813 1.067-1.073 1.067-2.827 0-3.927zM12.053 23.24h-0.033c-5.993-0.033-11.053-5.127-11.053-11.133 0-6.133 4.967-11.133 11.053-11.133 1.547 0 2.807 0.36 3.287 0.487 4.833 1.56 6.8 6.133 6.9 6.3 0.547 1.3 1.353 3.927 0.547 6.98-1.060 4.12-5.187 8.5-10.7 8.5zM30.553 30.513c-0.32 0.327-0.773 0.52-1.26 0.52s-0.933-0.193-1.26-0.52l-8.8-8.86c0.967-0.747 1.807-1.62 2.48-2.6l8.833 8.893c0.32 0.327 0.513 0.78 0.513 1.267 0.013 0.487-0.18 0.94-0.507 1.3zM12.053 3.147c-4.933 0-8.96 4.060-8.96 9.027s4.027 9.027 8.96 9.027c4.933 0 8.96-4.060 8.96-9.027 0-4.973-4.027-9.027-8.96-9.027zM20.020 11.487h-4.093c-0.1-3.147-0.84-5.713-1.933-7.14 3.253 0.813 5.733 3.667 6.027 7.14zM11.993 4.187c1.353 0 2.807 2.953 2.967 7.307h-5.933c0.16-4.353 1.613-7.307 2.967-7.307zM9.993 4.413c-1.093 1.427-1.84 3.993-1.933 7.107h-3.967c0.26-3.44 2.68-6.267 5.9-7.107zM4.060 12.46h3.993c0.033 3.28 0.773 6.007 1.9 7.5-3.313-0.907-5.76-3.893-5.893-7.5zM11.993 20.187c-1.387 0-2.9-3.147-2.967-7.727h5.933c-0.067 4.58-1.58 7.727-2.967 7.727zM13.987 19.993c1.16-1.46 1.9-4.22 1.933-7.533h4.127c-0.127 3.64-2.673 6.687-6.060 7.533z"></path>
</svg>
