<!-- Generated by IcoMoon.io -->
<svg version="1.1" xmlns="http://www.w3.org/2000/svg" width="32" height="32" viewBox="0 0 32 32">
<title>shipping</title>
<path d="M0.34 2.24c-0.2 0.040-0.347 0.213-0.34 0.42v22.933c0 0.233 0.187 0.42 0.42 0.42h2.973c0.213 2.107 2.007 3.753 4.187 3.753s3.973-1.647 4.187-3.753h8.473c0.213 2.107 2.007 3.753 4.187 3.753s3.973-1.647 4.187-3.753h2.973c0.233 0 0.42-0.187 0.42-0.42v-10.007c0-0.080-0.020-0.153-0.067-0.22l-5.053-8.34c-0.080-0.12-0.213-0.193-0.353-0.193h-6.747v-4.173c0-0.233-0.187-0.42-0.42-0.42h-8.42c-0.233 0-0.427 0.18-0.427 0.413s0.18 0.42 0.413 0.42c0.007 0 0.007 0 0.013 0h8v12.927h-18.107v-12.927h7.58c0.233 0 0.427-0.18 0.427-0.413s-0.18-0.42-0.413-0.42c-0.007 0-0.007 0-0.013 0h-8c-0.027 0-0.053 0-0.080 0zM19.787 7.66h6.513l4.853 8.027v0.313h-11.367v-8.34zM0.84 16.833h30.313v8.34h-2.553c-0.213-2.1-2.007-3.753-4.187-3.753-2.173 0-3.967 1.653-4.187 3.753h-8.467c-0.213-2.1-2.007-3.753-4.187-3.753-2.173 0-3.967 1.653-4.187 3.753h-2.547v-8.34zM7.58 22.253c1.867 0 3.367 1.487 3.367 3.333s-1.5 3.333-3.367 3.333c-1.867 0-3.367-1.487-3.367-3.333 0-1.84 1.5-3.333 3.367-3.333zM24.42 22.253c1.867 0 3.367 1.487 3.367 3.333s-1.5 3.333-3.367 3.333c-1.867 0-3.367-1.487-3.367-3.333 0-1.84 1.5-3.333 3.367-3.333zM7.58 24.76c-0.467 0-0.84 0.373-0.84 0.833s0.38 0.833 0.84 0.833c0.467 0 0.84-0.373 0.84-0.833s-0.373-0.833-0.84-0.833zM24.42 24.76c-0.467 0-0.84 0.373-0.84 0.833s0.38 0.833 0.84 0.833c0.467 0 0.84-0.373 0.84-0.833s-0.373-0.833-0.84-0.833z"></path>
</svg>
