<!-- Generated by IcoMoon.io -->
<svg version="1.1" xmlns="http://www.w3.org/2000/svg" width="32" height="32" viewBox="0 0 32 32">
<title>sizing</title>
<path d="M23.24 20.527c-1.193 0-2.34 0.373-3.333 1.080l-0.413-0.68c0.18-0.44 0.28-0.913 0.28-1.413 0-0.187-0.020-0.373-0.047-0.553l5.707-9.447c2.407-4.133 0.507-9 0.427-9.207-0.060-0.173-0.22-0.287-0.407-0.307s-0.36 0.073-0.453 0.233l-9 14.9-9.013-14.9c-0.093-0.153-0.273-0.247-0.453-0.233-0.187 0.020-0.347 0.133-0.413 0.307-0.080 0.207-1.967 5.073 0.44 9.213l5.707 9.433c-0.027 0.18-0.047 0.367-0.047 0.553 0 0.5 0.1 0.98 0.28 1.413l-0.413 0.68c-0.993-0.707-2.133-1.080-3.333-1.080-3.173 0-5.753 2.573-5.753 5.74s2.58 5.74 5.753 5.74c2.427 0 4.593-1.54 5.407-3.833l1.84-3.040 1.833 3.033c0.813 2.3 2.98 3.833 5.407 3.833 3.173 0 5.753-2.573 5.753-5.74 0-3.153-2.58-5.727-5.753-5.727zM25.273 1.66c0.4 1.567 0.887 4.687-0.667 7.36l-5.273 8.72c-0.527-0.987-1.487-1.713-2.62-1.927l8.56-14.153zM7.4 9.027c-1.56-2.673-1.080-5.793-0.68-7.36l8.56 14.147c-1.133 0.22-2.080 0.94-2.607 1.927l-5.273-8.713zM13.307 27.707c-0.020 0.027-0.033 0.060-0.047 0.093-0.667 1.933-2.48 3.233-4.507 3.233-2.633 0-4.78-2.14-4.78-4.767s2.147-4.767 4.78-4.767c1.147 0 2.233 0.413 3.147 1.193 0.107 0.093 0.253 0.133 0.393 0.113s0.267-0.107 0.34-0.227l0.427-0.7c0.44 0.54 1.020 0.953 1.693 1.187l0.68 1.127-2.127 3.513zM16 22.313c-1.547 0-2.807-1.253-2.807-2.8 0-1.54 1.26-2.8 2.807-2.8s2.807 1.253 2.807 2.8c0 1.54-1.26 2.8-2.807 2.8zM23.24 31.033c-2.027 0-3.84-1.3-4.507-3.233-0.013-0.033-0.027-0.060-0.047-0.093l-2.68-4.427c1.18-0.007 2.233-0.553 2.92-1.407l0.427 0.7c0.073 0.12 0.2 0.207 0.34 0.227 0.147 0.027 0.287-0.020 0.393-0.113 0.913-0.78 2-1.193 3.147-1.193 2.633 0 4.78 2.14 4.78 4.767 0.013 2.633-2.133 4.773-4.773 4.773zM8.647 23.58c-1.473 0-2.673 1.193-2.673 2.667s1.2 2.667 2.673 2.667 2.673-1.193 2.673-2.667c0-1.467-1.2-2.667-2.673-2.667zM8.647 27.947c-0.94 0-1.7-0.76-1.7-1.7 0-0.933 0.767-1.7 1.7-1.7s1.7 0.76 1.7 1.7c0 0.94-0.76 1.7-1.7 1.7zM23.24 23.58c-1.473 0-2.673 1.193-2.673 2.667s1.2 2.667 2.673 2.667 2.673-1.193 2.673-2.667c0.007-1.467-1.193-2.667-2.673-2.667zM23.24 27.947c-0.94 0-1.7-0.76-1.7-1.7 0-0.933 0.767-1.7 1.7-1.7s1.7 0.76 1.7 1.7c0.007 0.94-0.76 1.7-1.7 1.7z"></path>
</svg>
