<?xml version="1.0" encoding="utf-8"?>
<!-- Generator: Adobe Illustrator 24.1.1, SVG Export Plug-In . SVG Version: 6.00 Build 0)  -->
<svg version="1.1" id="OBJECTS" xmlns="http://www.w3.org/2000/svg" xmlns:xlink="http://www.w3.org/1999/xlink" x="0px" y="0px"
	 viewBox="0 0 52 29.98" style="enable-background:new 0 0 52 29.98;" xml:space="preserve">
<g>
	<g>
		<path d="M32.73,28.17L32.73,28.17c-2.09,0.14-4.36,0.2-6.73,0.2c-15.04,0-24.38-2.7-24.38-7.05c0-0.52,0.14-1.03,0.4-1.49
			c0.22-0.39,0.08-0.87-0.31-1.09c-0.39-0.22-0.89-0.08-1.11,0.31C0.21,19.75,0,20.53,0,21.33c0,5.5,9.48,8.65,26,8.65
			c2.41,0,4.71-0.07,6.84-0.2c0.45-0.03,0.79-0.41,0.76-0.85C33.57,28.48,33.18,28.14,32.73,28.17z M51.39,19.06
			c-0.21-0.39-0.7-0.55-1.1-0.34c-0.4,0.2-0.55,0.69-0.35,1.08c0.01,0.02,0.02,0.03,0.03,0.04c0.26,0.45,0.4,0.96,0.4,1.49
			c0,3.34-5.6,5.77-15.35,6.67c-0.45,0.03-0.79,0.41-0.75,0.86c0.03,0.43,0.39,0.75,0.83,0.75c0.03,0,0.05,0,0.08,0
			C46.03,28.59,52,25.66,52,21.33C52,20.53,51.79,19.75,51.39,19.06z M10.4,25.18c0.07,0.02,0.13,0.02,0.2,0.02
			c0.45-0.01,0.8-0.38,0.79-0.82c-0.01-0.35-0.25-0.65-0.59-0.75c-3.84-0.97-5.96-2.36-5.96-3.91c0-0.4,0.13-0.78,0.36-1.11
			c0.26-0.36,0.18-0.86-0.18-1.12c-0.36-0.26-0.87-0.18-1.13,0.18c-0.01,0.01-0.02,0.02-0.03,0.04c-0.42,0.59-0.65,1.29-0.65,2
			C3.22,22.13,5.63,23.97,10.4,25.18z M13.39,24.17c-0.44-0.08-0.86,0.21-0.94,0.65c-0.08,0.44,0.22,0.85,0.66,0.93l0.33,0.06
			c0.04,0.01,0.09,0.01,0.14,0.01c0.45,0,0.81-0.36,0.81-0.8c0-0.39-0.29-0.73-0.68-0.79L13.39,24.17z M26,25.14
			c-3.3,0.01-6.6-0.18-9.87-0.56c-0.45-0.05-0.85,0.26-0.91,0.7c-0.06,0.44,0.26,0.84,0.71,0.89c3.34,0.39,6.71,0.58,10.08,0.57
			c5.34,0,22.78-0.51,22.78-7.03c0-0.73-0.24-1.45-0.67-2.05c-0.26-0.36-0.76-0.45-1.13-0.2c-0.37,0.25-0.46,0.75-0.2,1.12
			c0.25,0.33,0.38,0.72,0.38,1.13C47.15,22.91,38.46,25.14,26,25.14z M26,23.3c4,0.03,7.99-0.3,11.92-1
			c0.44-0.08,0.73-0.51,0.64-0.94c-0.09-0.43-0.51-0.72-0.95-0.63c-3.83,0.68-7.71,1-11.6,0.98c-11.77,0-17.93-2.39-17.93-3.67
			c0-0.36,0.72-1.17,3.42-2c0.42-0.14,0.65-0.6,0.51-1.02c-0.14-0.4-0.57-0.63-0.98-0.51c-3.03,0.92-4.57,2.11-4.57,3.52
			C6.44,21.9,18.14,23.3,26,23.3z M39.58,14.93c-0.12,0.43,0.12,0.87,0.55,0.99c0,0,0,0,0,0c3.01,0.85,3.8,1.75,3.8,2.11
			c0,0.36-0.8,1.26-3.83,2.12c-0.43,0.12-0.68,0.57-0.56,0.99c0.1,0.34,0.42,0.58,0.78,0.58c0.08,0,0.15-0.01,0.22-0.03
			c3.33-0.94,5.01-2.17,5.01-3.66c0-1.49-1.67-2.71-4.98-3.65C40.15,14.26,39.7,14.5,39.58,14.93z M25.54,18.92
			c0.16,0.05,0.34,0.05,0.5,0c0.2-0.06,4.86-1.63,4.86-8.45c0-4.36-4.28-9.93-4.47-10.17c-0.3-0.35-0.83-0.4-1.19-0.1
			c-0.04,0.03-0.07,0.07-0.11,0.1c-0.18,0.23-4.46,5.81-4.46,10.17C20.68,17.29,25.34,18.85,25.54,18.92z M25.79,2.17
			c1.16,1.69,3.49,5.42,3.49,8.3c0,4.82-2.64,6.43-3.48,6.82c-0.84-0.39-3.49-2.02-3.49-6.82C22.3,7.59,24.63,3.85,25.79,2.17z
			 M25.78,15.38c0.45,0,0.81-0.36,0.81-0.8V6.89c0-0.44-0.36-0.8-0.81-0.8c-0.45,0-0.81,0.36-0.81,0.8v7.69
			C24.97,15.02,25.33,15.38,25.78,15.38z M32.59,9.53l0-0.01c2.06-0.98,4.27-1.63,6.55-1.91c-0.46,1.87-1.6,5.7-3.57,7.47
			c-1.42,1.47-3.41,2.28-5.47,2.22c-0.45-0.03-0.84,0.3-0.87,0.74c-0.03,0.44,0.3,0.83,0.75,0.86c0.16,0.01,0.34,0.02,0.52,0.02
			c2.32-0.08,4.53-1.03,6.16-2.66c3.06-2.75,4.26-9.17,4.31-9.45c0.08-0.43-0.21-0.85-0.65-0.93c-0.07-0.01-0.14-0.02-0.21-0.01
			c-2.88,0.26-5.69,1.02-8.3,2.24c-0.39,0.21-0.54,0.7-0.32,1.09C31.7,9.6,32.19,9.74,32.59,9.53z M32.84,14.35l2.58-2.32
			c0.33-0.3,0.35-0.8,0.05-1.13c-0.3-0.33-0.82-0.35-1.15-0.05l-2.58,2.31c-0.33,0.3-0.35,0.81-0.05,1.13
			c0.15,0.16,0.36,0.26,0.59,0.26C32.49,14.56,32.69,14.48,32.84,14.35z M15.08,16.25c1.63,1.63,3.84,2.59,6.16,2.66
			c0.18,0,0.35-0.01,0.52-0.02c0.45-0.03,0.79-0.42,0.75-0.86c-0.03-0.44-0.42-0.77-0.87-0.74c-2.06,0.06-4.05-0.75-5.47-2.22
			c-1.97-1.77-3.11-5.6-3.57-7.47c2.27,0.28,4.49,0.93,6.55,1.91c0.39,0.21,0.89,0.07,1.1-0.32c0.22-0.39,0.07-0.87-0.32-1.09
			c-2.61-1.22-5.42-1.98-8.3-2.24c-0.45-0.04-0.84,0.29-0.88,0.73c-0.01,0.07,0,0.14,0.01,0.21C10.82,7.08,12.03,13.51,15.08,16.25z
			 M17.35,10.79c-0.33-0.3-0.85-0.28-1.15,0.05c-0.3,0.33-0.28,0.83,0.05,1.13l2.64,2.38c0.33,0.3,0.85,0.28,1.15-0.05
			c0.3-0.33,0.28-0.83-0.05-1.13L17.35,10.79z"/>
	</g>
</g>
</svg>
