<?xml version="1.0" encoding="utf-8"?>
<!-- Generator: Adobe Illustrator 24.1.1, SVG Export Plug-In . SVG Version: 6.00 Build 0)  -->
<svg version="1.1" id="Layer_1" xmlns="http://www.w3.org/2000/svg" xmlns:xlink="http://www.w3.org/1999/xlink" x="0px" y="0px"
	 viewBox="0 0 48 48" style="enable-background:new 0 0 48 48;" xml:space="preserve">
<g>
	<g>
		<path d="M46.8,40.9L33.41,27.36c0.97-1.56,1.69-3.26,2.13-4.87c1.31-4.97,0-9.25-0.92-11.39c-0.34-0.78-3.48-7.79-11.26-10.27
			c-0.77-0.24-2.85-0.83-5.37-0.83C8.08-0.01,0,8.13,0,18.16c0,9.84,8.27,18.11,18.03,18.16h0.05c3.63,0,6.86-1.17,9.57-2.97
			L41,46.79c0.82,0.83,1.89,1.22,2.9,1.22c1.06,0,2.13-0.39,2.9-1.22C48.4,45.18,48.4,42.55,46.8,40.9z M18.08,34.86h-0.05
			c-8.99-0.05-16.58-7.69-16.58-16.7c0-9.2,7.45-16.7,16.58-16.7c2.32,0,4.21,0.54,4.93,0.73c7.25,2.34,10.2,9.2,10.35,9.45
			c0.82,1.95,2.03,5.89,0.82,10.47C32.54,28.29,26.35,34.86,18.08,34.86z M45.83,45.77c-0.48,0.49-1.16,0.78-1.89,0.78
			c-0.73,0-1.4-0.29-1.89-0.78l-13.2-13.29c1.45-1.12,2.71-2.43,3.72-3.9l13.25,13.34c0.48,0.49,0.77,1.17,0.77,1.9
			C46.61,44.55,46.32,45.23,45.83,45.77z M18.08,4.72c-7.4,0-13.44,6.09-13.44,13.54c0,7.45,6.04,13.54,13.44,13.54
			c7.4,0,13.44-6.09,13.44-13.54C31.52,10.8,25.48,4.72,18.08,4.72z M30.03,17.23h-6.14c-0.15-4.72-1.26-8.57-2.9-10.71
			C25.87,7.74,29.59,12.02,30.03,17.23z M17.99,6.28c2.03,0,4.21,4.43,4.45,10.96h-8.9C13.78,10.71,15.96,6.28,17.99,6.28z
			 M14.99,6.62c-1.64,2.14-2.76,5.99-2.9,10.66H6.14C6.53,12.12,10.16,7.88,14.99,6.62z M6.09,18.69h5.99
			c0.05,4.92,1.16,9.01,2.85,11.25C9.96,28.58,6.29,24.1,6.09,18.69z M17.99,30.28c-2.08,0-4.35-4.72-4.45-11.59h8.9
			C22.34,25.56,20.07,30.28,17.99,30.28z M20.98,29.99c1.74-2.19,2.85-6.33,2.9-11.3h6.19C29.88,24.15,26.06,28.72,20.98,29.99z"/>
	</g>
</g>
</svg>
