<?xml version="1.0" encoding="utf-8"?>
<!-- Generator: Adobe Illustrator 24.1.1, SVG Export Plug-In . SVG Version: 6.00 Build 0)  -->
<svg version="1.1" id="Layer_1" xmlns="http://www.w3.org/2000/svg" xmlns:xlink="http://www.w3.org/1999/xlink" x="0px" y="0px"
	 viewBox="0 0 48 48" style="enable-background:new 0 0 48 48;" xml:space="preserve">
<g>
	<g>
		<path d="M40.78,0H10.85C9.09,0.02,7.67,1.48,7.67,3.27v1.69H6.75C5.31,4.89,4.08,6.02,4,7.49c-0.08,1.47,1.03,2.73,2.47,2.8
			c0.09,0.01,0.18,0.01,0.27,0h0.92v5.58H6.75C5.31,15.8,4.08,16.93,4,18.4c-0.08,1.47,1.03,2.73,2.47,2.8
			c0.09,0.01,0.18,0.01,0.27,0h0.92v5.58H6.75C5.31,26.71,4.08,27.84,4,29.31c-0.08,1.47,1.03,2.73,2.47,2.8
			c0.09,0.01,0.18,0.01,0.27,0h0.92v5.58H6.75C5.31,37.62,4.08,38.75,4,40.22s1.03,2.73,2.47,2.8c0.09,0,0.18,0,0.27,0h0.92v1.7
			c0,1.81,1.44,3.27,3.21,3.27H40.8c1.77,0,3.2-1.47,3.21-3.27V3.27C44,1.46,42.56,0,40.78,0z M6.72,8.84
			c-0.65,0-1.19-0.53-1.19-1.2V7.64c0-0.67,0.53-1.21,1.19-1.21h3.21c0.66,0.05,1.15,0.64,1.09,1.3c-0.05,0.6-0.51,1.07-1.09,1.12
			H6.72z M6.72,19.75c-0.65,0-1.19-0.53-1.19-1.2v-0.01c0-0.67,0.53-1.21,1.19-1.21h3.21c0.66,0.05,1.15,0.64,1.09,1.3
			c-0.05,0.6-0.51,1.07-1.09,1.12H6.72z M6.72,30.66c-0.65,0-1.19-0.53-1.19-1.2v-0.01c0-0.67,0.53-1.21,1.19-1.21h3.21
			c0.66,0.05,1.15,0.64,1.09,1.3c-0.05,0.6-0.51,1.07-1.09,1.12H6.72z M6.72,41.57c-0.65,0-1.19-0.53-1.19-1.2v-0.01
			c0-0.67,0.53-1.21,1.19-1.21h3.21c0.66,0.05,1.15,0.64,1.09,1.3c-0.05,0.6-0.51,1.07-1.09,1.12H6.72z M42.58,44.73
			c0,1-0.8,1.82-1.78,1.82H10.87c-0.98,0-1.78-0.81-1.78-1.82v-1.7h0.89c1.44-0.08,2.55-1.33,2.47-2.8
			c-0.07-1.36-1.14-2.45-2.47-2.53H9.09v-5.58h0.89c1.44-0.08,2.55-1.33,2.47-2.8c-0.07-1.36-1.14-2.45-2.47-2.53H9.09v-5.58h0.89
			c1.44-0.08,2.55-1.33,2.47-2.8c-0.07-1.36-1.14-2.45-2.47-2.53H9.09V10.3h0.89c1.44-0.08,2.55-1.33,2.47-2.8
			c-0.07-1.36-1.14-2.45-2.47-2.53H9.09V3.27c0-0.99,0.78-1.8,1.75-1.82h29.92c0.98-0.02,1.79,0.78,1.81,1.79c0,0.01,0,0.02,0,0.03
			V44.73z M33.47,26.6c-0.87-0.86-2.25-0.86-3.12,0l-0.43,0.44l-7.09-7.27l0.43-0.44c0.86-0.88,0.86-2.31,0-3.19l-3.08-3.15
			c-0.86-0.88-2.26-0.88-3.13,0l-2.02,2.06c-1,1.03-0.8,2.98,0.6,5.65c1.58,2.83,3.54,5.42,5.83,7.69c2.22,2.34,4.76,4.34,7.53,5.96
			c1.16,0.73,2.47,1.17,3.83,1.29c0.63,0.03,1.25-0.2,1.72-0.64l2.02-2.07c0.86-0.88,0.86-2.31,0-3.19L33.47,26.6z M35.55,31.91
			l-2.02,2.06c-0.36,0.38-1.6,0.37-3.85-0.86c-2.65-1.55-5.07-3.47-7.2-5.71c-2.19-2.17-4.08-4.64-5.59-7.35
			c-1.2-2.31-1.21-3.56-0.84-3.93l2.02-2.07c0.15-0.15,0.35-0.23,0.56-0.23c0.21,0,0.41,0.08,0.56,0.23l3.08,3.15
			c0.31,0.31,0.31,0.82,0,1.13c0,0,0,0,0,0l-0.94,0.96c-0.13,0.14-0.21,0.32-0.21,0.51c0,0.19,0.07,0.38,0.21,0.52l8.09,8.26
			c0.28,0.28,0.73,0.28,1,0l0.94-0.95c0.31-0.3,0.8-0.3,1.11,0l3.08,3.15C35.85,31.1,35.85,31.59,35.55,31.91z"/>
	</g>
</g>
</svg>
