<?xml version="1.0" encoding="utf-8"?>
<!-- Generator: Adobe Illustrator 24.1.1, SVG Export Plug-In . SVG Version: 6.00 Build 0)  -->
<svg version="1.1" id="Layer_1" xmlns="http://www.w3.org/2000/svg" xmlns:xlink="http://www.w3.org/1999/xlink" x="0px" y="0px"
	 viewBox="0 0 48 48" style="enable-background:new 0 0 48 48;" xml:space="preserve">
<g>
	<g>
		<path d="M24,6.52h3c0.41,0,0.75-0.34,0.75-0.76C27.75,5.34,27.41,5,27,5h-3c-0.41,0-0.75,0.34-0.75,0.76
			C23.25,6.18,23.59,6.52,24,6.52z M18,6.52h3c0.41,0,0.75-0.34,0.75-0.76C21.75,5.34,21.41,5,21,5h-3c-0.41,0-0.75,0.34-0.75,0.76
			C17.25,6.18,17.59,6.52,18,6.52z M30,6.52h3c0.41,0,0.75-0.34,0.75-0.76C33.75,5.34,33.41,5,33,5h-3c-0.41,0-0.75,0.34-0.75,0.76
			C29.25,6.18,29.59,6.52,30,6.52z M9,6.52c0.41,0,0.75-0.34,0.75-0.76C9.75,5.34,9.41,5,9,5H6C5.59,5,5.25,5.34,5.25,5.76
			c0,0.42,0.34,0.76,0.75,0.76H9z M36,6.52h3c0.07,0,0.15-0.01,0.21-0.03c0.06,0.04,0.13,0.07,0.2,0.09
			c0.49,0.14,0.88,0.54,1.03,1.03c0.1,0.33,0.4,0.54,0.72,0.54c0.07,0,0.14-0.01,0.22-0.03c0.4-0.12,0.62-0.54,0.5-0.94
			c-0.29-0.99-1.07-1.77-2.05-2.06c-0.07-0.02-0.14-0.03-0.21-0.03c-0.07,0-0.15,0.01-0.21,0.03C39.29,5.04,39.15,5,39,5h-3
			c-0.41,0-0.75,0.34-0.75,0.76C35.25,6.18,35.59,6.52,36,6.52z M12,6.52h3c0.41,0,0.75-0.34,0.75-0.76C15.75,5.34,15.41,5,15,5h-3
			c-0.41,0-0.75,0.34-0.75,0.76C11.25,6.18,11.59,6.52,12,6.52z M0.75,13.15c0.41,0,0.75-0.34,0.75-0.76V9.35
			c0-0.42-0.34-0.76-0.75-0.76C0.34,8.59,0,8.93,0,9.35v3.04C0,12.81,0.34,13.15,0.75,13.15z M1.5,33.88v-0.21
			c0-0.42-0.34-0.76-0.75-0.76C0.34,32.91,0,33.25,0,33.67v0.22c0,0,0,0,0,0v0.01c0,0,0,0,0,0v0l0,0v0.01c0,0,0,0,0,0v0c0,0,0,0,0,0
			c0,0,0,0,0,0c0,0,0,0,0,0v0.01c0,0,0,0,0,0v0c0,0,0,0,0,0v0c0,0,0,0,0,0c0,0,0,0,0,0v0.01c0,0,0,0,0,0c0,0,0,0,0,0c0,0,0,0,0,0v0
			c0,0,0,0.01,0,0.01c0,0,0,0,0,0c0,0,0,0,0,0c0,0,0,0,0,0c0,0,0,0.01,0,0.01c0,0,0,0,0,0c0,0,0,0,0,0v0c0,0,0,0,0,0v0c0,0,0,0,0,0
			v0c0,0,0,0,0,0c0,0,0,0,0,0c0,0,0,0,0,0c0,0,0,0,0,0c0,0,0,0,0,0.01v0c0,0,0,0,0,0v0c0,0,0,0,0,0c0,0,0,0,0,0c0,0,0,0,0,0
			c0,0,0,0,0,0c0,0,0,0,0,0c0,0,0,0,0,0c0,0,0,0,0,0v0c0,0,0,0,0,0v0c0,0,0,0,0,0v0c0,0,0,0.01,0,0.01c0,0,0,0,0,0c0,0,0,0,0,0
			c0,0,0,0,0,0c0,0,0,0.01,0,0.01c0,0,0,0,0,0c0,0,0,0,0,0c0,0,0,0,0,0c0,0,0,0,0,0c0,0,0,0,0,0v0c0,0,0,0,0,0v0c0,0,0,0,0,0
			c0,0,0,0,0,0c0,0,0,0,0,0c0,0,0,0,0,0c0,0,0,0,0,0c0,0,0,0,0,0c0,0,0,0,0,0c0,0,0,0,0,0v0c0,0,0,0,0,0c0,0,0,0,0,0c0,0,0,0,0,0
			l0,0c0,0,0,0,0,0c0,0,0,0,0,0c0,0,0,0,0,0c0,0,0,0,0,0c0,0,0,0,0,0v0c0,0,0,0,0,0c0,0,0,0,0,0v0c0,0,0,0,0,0c0,0,0,0,0,0
			c0,0,0,0,0,0v0c0,0,0,0,0,0v0c0,0,0,0,0,0v0c0,0,0,0,0,0v0c0,0,0,0,0,0c0,0,0,0,0,0c0,0,0,0,0,0c0,0,0,0,0,0c0,0,0,0,0,0v0
			c0,0,0,0,0,0v0c0,0,0,0,0,0v0c0,0,0,0,0,0c0,0,0,0,0,0c0,0,0,0,0,0c0,0,0,0,0,0c0,0,0,0,0,0c0,0,0,0,0,0c0,0,0,0,0,0l0,0
			c0,0,0,0,0,0v0c0,0,0,0,0,0c0,0,0,0,0,0c0,0,0,0,0,0c0,0,0,0,0,0c0,0,0,0,0,0c0,0,0,0,0,0c0,0,0,0,0,0c0,0,0,0,0,0v0c0,0,0,0,0,0
			c0,0,0,0,0,0v0c0,0,0,0,0,0l0,0c0,0,0,0.01,0,0.01v0c0,0,0,0,0,0c0,0,0,0,0,0c0,0,0,0.01,0,0.01c0,0,0,0,0,0c0,0,0,0,0,0
			c0,0,0,0,0,0c0,0,0,0,0,0c0,0,0,0,0,0c0,0,0,0,0,0c0,0,0,0,0,0c0,0,0,0,0,0c0,0,0,0,0,0v0c0,0,0,0,0,0v0c0,0,0,0,0,0c0,0,0,0,0,0
			c0,0,0,0,0,0v0c0,0,0,0,0,0c0,0,0,0,0,0c0,0,0,0,0,0c0,0,0,0,0,0c0,0,0,0,0,0c0,0,0,0,0,0l0,0c0,0,0,0,0,0l0,0c0,0,0,0,0,0
			c0,0,0,0,0,0c0,0,0,0,0,0c0,0,0,0,0,0c0,0,0,0,0,0c0,0,0,0,0,0v0c0,0,0,0.01,0,0.01c0,0,0,0,0,0c0,0,0,0,0,0c0,0,0,0,0,0
			c0,0,0,0.01,0,0.01v0c0,0,0,0,0,0c0,0,0,0,0,0c0,0,0,0,0,0c0,0,0,0,0,0h0c0,0,0,0,0,0v0c0,0,0,0,0,0c0,0,0,0.01,0,0.01
			c0,0,0,0,0,0c0,0,0,0,0,0c0,0,0,0,0,0c0,0,0,0,0,0c0,0,0,0,0,0c0,0,0,0,0,0c0,0,0,0,0,0c0,0,0,0,0,0h0c0,0,0,0,0,0l0,0
			c0,0,0,0,0,0c0,0,0,0,0,0c0,0,0,0.01,0,0.01c0,0,0,0,0,0c0,0,0,0,0,0v0c0,0,0,0.01,0,0.01l0,0c0,0,0,0,0,0c0,0,0,0,0,0
			c0,0,0,0,0,0c0,0,0,0,0,0c0,0,0,0,0,0c0,0,0,0,0,0c0,0,0,0,0,0c0,0,0,0,0,0c0,0,0,0,0,0c0,0,0,0,0,0c0,0,0,0,0,0h0c0,0,0,0,0,0
			c0,0,0,0,0,0c0,0,0,0,0,0c0,0,0,0,0,0c0,0,0,0,0,0h0c0,0,0,0,0,0c0,0,0,0,0,0c0,0,0,0,0,0c0,0,0,0,0,0c0,0,0,0.01,0,0.01
			c0,0,0,0,0,0c0,0,0,0,0,0c0,0,0,0,0,0c0,0,0,0.01,0,0.01c0,0,0,0,0,0c0,0,0,0,0,0c0,0,0,0,0,0c0,0,0,0.01,0,0.01c0,0,0,0,0,0.01
			c0,0,0,0.01,0,0.01c0,0,0,0,0,0l0,0c0,0,0,0.01,0,0.01c0,0,0,0,0,0c0,0,0,0,0,0c0,0,0,0,0,0c0,0,0,0,0,0c0,0,0,0,0,0c0,0,0,0,0,0
			c0,0,0,0.01,0,0.01h0c0,0,0,0,0,0c0,0,0,0,0,0c0,0,0,0,0,0l0,0c0,0,0,0.01,0,0.01l0,0c0,0,0,0,0,0c0,0,0,0,0,0c0,0,0,0.01,0,0.01
			c0,0,0,0,0,0v0c0,0,0,0.01,0,0.01v0c0,0,0,0,0,0c0,0,0,0,0,0c0,0,0,0.01,0,0.01v0c0,0,0,0,0,0v0c0,0,0,0.01,0,0.01h0c0,0,0,0,0,0
			l0,0c0,0,0,0,0,0l0,0c0,0,0,0,0,0c0,0,0,0,0,0c0,0,0,0,0,0l0,0c0,0,0,0,0,0h0c0,0,0,0,0,0c0,0,0,0,0,0c0,0,0,0,0,0c0,0,0,0,0,0
			c0,0,0,0.01,0,0.01c0,0,0,0,0,0c0,0,0,0,0,0v0c0,0,0,0.01,0,0.01l0,0c0,0,0,0,0,0v0c0,0,0,0.01,0,0.01c0,0,0,0,0,0h0c0,0,0,0,0,0
			c0,0,0,0,0,0c0,0,0,0,0,0c0,0,0,0.01,0,0.01c0,0,0,0,0,0c0,0,0,0,0,0c0,0,0,0,0,0c0,0,0,0.01,0,0.01v0c0,0,0,0,0,0
			c0,0,0,0.01,0,0.01l0,0c0,0,0,0,0,0c0,0,0,0,0,0c0,0,0,0.01,0,0.01c0,0,0,0,0,0c0,0,0,0,0,0h0c0,0,0,0.01,0,0.01h0c0,0,0,0,0,0
			c0,0,0,0,0,0c0,0,0,0.01,0,0.01c0,0,0,0,0,0h0c0,0,0,0.01,0,0.01c0,0,0,0,0,0c0,0,0,0,0,0c0,0,0,0,0,0v0c0,0,0,0,0,0c0,0,0,0,0,0
			c0,0,0,0,0,0c0,0,0,0,0,0v0c0,0,0,0.01,0,0.01h0c0,0,0,0,0,0c0,0,0,0.01,0,0.01v0c0,0,0,0,0,0v0c0,0,0,0.01,0,0.01c0,0,0,0,0,0
			c0,0,0,0,0,0c0,0,0,0.01,0,0.01c0,0,0,0,0,0c0,0,0,0,0,0c0,0,0,0.01,0,0.01h0c0,0,0,0,0,0h0c0,0,0,0,0,0c0,0,0,0,0,0c0,0,0,0,0,0
			c0,0,0,0,0,0c0,0,0,0,0,0c0,0,0,0,0,0c0,0,0,0,0,0l0,0c0,0,0,0,0,0c0,0,0,0,0,0c0,0,0,0.01,0,0.01l0,0c0,0,0,0,0,0l0,0
			c0,0,0,0.01,0,0.01l0,0c0,0,0,0,0,0c0,0,0,0,0,0c0,0,0,0.01,0,0.01c0,0,0,0,0,0c0,0,0,0,0,0c0,0,0,0,0,0c0,0,0,0,0,0v0
			c0,0,0,0,0,0l0,0c0,0,0,0,0,0c0,0,0,0,0,0c0,0,0,0,0,0c0,0,0,0,0,0c0,0,0,0,0,0c0,0,0,0,0,0c0,0,0,0,0,0l0,0c0,0,0,0,0,0l0,0
			c0,0,0,0,0,0l0,0c0,0,0,0,0,0c0,0,0,0,0,0c0,0,0,0,0,0c0,0,0,0,0,0c0,0,0,0,0,0c0,0,0,0,0,0l0,0c0,0,0,0,0,0c0,0,0,0,0,0
			c0,0,0,0.01,0,0.01v0c0,0,0,0,0,0h0c0,0,0,0.01,0,0.01h0c0,0,0,0,0,0l0,0c0,0,0,0.01,0,0.01c0,0,0,0,0,0c0,0,0,0,0,0l0,0
			c0,0,0,0,0,0c0,0,0,0,0,0c0,0,0,0,0,0c0,0,0,0,0,0c0,0,0,0,0,0c0,0,0,0,0,0l0,0c0,0,0,0,0,0c0,0,0,0,0,0c0,0,0,0,0,0c0,0,0,0,0,0
			c0,0,0,0,0,0c0,0,0,0,0,0c0,0,0,0,0,0c0,0,0,0,0,0c0,0,0,0,0,0c0,0,0,0,0,0c0,0,0,0,0,0c0,0,0,0,0,0c0,0,0,0,0,0c0,0,0,0,0,0l0,0
			c0,0,0,0,0,0l0,0c0,0,0,0,0,0c0,0,0,0,0,0c0,0,0,0,0,0c0,0,0,0,0,0c0,0,0,0,0,0c0,0,0,0,0,0c0,0,0,0,0,0v0c0,0,0,0,0,0
			c0,0,0,0,0,0c0,0,0,0,0,0c0,0,0,0,0,0c0,0,0,0,0,0c0,0,0,0,0,0c0,0,0,0,0,0c0,0,0,0,0,0c0,0,0,0,0,0c0,0,0,0,0,0c0,0,0,0,0,0
			c0,0,0,0,0,0c0,0,0,0,0,0c0,0,0,0,0,0c0,0,0,0,0,0c0,0,0,0,0,0c0,0,0,0,0,0c0,0,0,0,0,0c0,0,0,0,0,0c0,0,0,0,0,0c0,0,0,0,0,0
			c0,0,0,0,0,0c0,0,0,0,0,0c0,0,0,0,0,0c0,0,0,0,0,0c0,0,0,0,0,0c0,0,0,0,0,0c0,0,0,0,0,0c0,0,0,0,0,0c0,0,0,0,0,0c0,0,0,0,0,0
			c0,0,0,0,0,0c0,0,0,0,0,0c0,0,0,0,0,0c0,0,0,0,0,0c0,0,0,0,0,0c0,0,0,0.01,0,0.01c0,0,0,0,0,0c0,0,0,0,0,0l0,0c0,0,0,0,0,0l0,0
			c0,0,0,0,0,0c0,0,0,0,0,0c0,0,0,0,0,0c0,0,0,0,0,0c0,0,0,0,0,0c0,0,0,0,0,0c0,0,0,0,0,0c0,0,0,0,0,0c0,0,0,0,0,0c0,0,0,0,0,0
			c0,0,0,0,0,0c0,0,0,0,0,0c0,0,0,0,0,0c0,0,0,0,0,0c0,0,0,0,0,0c0,0,0,0,0,0c0,0,0,0,0,0c0,0,0,0,0,0c0,0,0,0,0,0c0,0,0,0,0,0
			c0,0,0,0,0,0c0,0,0,0,0,0c0,0,0,0,0,0c0,0,0,0,0,0c0,0,0,0,0,0c0,0,0,0,0,0c0,0,0,0,0,0c0,0,0,0,0,0c0,0,0,0,0,0c0,0,0,0,0,0
			c0,0,0,0,0,0c0,0,0,0,0,0c0,0,0,0,0,0c0,0,0,0,0,0c0,0,0,0,0,0c0,0,0,0,0,0c0,0,0,0,0,0c0,0,0,0,0,0c0,0,0,0,0,0c0,0,0,0,0,0
			c0,0,0,0,0,0c0,0,0,0,0,0c0,0,0,0,0,0c0,0,0,0,0,0c0,0,0,0,0,0c0,0,0,0,0,0c0,0,0,0,0,0c0,0,0,0,0,0c0,0,0,0,0,0c0,0,0,0,0,0
			c0,0,0,0,0,0c0,0,0,0,0,0c0,0,0,0,0,0c0,0,0,0,0,0c0,0,0,0,0,0c0,0,0,0,0,0c0,0,0,0,0,0c0,0,0,0,0,0c0,0,0,0,0,0c0,0,0,0,0,0
			c0,0,0,0,0,0c0,0,0,0,0,0c0,0,0,0,0,0c0,0,0,0,0,0c0,0,0,0,0,0c0,0,0,0,0,0c0,0,0,0,0,0c0,0,0,0,0,0c0,0,0,0,0,0c0,0,0,0,0,0
			c0,0,0,0,0,0c0,0,0,0,0,0c0,0,0,0,0,0c0,0,0,0,0,0c0,0,0,0,0,0c0,0,0,0,0,0c0,0,0,0,0,0c0,0,0,0,0,0c0,0,0,0,0,0c0,0,0,0,0,0
			c0,0,0,0,0,0c0,0,0,0,0,0c0,0,0,0,0,0c0,0,0,0,0,0c0,0,0,0,0,0c0,0,0,0,0,0c0,0,0,0,0,0c0,0,0,0,0,0c0,0,0,0,0,0c0,0,0,0,0,0
			c0,0,0,0,0,0c0,0,0,0,0,0c0,0,0,0,0,0c0,0,0,0,0,0c0,0,0,0,0,0c0,0,0,0,0,0c0,0,0,0,0,0c0,0,0,0,0,0c0,0,0,0,0,0c0,0,0,0,0,0
			c0,0,0,0,0,0c0,0,0,0,0,0c0,0,0,0,0,0c0,0,0,0,0,0c0,0,0,0,0,0c0,0,0,0,0,0c0,0,0,0,0,0c0,0,0,0,0,0c0,0,0,0,0,0c0,0,0,0,0,0
			c0,0,0,0,0,0c0,0,0,0,0,0c0,0,0,0,0,0c0,0,0,0,0,0c0,0,0,0,0,0c0,0,0,0,0,0c0,0,0,0,0,0c0,0,0,0,0,0c0,0,0,0,0,0c0,0,0,0,0,0l0,0
			c0,0,0,0,0,0c0,0,0,0,0,0c0,0,0,0,0,0c0,0,0,0,0,0c0,0,0,0,0,0c0,0,0,0,0,0c0,0,0,0,0,0c0,0,0,0,0,0c0,0,0,0,0,0c0,0,0,0,0,0
			c0,0,0,0,0,0c0,0,0,0,0,0c0,0,0,0,0,0c0,0,0,0,0,0c0,0,0,0,0,0c0,0,0,0,0,0c0,0,0,0,0,0c0,0,0,0,0,0c0,0,0,0,0,0c0,0,0,0,0,0
			c0,0,0,0,0,0.01l0,0c0,0,0,0,0,0h0c0,0,0,0,0,0.01l0,0c0,0,0,0,0,0c0,0,0,0,0,0c0,0,0,0,0,0.01c0,0,0,0,0,0c0,0,0,0,0,0
			c0,0,0,0,0,0.01c0,0,0,0,0,0c0,0,0,0,0,0c0,0,0,0,0,0c0,0,0.01,0.01,0.01,0.01c0.18,0.26,0.41,0.49,0.66,0.69
			c0.13,0.1,0.29,0.15,0.45,0.15c0.23,0,0.45-0.11,0.6-0.3c0.25-0.34,0.18-0.81-0.15-1.06C1.72,34.81,1.5,34.36,1.5,33.88z
			 M3.33,36.16c0,0.42,0.34,0.76,0.75,0.76H4.5V35.4H4.08C3.67,35.4,3.33,35.74,3.33,36.16z M3.75,5.76C3.75,5.34,3.41,5,3,5H2.98
			c0,0,0,0,0,0H2.97c0,0,0,0,0,0h0c0,0,0,0,0,0h0c0,0,0,0,0,0h0c0,0,0,0,0,0H2.94c0,0,0,0,0,0h0c0,0,0,0,0,0H2.92c0,0,0,0,0,0H2.9
			c0,0,0,0,0,0H2.89c0,0,0,0,0,0h0c0,0,0,0,0,0c0,0,0,0,0,0H2.88c0,0,0,0,0,0c0,0,0,0,0,0c0,0,0,0,0,0h0c0,0,0,0,0,0c0,0,0,0,0,0h0
			c0,0,0,0,0,0c0,0,0,0,0,0H2.85c0,0,0,0,0,0c0,0,0,0,0,0H2.84c0,0,0,0,0,0c0,0,0,0,0,0h0c0,0,0,0,0,0c0,0,0,0,0,0H2.82
			c0,0-0.01,0-0.01,0c0,0,0,0,0,0h0c0,0,0,0,0,0c0,0,0,0,0,0h0c0,0,0,0,0,0H2.79c0,0,0,0,0,0c0,0,0,0,0,0c0,0,0,0,0,0c0,0,0,0,0,0
			c0,0,0,0,0,0h0c0,0,0,0,0,0c0,0,0,0,0,0c0,0,0,0,0,0c0,0,0,0,0,0h0c0,0,0,0,0,0c0,0,0,0,0,0H2.75c0,0,0,0,0,0c0,0,0,0,0,0
			c0,0,0,0,0,0c0,0,0,0,0,0c0,0-0.01,0-0.01,0h0c0,0,0,0,0,0c0,0,0,0,0,0c0,0,0,0,0,0c0,0,0,0,0,0h0c0,0,0,0,0,0c0,0,0,0,0,0h0
			c0,0,0,0,0,0h0c0,0,0,0,0,0h0c0,0,0,0,0,0h0c0,0,0,0,0,0h0c0,0,0,0,0,0c0,0,0,0,0,0c0,0,0,0,0,0c0,0,0,0,0,0c0,0,0,0,0,0h0
			c0,0,0,0,0,0h0c0,0,0,0,0,0c0,0,0,0,0,0c0,0,0,0,0,0c0,0,0,0,0,0c0,0-0.01,0-0.01,0c0,0,0,0,0,0c0,0,0,0,0,0h0c0,0,0,0,0,0
			c0,0,0,0,0,0c0,0,0,0,0,0h0c0,0,0,0,0,0c0,0,0,0,0,0c0,0,0,0,0,0c0,0,0,0,0,0c0,0-0.01,0-0.01,0h0c0,0,0,0,0,0c0,0,0,0,0,0h0
			c0,0,0,0,0,0c0,0,0,0,0,0c0,0,0,0,0,0c0,0,0,0,0,0c0,0,0,0,0,0c0,0-0.01,0-0.01,0c0,0,0,0,0,0c0,0-0.01,0-0.01,0c0,0,0,0,0,0
			c0,0,0,0,0,0c0,0,0,0,0,0c0,0,0,0,0,0c0,0,0,0,0,0h0c0,0-0.01,0-0.01,0c0,0,0,0,0,0c0,0-0.01,0-0.01,0c0,0,0,0,0,0c0,0,0,0,0,0h0
			c0,0,0,0,0,0h0c0,0,0,0,0,0c0,0,0,0,0,0c0,0,0,0,0,0h0c0,0,0,0,0,0h0c0,0-0.01,0-0.01,0h0c0,0-0.01,0-0.01,0h0c0,0-0.01,0-0.01,0
			c0,0,0,0,0,0c0,0,0,0,0,0h0c0,0-0.01,0-0.01,0c0,0,0,0,0,0c0,0-0.01,0-0.01,0c0,0,0,0,0,0c0,0-0.01,0-0.01,0c0,0,0,0,0,0
			c0,0-0.01,0-0.01,0c0,0,0,0,0,0c0,0-0.01,0-0.01,0h0c0,0-0.01,0-0.01,0c0,0,0,0,0,0c-0.01,0-0.02,0-0.02,0.01h0c0,0-0.01,0-0.01,0
			c0,0,0,0,0,0c0,0-0.01,0-0.01,0c0,0,0,0,0,0c0,0,0,0,0,0c0,0-0.01,0-0.01,0h0c0,0-0.01,0-0.01,0h0c0,0-0.01,0-0.01,0
			C1.57,5.24,0.9,5.74,0.48,6.4C0.25,6.76,0.35,7.22,0.7,7.45c0.13,0.08,0.27,0.12,0.41,0.12c0.25,0,0.49-0.12,0.63-0.35
			C2.02,6.78,2.49,6.52,3,6.52C3.41,6.52,3.75,6.18,3.75,5.76z M0.75,19.23c0.41,0,0.75-0.34,0.75-0.76v-3.04
			c0-0.42-0.34-0.76-0.75-0.76C0.34,14.67,0,15.01,0,15.43v3.04C0,18.89,0.34,19.23,0.75,19.23z M0.75,25.31
			c0.41,0,0.75-0.34,0.75-0.76v-3.04c0-0.42-0.34-0.76-0.75-0.76C0.34,20.75,0,21.09,0,21.51v3.04C0,24.97,0.34,25.31,0.75,25.31z
			 M0.75,31.39c0.41,0,0.75-0.34,0.75-0.76v-3.04c0-0.42-0.34-0.76-0.75-0.76C0.34,26.83,0,27.17,0,27.59v3.04
			C0,31.05,0.34,31.39,0.75,31.39z M45,11.08H9c-1.65,0-3,1.37-3,3.04v25.84C6,41.63,7.35,43,9,43h36c1.65,0,3-1.37,3-3.04V14.12
			C48,12.45,46.65,11.08,45,11.08z M46.5,39.96c0,0.84-0.67,1.52-1.5,1.52H9c-0.83,0-1.5-0.68-1.5-1.52V14.12
			c0-0.84,0.67-1.52,1.5-1.52h36c0.83,0,1.5,0.68,1.5,1.52V39.96z M31.99,29.16l2.38-1.13c0.29-0.14,0.46-0.45,0.43-0.78
			c-0.04-0.32-0.28-0.59-0.59-0.65l-10.43-2.2c-0.26-0.05-0.54,0.04-0.71,0.24c-0.18,0.2-0.23,0.49-0.15,0.75l3.23,9.68
			c0.1,0.3,0.37,0.5,0.68,0.52c0.31,0.01,0.6-0.17,0.72-0.46l1.01-2.43l4.22,3.67c0.14,0.12,0.32,0.18,0.49,0.18
			c0.2,0,0.39-0.08,0.54-0.23l2.37-2.46c0.14-0.15,0.22-0.35,0.21-0.56c-0.01-0.21-0.1-0.41-0.26-0.54L31.99,29.16z M33.21,34.74
			l-4.47-3.89c-0.14-0.12-0.31-0.18-0.49-0.18c-0.06,0-0.12,0.01-0.17,0.02c-0.23,0.06-0.43,0.22-0.52,0.45l-0.64,1.54l-2.17-6.52
			l6.95,1.46l-1.4,0.67c-0.23,0.11-0.39,0.33-0.42,0.59c-0.03,0.26,0.06,0.51,0.25,0.68l4.39,3.82L33.21,34.74z M20.03,20.04
			c-0.29-0.3-0.77-0.3-1.06,0c-0.29,0.3-0.29,0.78,0,1.08l2.25,2.28c0.15,0.15,0.34,0.22,0.53,0.22c0.19,0,0.38-0.07,0.53-0.22
			c0.29-0.3,0.29-0.78,0-1.07L20.03,20.04z M25.87,23.24c0.41,0,0.75-0.34,0.75-0.76V20.2c0-0.42-0.34-0.76-0.75-0.76
			c-0.41,0-0.75,0.34-0.75,0.76v2.28C25.13,22.9,25.46,23.24,25.87,23.24z M20.88,25.53l-2.25,0.38c-0.41,0.07-0.68,0.46-0.62,0.87
			c0.06,0.37,0.38,0.64,0.74,0.64c0.04,0,0.08,0,0.12-0.01l2.25-0.38c0.41-0.07,0.68-0.46,0.62-0.87
			C21.67,25.74,21.28,25.46,20.88,25.53z"/>
	</g>
</g>
</svg>
