<!-- Generated by IcoMoon.io -->
<svg version="1.1" xmlns="http://www.w3.org/2000/svg" width="32" height="32" viewBox="0 0 32 32">
<title>heart</title>
<path d="M6.887 4.807c-0.647-0.113-1.3 0.033-1.84 0.413s-0.9 0.947-1.013 1.593c-0.013 0.093 0.007 0.193 0.060 0.273 0.047 0.067 0.113 0.113 0.193 0.14 0.013 0.007 0.027 0.007 0.040 0.007 0.093 0.013 0.193-0.007 0.273-0.060s0.127-0.133 0.147-0.227v-0.007c0.167-0.947 1.073-1.58 2.020-1.413 0.093 0.013 0.187-0.007 0.273-0.060 0.080-0.060 0.133-0.14 0.147-0.233 0.033-0.207-0.1-0.393-0.3-0.427zM29.34 4.66c-1.72-1.72-4.007-2.66-6.44-2.66s-4.72 0.94-6.44 2.66l-0.46 0.453-0.46-0.453c-1.72-1.72-4.007-2.66-6.44-2.66s-4.72 0.94-6.44 2.66c-3.547 3.54-3.547 9.307 0 12.853l11.927 11.913c0.38 0.373 0.88 0.573 1.413 0.573s1.033-0.207 1.4-0.58l11.933-11.9c3.553-3.553 3.553-9.32 0.007-12.86zM28.84 16.513l-12.3 12.567c-0.14 0.147-0.327 0.22-0.527 0.22s-0.387-0.080-0.527-0.22l-12.327-12.567c-3.093-3.1-3.093-8.153 0-11.253 1.507-1.5 3.493-2.327 5.62-2.327s4.12 0.52 5.613 2.013l0.68 0.68c0.253 0.253 0.58 0.387 0.927 0.387s0.68-0.14 0.927-0.387l0.68-0.68c1.5-1.5 3.493-2.013 5.613-2.013s4.12 0.827 5.613 2.327c3.1 3.107 3.1 8.153 0.007 11.253z"></path>
</svg>
