<?xml version="1.0" encoding="utf-8"?>
<!-- Generator: Adobe Illustrator 24.1.1, SVG Export Plug-In . SVG Version: 6.00 Build 0)  -->
<svg version="1.1" id="Layer_1" xmlns="http://www.w3.org/2000/svg" xmlns:xlink="http://www.w3.org/1999/xlink" x="0px" y="0px"
	 viewBox="0 0 48 48" style="enable-background:new 0 0 48 48;" xml:space="preserve">
<g>
	<g>
		<path d="M47.03,25.29l-28.95-7.95c-0.2-0.07-0.47,0-0.68,0.2c-0.2,0.2-0.27,0.41-0.2,0.68l7.78,29.3
			c0.07,0.27,0.34,0.48,0.61,0.48c0.27,0,0.54-0.2,0.61-0.48l5.68-15.43l15.15-5.51c0.27-0.07,0.47-0.34,0.47-0.68
			C47.51,25.63,47.3,25.36,47.03,25.29z M31.2,30.93c-0.2,0.07-0.34,0.2-0.41,0.41l-5.01,13.66l-6.97-26.04l25.77,7.14L31.2,30.93z
			 M15.38,30.66c-7.58-0.61-13.53-7-13.53-14.68C1.85,7.89,8.41,1.3,16.46,1.3c7.51,0,13.73,5.64,14.54,13.12
			c0.07,0.34,0.41,0.61,0.74,0.61c0.34-0.07,0.61-0.41,0.61-0.75C31.47,6.12,24.64,0,16.46,0C7.66,0,0.49,7.21,0.49,16.05
			c0,8.29,6.43,15.3,14.75,15.98c0.41,0,0.68-0.27,0.74-0.61C15.98,31,15.71,30.73,15.38,30.66z M23.22,12.38
			c0.2,0.34,0.61,0.48,0.95,0.27c0.34-0.2,0.47-0.61,0.27-0.95c-1.56-2.92-4.6-4.69-7.85-4.69c-4.94,0-8.93,4.01-8.93,8.97
			c0,3.53,2.1,6.8,5.34,8.23c0.07,0.07,0.2,0.07,0.27,0.07c0.27,0,0.47-0.14,0.61-0.41c0.14-0.34,0-0.75-0.34-0.88
			c-2.77-1.22-4.53-3.94-4.53-6.93c-0.07-4.28,3.31-7.68,7.51-7.68C19.3,8.37,21.87,9.93,23.22,12.38z"/>
	</g>
</g>
</svg>
