<?xml version="1.0" encoding="utf-8"?>
<!-- Generator: Adobe Illustrator 24.1.1, SVG Export Plug-In . SVG Version: 6.00 Build 0)  -->
<svg version="1.1" id="OBJECTS" xmlns="http://www.w3.org/2000/svg" xmlns:xlink="http://www.w3.org/1999/xlink" x="0px" y="0px"
	 viewBox="0 0 58.01 31" style="enable-background:new 0 0 58.01 31;" xml:space="preserve">
<style type="text/css">
	.st0{fill:#231F20;}
</style>
<g>
	<g>
		<path class="st0" d="M20.75,6.02c0.48,0,0.87-0.39,0.87-0.87c0-0.48-0.39-0.87-0.87-0.87H4.84c-0.48,0-0.87,0.39-0.87,0.87
			c0,0.48,0.39,0.87,0.87,0.87H20.75z M17.65,9.44c0-0.48-0.39-0.87-0.87-0.87H0.87C0.39,8.58,0,8.96,0,9.44
			c0,0.48,0.39,0.86,0.87,0.86h15.92C17.26,10.31,17.65,9.92,17.65,9.44z M18.53,13.73c0-0.48-0.39-0.87-0.87-0.87H1.75
			c-0.48,0-0.87,0.39-0.87,0.87c0,0.48,0.39,0.86,0.87,0.86h15.91C18.14,14.6,18.53,14.21,18.53,13.73z M19.43,21.29
			c-1.87,0-3.39,1.52-3.39,3.38c0,1.87,1.52,3.38,3.39,3.38c1.87,0,3.39-1.52,3.39-3.38C22.82,22.81,21.29,21.29,19.43,21.29z
			 M19.43,26.33c-0.91,0-1.65-0.74-1.65-1.65c0-0.91,0.74-1.65,1.65-1.65c0.91,0,1.65,0.74,1.65,1.65
			C21.08,25.59,20.34,26.33,19.43,26.33z M44.04,21.29c-1.87,0-3.39,1.52-3.39,3.38c0,1.87,1.52,3.38,3.39,3.38
			c1.87,0,3.39-1.52,3.39-3.38C47.43,22.81,45.91,21.29,44.04,21.29z M44.04,26.33c-0.91,0-1.66-0.74-1.66-1.65
			c0-0.91,0.74-1.65,1.66-1.65c0.91,0,1.65,0.74,1.65,1.65C45.7,25.59,44.95,26.33,44.04,26.33z M46.37,8.12h-4.96
			c-0.48,0-0.87,0.39-0.87,0.87v5.99c0,0.48,0.39,0.87,0.87,0.87h9.08c0.28,0,0.54-0.14,0.71-0.36c0.16-0.23,0.2-0.52,0.11-0.78
			C50.77,13.15,48.85,8.12,46.37,8.12z M42.27,14.11V9.85h4.09c0.65,0,1.91,1.92,2.87,4.26H42.27z M56.2,20.1v-3.23
			c0-0.22-0.04-0.43-0.13-0.64l-3.06-7.31c-0.02-0.04-0.03-0.08-0.06-0.11c-1.46-2.43-2.98-4.61-5.45-4.61h-6.42
			c-0.59,0-1.17,0.09-1.74,0.27V3.27c0-1.8-1.47-3.27-3.27-3.27H2.18C1.7,0,1.31,0.39,1.31,0.86c0,0.48,0.39,0.87,0.87,0.87h33.9
			c0.85,0,1.54,0.69,1.54,1.53v20.75H25.73c-0.34-3.18-3.04-5.66-6.31-5.66c-3.27,0-5.97,2.48-6.31,5.66h-2.96
			c-0.85,0-1.54-0.69-1.54-1.54v-6.15H6.88v6.15c0,1.8,1.47,3.27,3.27,3.27h3.03c0.51,2.98,3.11,5.25,6.24,5.25
			c3.13,0,5.73-2.28,6.24-5.25H37.8c0.51,2.98,3.11,5.25,6.25,5.25c3.13,0,5.73-2.28,6.24-5.25h5.25c1.36,0,2.47-1.11,2.47-2.47
			v-0.8C58.01,21.35,57.24,20.39,56.2,20.1z M19.43,29.27c-2.54,0-4.61-2.06-4.61-4.59c0-2.53,2.07-4.59,4.61-4.59
			c2.54,0,4.6,2.06,4.6,4.59C24.03,27.21,21.96,29.27,19.43,29.27z M44.04,29.27c-2.54,0-4.61-2.06-4.61-4.59
			c0-2.53,2.07-4.59,4.61-4.59c2.54,0,4.6,2.06,4.6,4.59C48.64,27.21,46.58,29.27,44.04,29.27z M55.53,24.01h-5.19
			c-0.34-3.18-3.03-5.66-6.3-5.66c-1.86,0-3.53,0.81-4.69,2.08V6.33c0.57-0.26,1.16-0.39,1.74-0.39h6.42c1.54,0,2.74,1.75,3.92,3.71
			l3.03,7.22v4c0,0.48,0.39,0.87,0.87,0.87h0.2c0.41,0,0.73,0.33,0.73,0.73v0.8h0C56.27,23.68,55.94,24.01,55.53,24.01z"/>
	</g>
</g>
</svg>
