<?xml version="1.0" encoding="utf-8"?>
<!-- Generator: Adobe Illustrator 24.1.1, SVG Export Plug-In . SVG Version: 6.00 Build 0)  -->
<svg version="1.1" id="Layer_1" xmlns="http://www.w3.org/2000/svg" xmlns:xlink="http://www.w3.org/1999/xlink" x="0px" y="0px"
	 viewBox="0 0 48 48" style="enable-background:new 0 0 48 48;" xml:space="preserve">
<g>
	<g>
		<path d="M35.59,37.16c-0.3-0.3-0.79-0.3-1.09,0c-0.3,0.3-0.3,0.79,0,1.08l3.01,2.98c0.15,0.15,0.35,0.22,0.55,0.22
			c0.2,0,0.4-0.08,0.55-0.22c0.3-0.3,0.3-0.79,0-1.08L35.59,37.16z M40.97,9.97C36.44,5.48,30.41,3.01,24,3.01
			c-6.41,0-12.44,2.47-16.97,6.96C2.5,14.45,0,20.42,0,26.77c0,6.35,2.5,12.32,7.03,16.8c0.3,0.3,0.79,0.3,1.09,0
			c0.3-0.3,0.3-0.79,0-1.08c-4.24-4.2-6.58-9.78-6.58-15.72c0-5.94,2.34-11.52,6.58-15.72C12.37,6.86,18,4.54,24,4.54
			c6,0,11.63,2.31,15.88,6.51c4.24,4.2,6.58,9.78,6.58,15.72c0,5.94-2.34,11.52-6.58,15.72c-0.3,0.3-0.3,0.79,0,1.08
			c0.15,0.15,0.35,0.22,0.55,0.22c0.2,0,0.4-0.08,0.55-0.22C45.5,39.09,48,33.12,48,26.77C48,20.42,45.5,14.45,40.97,9.97z
			 M12.41,37.16L9.4,40.14c-0.3,0.3-0.3,0.79,0,1.08c0.15,0.15,0.35,0.22,0.55,0.22c0.2,0,0.4-0.08,0.55-0.22l3.01-2.98
			c0.3-0.3,0.3-0.79,0-1.08C13.21,36.86,12.72,36.86,12.41,37.16z M10.5,12.32c-0.3-0.3-0.79-0.3-1.09,0c-0.3,0.3-0.3,0.79,0,1.08
			l3.01,2.98c0.15,0.15,0.35,0.22,0.55,0.22s0.4-0.08,0.55-0.22c0.3-0.3,0.3-0.79,0-1.08L10.5,12.32z M8.39,26H4.13
			c-0.43,0-0.77,0.34-0.77,0.77c0,0.42,0.35,0.77,0.77,0.77h4.26c0.43,0,0.77-0.34,0.77-0.77C9.17,26.35,8.82,26,8.39,26z
			 M44.65,26.77c0-0.42-0.35-0.77-0.77-0.77h-4.26c-0.43,0-0.77,0.34-0.77,0.77c0,0.42,0.35,0.77,0.77,0.77h4.26
			C44.3,27.54,44.65,27.19,44.65,26.77z M35.03,16.61c0.2,0,0.4-0.08,0.55-0.22l3.01-2.98c0.3-0.3,0.3-0.79,0-1.08
			c-0.3-0.3-0.79-0.3-1.09,0l-3.01,2.98c-0.3,0.3-0.3,0.79,0,1.08C34.64,16.53,34.84,16.61,35.03,16.61z M24.77,11.32V7.1
			c0-0.42-0.35-0.77-0.77-0.77c-0.43,0-0.77,0.34-0.77,0.77v4.22c0,0.42,0.35,0.77,0.77,0.77C24.43,12.08,24.77,11.74,24.77,11.32z
			 M17.84,44.99h12.32v-5.59H17.84V44.99z M19.39,40.94h9.22v2.52h-9.22V40.94z M20.41,26.77c0,1.96,1.61,3.56,3.59,3.56
			c1.98,0,3.59-1.59,3.59-3.56c0-1.25-0.66-2.34-1.64-2.98l3.62-9.6c0.15-0.4-0.05-0.84-0.45-0.99c-0.4-0.15-0.85,0.05-1,0.45
			l-3.62,9.6c-0.17-0.02-0.33-0.04-0.5-0.04C22.02,23.21,20.41,24.81,20.41,26.77z M24,24.75c1.13,0,2.04,0.9,2.04,2.02
			c0,1.12-0.92,2.02-2.04,2.02c-1.13,0-2.04-0.9-2.04-2.02C21.96,25.65,22.87,24.75,24,24.75z"/>
	</g>
</g>
</svg>
