<?xml version="1.0" encoding="utf-8"?>
<!-- Generator: Adobe Illustrator 24.1.1, SVG Export Plug-In . SVG Version: 6.00 Build 0)  -->
<svg version="1.1" id="Layer_1" xmlns="http://www.w3.org/2000/svg" xmlns:xlink="http://www.w3.org/1999/xlink" x="0px" y="0px"
	 viewBox="0 0 48 48" style="enable-background:new 0 0 48 48;" xml:space="preserve">
<g>
	<g>
		<path d="M16.68,26.92c0-0.01-0.01-0.02-0.01-0.02l-2.33-5.62c-0.12-0.3-0.42-0.49-0.74-0.49c-0.32,0-0.61,0.2-0.74,0.49
			l-2.33,5.62c0,0.01-0.01,0.02-0.01,0.02l-1.66,4.01c-0.17,0.41,0.02,0.88,0.43,1.05c0.41,0.17,0.88-0.02,1.05-0.43l1.46-3.53h3.6
			l1.46,3.53c0.13,0.31,0.43,0.5,0.74,0.5c0.1,0,0.21-0.02,0.31-0.06c0.41-0.17,0.6-0.64,0.43-1.05L16.68,26.92z M12.47,26.41
			l1.13-2.73l1.13,2.73H12.47z M44.8,5.5H24c-1.76,0-3.2,1.44-3.2,3.22v8.85H3.2c-1.76,0-3.2,1.44-3.2,3.22v12.07
			c0,1.77,1.44,3.22,3.2,3.22h2.4v5.63c0,0.33,0.19,0.62,0.49,0.74c0.1,0.04,0.2,0.06,0.31,0.06c0.21,0,0.41-0.08,0.57-0.24
			l6.17-6.2H24c1.76,0,3.2-1.44,3.2-3.22V24h7.67l6.17,6.2c0.15,0.15,0.36,0.24,0.57,0.24c0.1,0,0.21-0.02,0.31-0.06
			c0.3-0.12,0.49-0.42,0.49-0.74V24h2.4c1.76,0,3.2-1.44,3.2-3.22V8.72C48,6.94,46.56,5.5,44.8,5.5z M25.6,32.85
			c0,0.89-0.72,1.61-1.6,1.61H12.8c-0.21,0-0.42,0.09-0.57,0.24L7.2,39.75v-4.49c0-0.44-0.36-0.8-0.8-0.8H3.2
			c-0.88,0-1.6-0.72-1.6-1.61V20.78c0-0.89,0.72-1.61,1.6-1.61H24c0.88,0,1.6,0.72,1.6,1.61V32.85z M46.4,20.78
			c0,0.89-0.72,1.61-1.6,1.61h-3.2c-0.44,0-0.8,0.36-0.8,0.8v4.49l-5.03-5.06c-0.15-0.15-0.35-0.24-0.57-0.24h-8v-1.61
			c0-1.77-1.44-3.22-3.2-3.22h-1.6V8.72c0-0.89,0.72-1.61,1.6-1.61h20.8c0.88,0,1.6,0.72,1.6,1.61V20.78z M38.4,11.93
			c0.44,0,0.8-0.36,0.8-0.8c0-0.44-0.36-0.8-0.8-0.8h-3.2v-0.8c0-0.44-0.36-0.8-0.8-0.8c-0.44,0-0.8,0.36-0.8,0.8v0.8h-3.2
			c-0.44,0-0.8,0.36-0.8,0.8c0,0.44,0.36,0.8,0.8,0.8h0.79c0.06,1.12,0.42,3.09,2.02,4.92c-0.79,0.59-1.78,1.13-3.07,1.56
			c-0.42,0.14-0.65,0.6-0.51,1.02c0.11,0.34,0.42,0.55,0.76,0.55c0.08,0,0.17-0.01,0.25-0.04c1.58-0.53,2.8-1.21,3.75-1.96
			c0.95,0.75,2.17,1.43,3.75,1.96c0.08,0.03,0.17,0.04,0.25,0.04c0.34,0,0.65-0.21,0.76-0.55c0.14-0.42-0.09-0.88-0.51-1.02
			c-1.29-0.43-2.28-0.97-3.07-1.55c1.61-1.83,1.97-3.8,2.03-4.92H38.4z M34.39,15.78c-1.29-1.46-1.57-2.99-1.61-3.85h3.24
			C35.97,12.79,35.68,14.32,34.39,15.78z"/>
	</g>
</g>
</svg>
