<!-- Generated by IcoMoon.io -->
<svg version="1.1" xmlns="http://www.w3.org/2000/svg" width="41" height="32" viewBox="0 0 41 32">
<title>quote</title>
<path d="M32.372 32c4.107 0 7.343-3.364 7.343-7.343 0-4.107-2.986-7.1-6.6-7.1-0.871 0-1.621 0.122-2.243 0.25 0.122-6.85 4.235-13.072 10.208-16.935l-0.366-0.871c-4.107 1.865-7.843 4.857-11.329 9.214-3.364 4.357-5.107 8.842-5.107 13.444 0 5.607 3.236 9.342 8.093 9.342zM8.093 32c4.107 0 7.343-3.364 7.343-7.343 0-4.107-2.986-7.1-6.6-7.1-0.871 0-1.621 0.122-2.243 0.25 0.122-6.85 4.235-13.072 10.208-16.935l-0.366-0.871c-4.107 1.865-7.843 4.857-11.329 9.214-3.364 4.357-5.107 8.836-5.107 13.444 0 5.607 3.236 9.342 8.093 9.342z"></path>
</svg>
