<?xml version="1.0" encoding="utf-8"?>
<!-- Generator: Adobe Illustrator 24.1.1, SVG Export Plug-In . SVG Version: 6.00 Build 0)  -->
<svg version="1.1" id="OBJECTS" xmlns="http://www.w3.org/2000/svg" xmlns:xlink="http://www.w3.org/1999/xlink" x="0px" y="0px"
	 viewBox="0 0 140 140" style="enable-background:new 0 0 140 140;" xml:space="preserve">
<style type="text/css">
	.st0{fill-rule:evenodd;clip-rule:evenodd;}
</style>
<g>
	<g>
		<path class="st0" d="M4.84,70c0,35.93,29.23,65.17,65.16,65.17c35.93,0,65.17-29.23,65.17-65.17c0-35.93-29.23-65.17-65.17-65.17
			C34.07,4.83,4.84,34.07,4.84,70z M132.9,70c0,34.68-28.22,62.9-62.9,62.9c-34.68,0-62.9-28.22-62.9-62.9
			C7.1,35.32,35.32,7.1,70,7.1C104.68,7.1,132.9,35.32,132.9,70z M56.4,136.36c-9.14-1.88-17.68-5.59-25.35-11.01
			c-0.51-0.36-1.22-0.24-1.58,0.27c-0.36,0.52-0.24,1.22,0.27,1.58c7.94,5.61,16.75,9.44,26.21,11.38c0.08,0.02,0.15,0.02,0.23,0.02
			c0.52,0,1-0.37,1.11-0.91C57.41,137.08,57.01,136.48,56.4,136.36z M117.38,18.54c-0.46-0.42-1.18-0.39-1.6,0.07
			c-0.42,0.46-0.4,1.17,0.07,1.6c13.92,12.82,21.89,30.97,21.89,49.79c0,3.78-0.32,7.58-0.95,11.29c-0.11,0.62,0.31,1.2,0.93,1.3
			c0.07,0.01,0.13,0.02,0.19,0.02c0.55,0,1.02-0.39,1.12-0.95C139.67,77.83,140,73.9,140,70C140,50.55,131.76,31.79,117.38,18.54z
			 M130.02,103.74c-0.54-0.32-1.23-0.14-1.55,0.4c-1.01,1.73-2.12,3.43-3.28,5.06c-0.36,0.52-0.24,1.22,0.26,1.58
			c0.2,0.15,0.43,0.21,0.66,0.21c0.36,0,0.7-0.17,0.93-0.48c1.2-1.69,2.35-3.45,3.39-5.23
			C130.74,104.75,130.55,104.05,130.02,103.74z M137.13,85.39c-0.59-0.14-1.22,0.23-1.37,0.83c-1.24,5.02-3.06,9.9-5.4,14.49
			c-0.29,0.56-0.07,1.24,0.49,1.53c0.16,0.09,0.34,0.13,0.52,0.13c0.41,0,0.81-0.23,1.01-0.62c2.42-4.74,4.3-9.78,5.59-14.98
			C138.11,86.15,137.74,85.54,137.13,85.39z M120.57,114.98c-12.89,14.46-31.32,22.75-50.57,22.75c-2.47,0-5.01-0.14-7.54-0.42
			c-0.61-0.16-1.18,0.38-1.25,1c-0.07,0.62,0.38,1.18,1,1.25c2.62,0.29,5.24,0.44,7.79,0.44c19.9,0,38.95-8.57,52.26-23.51
			c0.42-0.46,0.38-1.18-0.09-1.6C121.7,114.47,120.98,114.51,120.57,114.98z M39.56,102.13c-0.42,0.46-0.39,1.18,0.08,1.6
			c8.15,7.45,19.22,11.72,30.36,11.72c13.09,0,25.96-5.9,34.45-15.8c0.41-0.48,0.35-1.19-0.13-1.6c-0.47-0.41-1.18-0.35-1.6,0.12
			c-8.06,9.4-20.29,15.01-32.72,15.01c-10.58,0-21.09-4.05-28.84-11.12C40.7,101.63,39.98,101.67,39.56,102.13z M101.63,38.93
			c0.43-0.45,0.42-1.17-0.03-1.6c-8.48-8.12-20-12.78-31.6-12.78c-16.47,0-32.15,9.27-39.94,23.62c-0.3,0.55-0.1,1.23,0.45,1.54
			c0.17,0.09,0.36,0.14,0.54,0.14c0.4,0,0.79-0.21,1-0.59c7.4-13.63,22.3-22.43,37.95-22.43c11.02,0,21.96,4.42,30.03,12.15
			C100.48,39.4,101.2,39.39,101.63,38.93z M77.64,2.7c12.56,1.42,24.45,6.35,34.38,14.25c0.21,0.17,0.46,0.25,0.71,0.25
			c0.33,0,0.66-0.15,0.89-0.43c0.39-0.49,0.31-1.2-0.18-1.59C103.17,7.01,90.88,1.92,77.9,0.45c-0.62-0.13-1.19,0.37-1.26,1
			C76.57,2.07,77.02,2.63,77.64,2.7z M2.27,70c0-9.27,1.86-18.28,5.53-26.76c0.25-0.57-0.02-1.24-0.59-1.49
			c-0.58-0.25-1.24,0.02-1.49,0.59C1.92,51.11,0,60.41,0,70c0,20.01,8.65,39.14,23.75,52.46c0.21,0.19,0.48,0.28,0.75,0.28
			c0.32,0,0.63-0.13,0.85-0.38c0.41-0.47,0.37-1.18-0.1-1.6C10.64,107.87,2.27,89.36,2.27,70z M8.34,39.37
			c0.17,0.09,0.35,0.13,0.53,0.13c0.41,0,0.8-0.22,1.01-0.61c0.48-0.91,0.98-1.82,1.5-2.72c0.31-0.54,0.13-1.24-0.41-1.55
			c-0.54-0.3-1.23-0.12-1.55,0.42c-0.54,0.92-1.05,1.86-1.55,2.81C7.56,38.4,7.78,39.09,8.34,39.37z M14.5,30.45
			c0.35,0,0.69-0.16,0.91-0.46C28.18,12.63,48.59,2.27,70,2.27c0.04,0,0.08,0,0.11,0c0.69,0.05,1.21-0.44,1.22-1.11
			c0.01-0.62-0.55-1.13-1.17-1.15C70.16,0,70.05,0,70,0C47.87,0,26.78,10.71,13.59,28.64c-0.37,0.51-0.26,1.21,0.24,1.59
			C14.03,30.38,14.27,30.45,14.5,30.45z M39.85,110.93c-0.21-0.3-0.46-0.59-0.78-0.84c-0.27-0.22-0.56-0.4-0.87-0.53
			c-0.31-0.13-0.63-0.22-0.95-0.28c-0.32-0.05-0.65-0.05-0.97-0.02c-0.33,0.03-0.65,0.11-0.96,0.22c-0.31,0.12-0.6,0.27-0.87,0.46
			c-0.27,0.2-0.52,0.44-0.74,0.71c-0.22,0.27-0.4,0.56-0.53,0.87c-0.13,0.31-0.23,0.63-0.27,0.95c-0.05,0.32-0.06,0.65-0.02,0.97
			c0.03,0.33,0.11,0.64,0.22,0.95c0.12,0.31,0.27,0.6,0.47,0.88c0.2,0.27,0.43,0.52,0.7,0.74c0.16,0.13,0.32,0.24,0.5,0.36
			c0.18,0.12,0.37,0.22,0.56,0.31c0.19,0.09,0.38,0.17,0.58,0.23c0.19,0.06,0.39,0.1,0.58,0.11c0.11,0.02,0.2-0.01,0.25-0.08
			l1.52-1.88c0.04-0.05,0.05-0.11,0.03-0.17c-0.02-0.07-0.05-0.11-0.09-0.15l-1.06-0.85c-0.06-0.04-0.11-0.06-0.17-0.05
			c-0.05,0.01-0.1,0.04-0.14,0.09l-0.82,1.02c-0.12-0.06-0.22-0.12-0.32-0.18c-0.1-0.05-0.2-0.12-0.29-0.19
			c-0.21-0.18-0.38-0.38-0.49-0.61c-0.11-0.22-0.18-0.46-0.19-0.7c-0.01-0.24,0.02-0.49,0.09-0.73c0.08-0.25,0.21-0.48,0.38-0.69
			c0.17-0.21,0.37-0.38,0.59-0.51c0.23-0.13,0.46-0.21,0.7-0.25c0.24-0.03,0.48-0.02,0.73,0.04c0.24,0.06,0.47,0.18,0.69,0.36
			c0.17,0.13,0.31,0.3,0.42,0.47c0.11,0.17,0.19,0.36,0.25,0.56c0.03,0.09,0.06,0.13,0.11,0.14c0.05,0.01,0.1,0.01,0.17,0l1.36-0.4
			c0.07-0.03,0.12-0.07,0.13-0.13c0.01-0.07,0.01-0.13-0.02-0.19C40.21,111.58,40.06,111.24,39.85,110.93z M89.33,118.79l1.59-0.65
			c0.07-0.03,0.12-0.08,0.14-0.14c0.02-0.07,0.01-0.13-0.01-0.19l-0.47-1.15c-0.03-0.06-0.08-0.11-0.14-0.12
			c-0.05-0.02-0.11-0.01-0.17,0.01l-4.98,2.01c-0.06,0.02-0.11,0.07-0.13,0.12c-0.02,0.05-0.03,0.11,0,0.17l0.47,1.15
			c0.03,0.07,0.07,0.13,0.13,0.15c0.06,0.02,0.12,0.02,0.18-0.01l1.59-0.64l2.05,5.06c0.02,0.06,0.07,0.1,0.13,0.12
			c0.06,0.03,0.12,0.03,0.17,0l1.36-0.55c0.07-0.03,0.11-0.07,0.13-0.13c0.02-0.06,0.02-0.12,0-0.17L89.33,118.79z M100.67,117.74
			c-0.08-0.13-0.18-0.16-0.31-0.09l-2.9,1.67l-0.63-1.1l2.17-1.25c0.06-0.04,0.1-0.08,0.11-0.14c0.01-0.06,0-0.1-0.02-0.15
			l-0.54-0.93c-0.03-0.06-0.08-0.1-0.13-0.1c-0.05-0.01-0.1,0.01-0.16,0.04l-2.17,1.25l-0.61-1.07l2.8-1.62
			c0.06-0.03,0.1-0.09,0.11-0.16c0.01-0.07,0-0.12-0.03-0.17l-0.62-1.07c-0.03-0.06-0.08-0.1-0.14-0.12
			c-0.05-0.02-0.11-0.01-0.18,0.03l-4.29,2.48c-0.06,0.04-0.1,0.08-0.11,0.14c-0.01,0.05,0,0.11,0.03,0.17l3.48,6.03
			c0.04,0.06,0.08,0.1,0.13,0.11c0.05,0.01,0.11-0.01,0.16-0.04l4.38-2.53c0.11-0.06,0.14-0.14,0.11-0.22
			c0.01-0.04,0.01-0.07-0.01-0.1L100.67,117.74z M82.75,119.36c-0.05-0.02-0.12-0.03-0.18-0.02l-1.4,0.27
			c-0.05,0.01-0.09,0.03-0.13,0.08c-0.03,0.04-0.05,0.09-0.05,0.15l0.77,3.92c-0.55-0.59-1.09-1.17-1.63-1.74
			c-0.53-0.57-1.08-1.15-1.62-1.74c-0.05-0.05-0.1-0.08-0.15-0.09c-0.05-0.01-0.1-0.02-0.14-0.01l-1.61,0.32
			c-0.07,0.01-0.12,0.04-0.15,0.09c-0.03,0.05-0.04,0.11-0.03,0.16l1.33,6.85c0.01,0.06,0.04,0.1,0.08,0.14
			c0.04,0.03,0.1,0.05,0.17,0.03l1.39-0.27c0.08-0.02,0.14-0.04,0.17-0.09c0.03-0.05,0.03-0.1,0.02-0.17l-0.82-4.2
			c0.58,0.63,1.15,1.26,1.71,1.88c0.56,0.62,1.13,1.24,1.7,1.88c0.04,0.04,0.09,0.08,0.12,0.1c0.04,0.02,0.08,0.03,0.12,0.02
			l1.56-0.3c0.07-0.01,0.12-0.04,0.15-0.08c0.03-0.04,0.05-0.09,0.03-0.15l-1.34-6.87C82.84,119.44,82.8,119.39,82.75,119.36z
			 M48.63,116.44c-0.01-0.06-0.06-0.11-0.13-0.14l-1.26-0.73c-0.06-0.03-0.12-0.04-0.17-0.03c-0.06,0.01-0.11,0.05-0.13,0.1
			l-2.12,3.67c-0.11,0.19-0.24,0.34-0.38,0.46c-0.14,0.12-0.29,0.19-0.44,0.23c-0.16,0.04-0.31,0.05-0.47,0.04
			c-0.15-0.03-0.31-0.08-0.45-0.17c-0.14-0.08-0.26-0.17-0.36-0.3c-0.1-0.11-0.18-0.25-0.22-0.4c-0.04-0.15-0.05-0.32-0.02-0.5
			c0.03-0.19,0.1-0.38,0.22-0.59l2.12-3.66c0.03-0.06,0.03-0.11,0.01-0.18c-0.03-0.06-0.06-0.11-0.11-0.13l-1.3-0.75
			c-0.05-0.03-0.1-0.04-0.16-0.01c-0.05,0.02-0.1,0.05-0.13,0.1l-2.1,3.64c-0.28,0.49-0.45,0.96-0.5,1.39
			c-0.05,0.42-0.01,0.82,0.12,1.17c0.13,0.35,0.33,0.68,0.61,0.96c0.27,0.29,0.6,0.53,0.96,0.75c0.37,0.21,0.74,0.36,1.12,0.46
			c0.38,0.1,0.76,0.11,1.13,0.05c0.37-0.06,0.73-0.22,1.08-0.48c0.34-0.26,0.67-0.64,0.95-1.14l2.1-3.65
			C48.63,116.56,48.64,116.5,48.63,116.44z M113.96,105.21c-0.1-0.3-0.25-0.59-0.43-0.86c-0.19-0.27-0.41-0.52-0.68-0.75
			c-0.27-0.23-0.56-0.41-0.86-0.54c-0.3-0.14-0.61-0.23-0.93-0.28c-0.32-0.05-0.64-0.06-0.95-0.02c-0.32,0.03-0.63,0.11-0.93,0.22
			c-0.3,0.11-0.59,0.27-0.87,0.46c-0.28,0.19-0.53,0.42-0.75,0.69l-1.58,1.88c-0.05,0.06-0.07,0.11-0.06,0.17
			c0.01,0.06,0.04,0.11,0.09,0.16l5.34,4.48c0.07,0.05,0.12,0.07,0.17,0.05c0.05-0.02,0.09-0.05,0.13-0.1l1.58-1.89
			c0.23-0.26,0.41-0.55,0.55-0.86c0.14-0.3,0.25-0.61,0.31-0.93c0.06-0.32,0.08-0.63,0.06-0.95
			C114.13,105.83,114.06,105.51,113.96,105.21z M112.22,106.99c-0.06,0.23-0.17,0.45-0.31,0.65c-0.04,0.06-0.09,0.12-0.13,0.18
			c-0.05,0.06-0.09,0.11-0.14,0.18l-0.27,0.32l-2.94-2.46l0.42-0.5c0.18-0.21,0.38-0.38,0.61-0.5c0.23-0.13,0.46-0.2,0.71-0.23
			c0.25-0.03,0.49-0.01,0.74,0.06c0.25,0.07,0.48,0.2,0.69,0.38c0.2,0.17,0.36,0.36,0.47,0.57c0.11,0.22,0.18,0.44,0.2,0.67
			C112.3,106.53,112.28,106.76,112.22,106.99z M108.65,113.24l-0.79-0.98c-0.1-0.13-0.2-0.13-0.32-0.04l-2.6,2.11l-0.8-0.99
			l1.94-1.57c0.05-0.04,0.08-0.09,0.08-0.15c0-0.06-0.01-0.1-0.04-0.14l-0.68-0.84c-0.05-0.05-0.09-0.08-0.14-0.07
			c-0.05,0.01-0.1,0.02-0.15,0.07l-1.94,1.57l-0.78-0.96l2.51-2.04c0.06-0.05,0.09-0.1,0.09-0.17c-0.01-0.07-0.02-0.12-0.06-0.16
			l-0.78-0.96c-0.05-0.05-0.1-0.09-0.16-0.1c-0.06-0.01-0.12,0.01-0.17,0.06l-3.85,3.12c-0.05,0.04-0.08,0.1-0.09,0.15
			c0,0.06,0.02,0.12,0.06,0.17l4.39,5.41c0.05,0.06,0.09,0.09,0.15,0.09c0.05,0,0.11-0.02,0.16-0.06l3.92-3.18
			c0.1-0.07,0.12-0.15,0.07-0.24C108.68,113.3,108.67,113.27,108.65,113.24z M64.59,121.44c-0.18-0.25-0.4-0.48-0.67-0.66
			c-0.27-0.18-0.57-0.3-0.91-0.37l-3.16-0.62c-0.07-0.01-0.13,0-0.17,0.03c-0.04,0.04-0.07,0.08-0.09,0.15l-1.33,6.84
			c-0.01,0.07-0.01,0.13,0.03,0.17c0.03,0.04,0.08,0.07,0.15,0.08l1.46,0.28c0.15,0.03,0.24-0.03,0.27-0.17l0.43-2.21l0.79,0.15
			l0.76,2.47c0,0.06,0.02,0.11,0.06,0.15c0.04,0.04,0.08,0.07,0.14,0.08l1.68,0.33c0.05,0.01,0.11,0,0.15-0.01
			c0.04-0.02,0.07-0.06,0.07-0.11c0.01-0.05,0-0.1-0.02-0.17c-0.02-0.07-0.04-0.13-0.06-0.18l-0.8-2.62
			c0.2-0.07,0.38-0.15,0.56-0.27c0.17-0.11,0.34-0.25,0.48-0.4c0.14-0.15,0.26-0.33,0.36-0.52c0.1-0.19,0.17-0.39,0.21-0.61
			c0.06-0.33,0.06-0.65-0.01-0.96C64.89,121.99,64.77,121.7,64.59,121.44z M63,122.9c-0.02,0.11-0.05,0.2-0.11,0.3
			c-0.05,0.09-0.12,0.17-0.19,0.24c-0.08,0.07-0.17,0.13-0.27,0.16c-0.1,0.03-0.21,0.05-0.33,0.04c-0.05-0.01-0.11-0.01-0.15-0.01
			c-0.05-0.01-0.1-0.02-0.16-0.03l-0.9-0.18l0.35-1.8l0.68,0.13c0.09,0.02,0.18,0.04,0.26,0.06c0.08,0.02,0.16,0.04,0.25,0.06
			c0.11,0.04,0.2,0.1,0.28,0.17c0.08,0.08,0.14,0.16,0.19,0.25c0.05,0.09,0.08,0.2,0.1,0.3C63.02,122.7,63.02,122.8,63,122.9z
			 M54.59,118.54c-0.01-0.03-0.03-0.07-0.06-0.12c-0.03-0.05-0.06-0.08-0.12-0.1l-1.21-0.42c-0.03-0.01-0.05-0.01-0.09-0.01
			c-0.03,0-0.07,0.01-0.1,0.02c-0.03,0.01-0.06,0.02-0.08,0.04c-0.02,0.01-0.04,0.03-0.05,0.05l-4.85,5.75
			c-0.05,0.05-0.05,0.1-0.03,0.15c0.03,0.05,0.07,0.08,0.13,0.1l1.39,0.48c0.12,0.05,0.22,0.01,0.3-0.09
			c0.12-0.14,0.23-0.28,0.34-0.42c0.12-0.13,0.23-0.28,0.35-0.41l2.51,0.86c0.01,0.18,0.01,0.36,0.01,0.54
			c0,0.18,0.01,0.36,0.02,0.54c0,0.07,0.02,0.12,0.05,0.16c0.03,0.04,0.08,0.07,0.15,0.1l1.35,0.46c0.09,0.03,0.15,0.03,0.2,0.01
			c0.05-0.03,0.07-0.08,0.07-0.15l-0.28-7.24L54.59,118.54z M53.03,122.73l-1.45-0.5c0.11-0.14,0.24-0.29,0.36-0.46
			c0.12-0.16,0.25-0.33,0.37-0.49c0.13-0.17,0.25-0.33,0.38-0.5c0.12-0.16,0.24-0.32,0.36-0.45L53.03,122.73z M71.3,120.95
			c-0.02-0.03-0.05-0.06-0.09-0.09c-0.04-0.04-0.09-0.05-0.15-0.05l-1.28,0.05c-0.03,0-0.05,0-0.08,0.02
			c-0.03,0.01-0.06,0.03-0.09,0.05c-0.02,0.02-0.05,0.05-0.06,0.07c-0.02,0.03-0.03,0.04-0.03,0.06l-2.47,7.11
			c-0.02,0.07-0.01,0.12,0.03,0.15c0.04,0.03,0.1,0.04,0.16,0.04l1.47-0.05c0.13-0.01,0.21-0.07,0.25-0.19
			c0.06-0.18,0.11-0.35,0.17-0.52c0.06-0.17,0.12-0.34,0.17-0.51l2.65-0.1c0.07,0.17,0.14,0.34,0.21,0.5
			c0.07,0.16,0.14,0.33,0.21,0.49c0.03,0.07,0.06,0.12,0.1,0.14c0.05,0.03,0.1,0.03,0.18,0.03l1.43-0.05c0.09,0,0.15-0.03,0.19-0.07
			c0.03-0.04,0.04-0.1,0.01-0.16l-2.86-6.66L71.3,120.95z M69.81,125.47c0.06-0.17,0.12-0.36,0.18-0.55c0.05-0.2,0.11-0.4,0.17-0.6
			c0.05-0.2,0.11-0.4,0.17-0.6c0.06-0.2,0.12-0.39,0.17-0.56l0.85,2.25L69.81,125.47z M67.63,98.1c0.06-0.16,0.11-0.33,0.14-0.51
			c0.03-0.17,0.03-0.34,0-0.53c-0.03-0.26-0.12-0.49-0.25-0.7c-0.13-0.21-0.3-0.38-0.5-0.51c-0.2-0.13-0.43-0.21-0.68-0.26
			c-0.25-0.05-0.51-0.03-0.78,0.03l-2.56,0.62c-0.06,0.01-0.1,0.04-0.12,0.08c-0.03,0.04-0.04,0.09-0.03,0.14l0.76,5.5
			c0.01,0.06,0.03,0.09,0.07,0.11c0.03,0.02,0.08,0.03,0.13,0.01l1.18-0.29c0.12-0.03,0.17-0.1,0.16-0.21l-0.25-1.78l0.65-0.16
			l1.21,1.56c0.01,0.05,0.05,0.08,0.09,0.09c0.04,0.02,0.08,0.02,0.13,0.01l1.36-0.33c0.05-0.01,0.08-0.03,0.11-0.06
			c0.03-0.03,0.03-0.07,0.03-0.11c-0.01-0.03-0.03-0.07-0.06-0.11c-0.03-0.05-0.07-0.08-0.09-0.12l-1.28-1.65
			c0.13-0.11,0.25-0.25,0.35-0.39C67.47,98.41,67.55,98.26,67.63,98.1z M66.18,97.72c-0.01,0.09-0.04,0.17-0.08,0.24
			c-0.04,0.08-0.09,0.15-0.16,0.21c-0.07,0.06-0.15,0.11-0.24,0.14c-0.04,0.01-0.08,0.03-0.12,0.04c-0.04,0.02-0.08,0.03-0.13,0.03
			l-0.73,0.17l-0.2-1.44l0.55-0.13c0.07-0.02,0.15-0.03,0.21-0.05c0.07-0.01,0.14-0.03,0.21-0.03c0.09-0.01,0.18,0,0.26,0.02
			c0.08,0.03,0.15,0.07,0.21,0.12c0.06,0.05,0.11,0.12,0.15,0.19c0.04,0.07,0.06,0.14,0.07,0.22C66.2,97.55,66.19,97.63,66.18,97.72
			z M100.77,88.39c0.03-0.05,0.04-0.1,0.03-0.15l-0.13-0.98c-0.01-0.06-0.04-0.09-0.08-0.11c-0.04-0.02-0.09-0.02-0.13-0.01
			l-4.26,1.04c-0.05,0.01-0.09,0.04-0.13,0.08c-0.03,0.04-0.04,0.08-0.03,0.13l0.13,0.98c0.01,0.06,0.04,0.11,0.08,0.13
			c0.04,0.03,0.09,0.03,0.14,0.02l1.36-0.33l0.6,4.3c0.01,0.05,0.03,0.09,0.08,0.12c0.04,0.03,0.09,0.03,0.13,0.02l1.16-0.28
			c0.05-0.01,0.09-0.04,0.13-0.09c0.03-0.05,0.04-0.09,0.03-0.14l-0.59-4.3l1.37-0.34C100.69,88.47,100.74,88.43,100.77,88.39z
			 M69.8,99.19c0.16,0.19,0.35,0.35,0.56,0.49c0.21,0.14,0.43,0.25,0.68,0.33c0.24,0.07,0.5,0.12,0.76,0.13
			c0.27,0.01,0.54-0.02,0.82-0.09c0.28-0.07,0.54-0.17,0.79-0.3c0.25-0.13,0.48-0.29,0.68-0.48c0.21-0.18,0.39-0.39,0.55-0.62
			c0.16-0.23,0.29-0.47,0.39-0.72c0.1-0.26,0.17-0.52,0.21-0.79c0.04-0.27,0.04-0.55,0-0.83c-0.04-0.28-0.11-0.54-0.22-0.77
			c-0.11-0.24-0.24-0.45-0.4-0.65c-0.16-0.19-0.35-0.36-0.56-0.5c-0.21-0.14-0.44-0.24-0.68-0.32c-0.24-0.08-0.5-0.12-0.77-0.13
			c-0.27-0.01-0.54,0.02-0.82,0.09c-0.28,0.07-0.55,0.17-0.79,0.31c-0.25,0.13-0.48,0.29-0.68,0.48c-0.21,0.18-0.39,0.39-0.55,0.62
			c-0.16,0.23-0.29,0.47-0.39,0.73c-0.1,0.26-0.17,0.52-0.21,0.8c-0.03,0.27-0.03,0.55,0.01,0.83c0.03,0.28,0.11,0.53,0.22,0.77
			C69.51,98.78,69.64,99,69.8,99.19z M70.74,96.76c0.05-0.2,0.13-0.4,0.24-0.57c0.11-0.18,0.26-0.33,0.43-0.45
			c0.17-0.13,0.36-0.21,0.58-0.27c0.22-0.05,0.43-0.06,0.63-0.02c0.19,0.03,0.37,0.1,0.52,0.21c0.15,0.11,0.28,0.25,0.38,0.42
			c0.1,0.17,0.17,0.37,0.19,0.58c0.03,0.22,0.03,0.43-0.02,0.64c-0.05,0.21-0.13,0.4-0.24,0.57c-0.11,0.17-0.26,0.32-0.43,0.44
			c-0.17,0.13-0.37,0.22-0.59,0.27c-0.22,0.05-0.42,0.06-0.62,0.03c-0.19-0.04-0.36-0.11-0.52-0.22c-0.15-0.1-0.28-0.24-0.38-0.42
			c-0.1-0.17-0.17-0.36-0.2-0.58C70.68,97.18,70.69,96.97,70.74,96.76z M61.42,98.12c-0.06-0.14-0.14-0.28-0.24-0.4
			c-0.09-0.12-0.2-0.23-0.33-0.32c-0.12-0.1-0.26-0.17-0.4-0.22c-0.15-0.06-0.31-0.09-0.47-0.1c-0.17-0.01-0.34,0.01-0.52,0.05
			l-2.53,0.62c-0.06,0.01-0.1,0.03-0.13,0.08c-0.03,0.04-0.03,0.09-0.03,0.14l0.76,5.49c0.01,0.06,0.03,0.1,0.07,0.12
			c0.03,0.02,0.08,0.02,0.13,0.01l1.17-0.29c0.12-0.03,0.18-0.1,0.16-0.21l-0.26-1.88l1.2-0.29c0.27-0.07,0.5-0.19,0.71-0.35
			c0.21-0.16,0.38-0.35,0.51-0.56c0.14-0.21,0.23-0.45,0.29-0.69c0.05-0.25,0.06-0.49,0.03-0.73
			C61.52,98.42,61.48,98.27,61.42,98.12z M59.98,99.21c-0.02,0.08-0.05,0.16-0.09,0.24c-0.04,0.07-0.1,0.14-0.17,0.19
			c-0.07,0.06-0.15,0.1-0.25,0.12l-0.84,0.2l-0.18-1.31l0.84-0.2c0.1-0.02,0.19-0.02,0.26-0.01c0.08,0.02,0.15,0.06,0.21,0.11
			c0.06,0.05,0.11,0.1,0.15,0.18c0.04,0.08,0.06,0.15,0.07,0.23C60,99.03,60,99.12,59.98,99.21z M92.02,91.07
			c0.11-0.18,0.25-0.32,0.42-0.45c0.17-0.13,0.36-0.22,0.58-0.27c0.17-0.04,0.34-0.05,0.5-0.04c0.16,0.02,0.32,0.06,0.46,0.12
			c0.05,0.01,0.09,0.01,0.13,0c0.03-0.01,0.06-0.05,0.08-0.09l0.54-1.11c0.02-0.07,0.02-0.12-0.01-0.15
			c-0.03-0.03-0.07-0.07-0.11-0.08c-0.27-0.1-0.55-0.17-0.85-0.19c-0.29-0.01-0.6,0.01-0.91,0.09c-0.28,0.07-0.54,0.17-0.79,0.3
			c-0.25,0.13-0.48,0.3-0.68,0.48c-0.21,0.18-0.39,0.39-0.55,0.62c-0.16,0.22-0.29,0.47-0.39,0.73c-0.1,0.25-0.17,0.52-0.2,0.79
			c-0.04,0.28-0.04,0.56,0,0.83c0.04,0.28,0.11,0.54,0.22,0.77c0.11,0.24,0.24,0.45,0.4,0.64c0.17,0.19,0.35,0.35,0.56,0.49
			c0.21,0.13,0.43,0.24,0.67,0.32c0.24,0.08,0.5,0.12,0.77,0.13c0.27,0.01,0.54-0.02,0.82-0.09c0.32-0.07,0.61-0.19,0.88-0.36
			c0.28-0.16,0.52-0.35,0.75-0.57c0.04-0.04,0.07-0.08,0.09-0.13c0.01-0.04,0-0.09-0.03-0.14l-0.81-0.8
			c-0.04-0.04-0.07-0.05-0.1-0.05c-0.03,0-0.07,0.02-0.11,0.06c-0.11,0.13-0.25,0.24-0.4,0.33c-0.15,0.09-0.32,0.16-0.49,0.2
			c-0.22,0.05-0.42,0.06-0.61,0.03c-0.19-0.04-0.37-0.12-0.52-0.22c-0.15-0.11-0.28-0.25-0.38-0.42c-0.1-0.17-0.17-0.36-0.2-0.58
			c-0.03-0.21-0.02-0.43,0.03-0.63C91.83,91.43,91.91,91.24,92.02,91.07z M77.4,98.79l1.95-0.48c0.28-0.07,0.54-0.17,0.79-0.29
			c0.25-0.14,0.48-0.29,0.68-0.46c0.21-0.18,0.39-0.38,0.55-0.6c0.16-0.22,0.29-0.45,0.39-0.7c0.1-0.25,0.17-0.51,0.21-0.77
			c0.03-0.26,0.03-0.54-0.01-0.82c-0.04-0.27-0.11-0.53-0.22-0.77c-0.11-0.23-0.24-0.44-0.4-0.63c-0.16-0.18-0.35-0.34-0.56-0.47
			c-0.21-0.13-0.43-0.23-0.67-0.31c-0.24-0.07-0.5-0.11-0.76-0.11c-0.27-0.01-0.54,0.02-0.82,0.09l-1.95,0.48
			c-0.06,0.02-0.1,0.04-0.13,0.08c-0.02,0.05-0.03,0.09-0.03,0.15l0.76,5.5c0.01,0.07,0.03,0.11,0.07,0.12
			C77.3,98.8,77.35,98.8,77.4,98.79z M78.65,93.89c0.22-0.05,0.43-0.06,0.63-0.04c0.2,0.03,0.38,0.09,0.55,0.2
			c0.16,0.1,0.3,0.23,0.4,0.4c0.11,0.16,0.18,0.36,0.21,0.58c0.03,0.2,0.02,0.41-0.03,0.6c-0.05,0.2-0.13,0.37-0.24,0.53
			c-0.11,0.16-0.24,0.31-0.4,0.43c-0.16,0.12-0.34,0.21-0.54,0.28c-0.05,0.01-0.11,0.03-0.17,0.05c-0.06,0.01-0.11,0.04-0.18,0.05
			l-0.33,0.08l-0.42-3.02L78.65,93.89z M87.03,94.85c-0.07,0.11-0.17,0.21-0.28,0.28c-0.11,0.08-0.23,0.13-0.37,0.16
			c-0.12,0.03-0.25,0.04-0.37,0.03c-0.12-0.01-0.24-0.05-0.34-0.11c-0.1-0.07-0.19-0.16-0.26-0.29c-0.07-0.11-0.13-0.27-0.15-0.47
			l-0.46-3.34c-0.01-0.05-0.03-0.09-0.08-0.11c-0.05-0.03-0.1-0.03-0.13-0.01l-1.19,0.28c-0.04,0.01-0.08,0.04-0.1,0.08
			c-0.03,0.04-0.04,0.09-0.03,0.13l0.46,3.32c0.06,0.45,0.18,0.81,0.36,1.09c0.18,0.28,0.4,0.49,0.65,0.63
			c0.26,0.14,0.54,0.21,0.86,0.22c0.32,0.01,0.64-0.03,0.97-0.11c0.34-0.08,0.65-0.2,0.94-0.36c0.29-0.15,0.54-0.36,0.74-0.6
			c0.2-0.24,0.35-0.54,0.45-0.88c0.09-0.34,0.11-0.75,0.04-1.21l-0.46-3.32c-0.01-0.05-0.03-0.08-0.07-0.11
			c-0.04-0.03-0.09-0.03-0.15-0.02l-1.16,0.28c-0.05,0.01-0.1,0.04-0.12,0.09c-0.03,0.04-0.04,0.09-0.04,0.14l0.46,3.33
			c0.02,0.18,0.02,0.34-0.01,0.48C87.16,94.61,87.11,94.74,87.03,94.85z M69.12,14.39c-0.17,0.29-0.29,0.59-0.38,0.92
			c-0.09,0.32-0.13,0.66-0.13,1.01c0,0.35,0.05,0.69,0.13,1.01c0.09,0.32,0.22,0.63,0.38,0.91c0.17,0.28,0.37,0.54,0.6,0.77
			c0.23,0.23,0.49,0.43,0.77,0.6c0.28,0.17,0.59,0.3,0.91,0.39c0.32,0.09,0.66,0.13,1.01,0.13c0.4,0,0.78-0.06,1.14-0.17
			c0.36-0.11,0.7-0.27,1.01-0.48c0.06-0.03,0.1-0.07,0.13-0.12c0.03-0.05,0.02-0.12-0.01-0.19l-0.85-1.23
			c-0.04-0.05-0.08-0.08-0.12-0.09c-0.04,0-0.09,0.01-0.15,0.04c-0.16,0.12-0.34,0.22-0.54,0.29c-0.2,0.07-0.41,0.1-0.63,0.1
			c-0.28,0-0.52-0.05-0.75-0.15c-0.23-0.11-0.43-0.25-0.6-0.43c-0.17-0.18-0.3-0.38-0.39-0.62c-0.09-0.24-0.14-0.5-0.14-0.77
			c0-0.27,0.05-0.53,0.14-0.77c0.09-0.24,0.22-0.45,0.39-0.63c0.17-0.18,0.37-0.32,0.6-0.42c0.23-0.11,0.48-0.16,0.75-0.16
			c0.22,0,0.43,0.04,0.62,0.1c0.2,0.07,0.38,0.16,0.54,0.28c0.06,0.04,0.11,0.05,0.16,0.04c0.04-0.01,0.08-0.04,0.11-0.09l0.84-1.2
			c0.04-0.07,0.04-0.13,0.02-0.19c-0.03-0.05-0.07-0.1-0.13-0.13c-0.31-0.21-0.65-0.37-1-0.48c-0.36-0.12-0.73-0.17-1.13-0.17
			c-0.35,0-0.69,0.04-1.01,0.14c-0.32,0.09-0.63,0.22-0.91,0.38c-0.28,0.16-0.54,0.36-0.77,0.6C69.48,13.85,69.28,14.1,69.12,14.39z
			 M92.53,24.89c0.17,0.28,0.37,0.54,0.61,0.78c0.24,0.24,0.51,0.44,0.82,0.61c0.3,0.17,0.62,0.29,0.95,0.37
			c0.33,0.08,0.66,0.12,0.99,0.11c0.33-0.01,0.65-0.06,0.97-0.15c0.32-0.08,0.62-0.22,0.89-0.38c0.28-0.16,0.54-0.37,0.78-0.61
			c0.24-0.24,0.44-0.51,0.61-0.82c0.17-0.31,0.3-0.63,0.37-0.95c0.08-0.33,0.11-0.66,0.11-0.99c-0.01-0.33-0.05-0.65-0.15-0.97
			c-0.09-0.32-0.22-0.62-0.39-0.89c-0.17-0.28-0.37-0.54-0.61-0.78c-0.24-0.24-0.51-0.44-0.82-0.61c-0.31-0.17-0.63-0.3-0.95-0.37
			c-0.33-0.08-0.65-0.11-0.98-0.11c-0.32,0.01-0.65,0.06-0.96,0.15c-0.32,0.09-0.61,0.22-0.9,0.39c-0.28,0.16-0.54,0.37-0.78,0.61
			c-0.24,0.24-0.44,0.51-0.61,0.82c-0.17,0.31-0.3,0.62-0.38,0.95c-0.08,0.32-0.11,0.65-0.1,0.98c0.01,0.33,0.06,0.65,0.15,0.96
			C92.24,24.31,92.37,24.6,92.53,24.89z M93.91,22.77c0.03-0.25,0.12-0.5,0.25-0.74c0.13-0.23,0.3-0.44,0.5-0.61
			c0.2-0.16,0.41-0.28,0.65-0.36c0.23-0.07,0.47-0.1,0.73-0.08c0.25,0.02,0.49,0.1,0.74,0.23c0.24,0.13,0.44,0.3,0.59,0.5
			c0.15,0.2,0.26,0.43,0.32,0.67c0.06,0.24,0.07,0.48,0.04,0.74c-0.04,0.26-0.12,0.5-0.25,0.74c-0.13,0.24-0.3,0.45-0.5,0.61
			c-0.2,0.17-0.41,0.28-0.64,0.36c-0.23,0.07-0.48,0.1-0.73,0.07c-0.25-0.03-0.5-0.1-0.74-0.24c-0.24-0.13-0.44-0.3-0.59-0.5
			c-0.15-0.2-0.26-0.42-0.32-0.66C93.89,23.27,93.88,23.02,93.91,22.77z M78.74,14.88l1.68,0.36l-1.14,5.34
			c-0.01,0.06,0,0.12,0.04,0.18c0.04,0.05,0.09,0.09,0.14,0.1l1.43,0.31c0.07,0.01,0.13,0,0.18-0.04c0.05-0.04,0.08-0.08,0.1-0.14
			l1.14-5.34L84,16c0.08,0.01,0.14,0,0.19-0.04c0.05-0.04,0.09-0.1,0.1-0.16l0.26-1.21c0.01-0.07,0-0.13-0.04-0.18
			c-0.04-0.04-0.09-0.07-0.14-0.09L79.1,13.2c-0.07-0.01-0.13,0-0.18,0.03c-0.05,0.03-0.08,0.07-0.1,0.14l-0.26,1.21
			c-0.01,0.08,0,0.15,0.03,0.2C78.62,14.83,78.67,14.86,78.74,14.88z M101.09,30.88c0.07,0.05,0.13,0.08,0.17,0.07
			c0.05-0.01,0.1-0.04,0.14-0.09l2.76-3.28c-0.13,0.85-0.26,1.68-0.38,2.51c-0.13,0.82-0.26,1.66-0.39,2.51
			c-0.01,0.06-0.01,0.11,0,0.16c0.01,0.04,0.03,0.08,0.06,0.11l1.22,1.02c0.06,0.05,0.11,0.07,0.16,0.07c0.05,0,0.1-0.02,0.14-0.07
			l4.5-5.36c0.05-0.05,0.06-0.11,0.05-0.17c-0.01-0.06-0.04-0.11-0.1-0.15l-1.09-0.92c-0.04-0.04-0.09-0.05-0.14-0.05
			c-0.05,0-0.1,0.02-0.15,0.05l-2.57,3.06c0.11-0.79,0.22-1.58,0.33-2.36c0.11-0.77,0.22-1.55,0.33-2.35c0.01-0.07,0-0.13-0.02-0.18
			c-0.02-0.05-0.05-0.09-0.09-0.12l-1.25-1.05c-0.06-0.04-0.12-0.07-0.17-0.05c-0.06,0.01-0.11,0.04-0.14,0.08l-4.49,5.34
			c-0.04,0.05-0.06,0.1-0.06,0.15c0,0.05,0.03,0.1,0.09,0.16L101.09,30.88z M87.49,23.19c0.16,0.05,0.26,0,0.3-0.13l2.15-6.63
			c0.02-0.06,0.01-0.12-0.03-0.18c-0.04-0.05-0.09-0.09-0.13-0.11l-1.39-0.45c-0.07-0.02-0.13-0.02-0.17,0.01
			c-0.05,0.03-0.08,0.07-0.1,0.13l-2.15,6.63c-0.05,0.14,0,0.23,0.14,0.28L87.49,23.19z M59.62,20.97l1.46-0.18
			c0.13-0.02,0.2-0.09,0.23-0.22c0.05-0.18,0.09-0.35,0.13-0.53c0.05-0.17,0.09-0.35,0.13-0.52l2.63-0.33
			c0.08,0.16,0.17,0.32,0.25,0.48c0.08,0.16,0.17,0.31,0.26,0.48c0.03,0.07,0.07,0.11,0.12,0.13c0.04,0.02,0.1,0.03,0.18,0.02
			l1.42-0.18c0.09-0.01,0.15-0.04,0.18-0.08c0.03-0.04,0.03-0.1-0.01-0.16l-3.42-6.39l-0.16-0.26c-0.02-0.03-0.05-0.05-0.1-0.08
			c-0.04-0.03-0.09-0.04-0.15-0.03l-1.27,0.15c-0.03,0.01-0.05,0.01-0.08,0.03c-0.03,0.02-0.05,0.04-0.08,0.06
			c-0.03,0.02-0.04,0.05-0.06,0.07c-0.02,0.03-0.03,0.05-0.03,0.07l-1.84,7.29c-0.02,0.07,0,0.12,0.04,0.14
			C59.5,20.97,59.55,20.98,59.62,20.97z M62.05,17.3c0.04-0.2,0.08-0.4,0.11-0.61c0.04-0.21,0.08-0.41,0.12-0.61
			c0.05-0.2,0.09-0.39,0.13-0.57l1.04,2.17l-1.52,0.19C61.97,17.69,62.01,17.5,62.05,17.3z M42.97,22.41c0.2,0.17,0.43,0.3,0.7,0.38
			c0.26,0.09,0.57,0.13,0.91,0.14c0.34,0.01,0.72-0.02,1.14-0.07c0.09-0.02,0.2-0.03,0.33-0.05c0.13-0.01,0.26-0.02,0.39-0.01
			c0.13,0,0.25,0.02,0.36,0.06c0.1,0.04,0.18,0.1,0.23,0.2c0.04,0.08,0.07,0.17,0.08,0.25c0.01,0.08,0,0.17-0.03,0.26
			c-0.03,0.09-0.09,0.17-0.17,0.26c-0.08,0.09-0.2,0.17-0.35,0.25c-0.16,0.08-0.34,0.13-0.51,0.15c-0.17,0.02-0.37,0.02-0.57,0
			c-0.13-0.02-0.26-0.04-0.37-0.07c-0.11-0.03-0.21-0.05-0.28-0.07c-0.06-0.02-0.11-0.03-0.15-0.03c-0.04,0-0.07,0-0.09,0.01
			c-0.04,0.02-0.08,0.07-0.12,0.15l-0.39,1.12c-0.04,0.1-0.05,0.17-0.02,0.22c0.02,0.04,0.09,0.09,0.19,0.12c0.01,0,0.01,0,0.01,0
			c0.01,0,0.01,0.01,0.02,0.01c0,0,0.01,0,0.01,0c0,0,0.01,0,0.01,0.01l0.02,0.01c0.07,0.03,0.17,0.06,0.3,0.1
			c0.13,0.04,0.26,0.08,0.43,0.1c0.39,0.06,0.78,0.07,1.17,0.02c0.39-0.04,0.76-0.15,1.1-0.33c0.36-0.18,0.67-0.41,0.93-0.67
			c0.26-0.26,0.46-0.55,0.6-0.85c0.14-0.31,0.2-0.63,0.2-0.96c0-0.34-0.08-0.66-0.25-0.99c-0.16-0.31-0.34-0.54-0.56-0.7
			c-0.22-0.16-0.47-0.28-0.74-0.33c-0.27-0.06-0.57-0.08-0.9-0.06c-0.32,0.02-0.67,0.06-1.04,0.12c-0.19,0.03-0.36,0.05-0.5,0.07
			c-0.15,0.02-0.27,0.02-0.38,0.01c-0.11-0.01-0.2-0.03-0.27-0.07c-0.07-0.04-0.13-0.1-0.17-0.18c-0.04-0.08-0.06-0.17-0.05-0.24
			c0.01-0.08,0.04-0.15,0.08-0.22c0.05-0.07,0.11-0.13,0.19-0.19c0.07-0.06,0.16-0.11,0.26-0.16c0.09-0.05,0.19-0.08,0.3-0.1
			c0.11-0.02,0.21-0.03,0.32-0.03c0.1,0,0.21,0.01,0.31,0.03c0.1,0.02,0.19,0.03,0.28,0.05l0.06,0.02c0.06,0.01,0.11,0.02,0.16,0.03
			c0.05,0.01,0.09,0,0.13-0.02c0.05-0.03,0.09-0.08,0.11-0.15l0.31-1.07c0.02-0.06,0.03-0.11,0.03-0.16c0-0.04-0.01-0.08-0.02-0.12
			c-0.02-0.04-0.06-0.07-0.13-0.11c-0.07-0.03-0.15-0.06-0.25-0.08c-0.1-0.03-0.21-0.04-0.33-0.07c-0.13-0.02-0.25-0.03-0.38-0.04
			c-0.31-0.01-0.6,0.02-0.88,0.08c-0.28,0.07-0.55,0.17-0.82,0.31c-0.36,0.18-0.66,0.39-0.91,0.62c-0.24,0.24-0.43,0.49-0.55,0.75
			c-0.12,0.27-0.18,0.54-0.18,0.82c0.01,0.29,0.07,0.56,0.22,0.84C42.61,22.03,42.77,22.25,42.97,22.41z M52.9,22.99l1.45-0.47
			c0.14-0.04,0.19-0.14,0.15-0.28l-0.71-2.17l2.14-0.69c0.06-0.02,0.1-0.06,0.13-0.12c0.01-0.06,0.02-0.12,0-0.17l-0.37-1.14
			c-0.02-0.07-0.06-0.12-0.11-0.14c-0.05-0.02-0.11-0.02-0.17,0l-2.13,0.69l-0.48-1.47l2.89-0.93c0.07-0.03,0.12-0.07,0.14-0.13
			c0.02-0.07,0.02-0.12,0-0.17l-0.38-1.18c-0.02-0.07-0.06-0.12-0.11-0.15c-0.05-0.03-0.11-0.03-0.18-0.01l-4.54,1.48
			c-0.05,0.02-0.09,0.05-0.11,0.1c-0.02,0.05-0.03,0.11,0,0.18l2.15,6.63C52.71,22.97,52.79,23.01,52.9,22.99z M29.85,31.06
			c0.06,0.06,0.12,0.09,0.18,0.1c0.06,0,0.12-0.02,0.17-0.07l1.26-1.17l3.72,4c0.04,0.04,0.1,0.07,0.17,0.07
			c0.07,0,0.12-0.02,0.16-0.06l1.07-1c0.05-0.04,0.07-0.1,0.07-0.17c0-0.06-0.02-0.12-0.06-0.16l-3.72-4l1.26-1.17
			c0.06-0.05,0.08-0.11,0.08-0.18c-0.01-0.07-0.03-0.12-0.07-0.17l-0.85-0.91c-0.05-0.05-0.11-0.07-0.17-0.07
			c-0.06,0.01-0.11,0.03-0.16,0.07l-3.93,3.66c-0.05,0.04-0.08,0.1-0.08,0.16c-0.01,0.06,0.02,0.12,0.06,0.16L29.85,31.06z
			 M24.63,35.16l3.75,6.52c0.03,0.06,0.08,0.08,0.13,0.07c0.05-0.01,0.1-0.04,0.14-0.09l0.93-1.14c0.08-0.1,0.09-0.2,0.02-0.31
			c-0.09-0.16-0.18-0.31-0.27-0.47c-0.09-0.16-0.18-0.32-0.27-0.47l1.67-2.06c0.17,0.06,0.34,0.11,0.51,0.17
			c0.17,0.06,0.34,0.11,0.52,0.17c0.06,0.02,0.12,0.03,0.17,0.01c0.05-0.01,0.1-0.05,0.15-0.11l0.9-1.11
			c0.06-0.07,0.08-0.14,0.07-0.19c-0.01-0.05-0.05-0.09-0.12-0.11l-6.9-2.22l-0.3-0.08c-0.03,0-0.08,0-0.13,0.01
			c-0.05,0-0.1,0.03-0.13,0.07l-0.8,0.99c-0.02,0.02-0.03,0.05-0.04,0.08c-0.01,0.03-0.02,0.06-0.02,0.1c0,0.03,0,0.06,0.01,0.09
			C24.61,35.12,24.62,35.14,24.63,35.16z M29.11,36.64l-0.97,1.19c-0.09-0.16-0.19-0.32-0.3-0.5c-0.11-0.17-0.22-0.34-0.34-0.52
			c-0.11-0.17-0.23-0.35-0.34-0.52c-0.11-0.18-0.21-0.34-0.31-0.5L29.11,36.64z M40.53,29.45c0.09,0.11,0.19,0.13,0.31,0.05
			l1.2-0.84c0.13-0.1,0.16-0.2,0.08-0.32l-4-5.71c-0.04-0.05-0.09-0.08-0.16-0.08c-0.07,0-0.12,0.01-0.16,0.05l-1.2,0.84
			c-0.06,0.04-0.09,0.09-0.1,0.15c0,0.06,0.01,0.11,0.04,0.15L40.53,29.45z M19.12,45.59c0.16,0.23,0.38,0.42,0.66,0.56
			c0.26,0.14,0.51,0.22,0.77,0.24c0.26,0.03,0.52,0,0.79-0.09c0.27-0.08,0.54-0.22,0.83-0.41c0.28-0.19,0.58-0.42,0.89-0.71
			c0.07-0.07,0.15-0.14,0.25-0.23c0.1-0.09,0.2-0.17,0.31-0.24c0.11-0.07,0.22-0.12,0.33-0.15c0.11-0.03,0.21-0.02,0.3,0.03
			c0.08,0.04,0.16,0.1,0.22,0.16c0.06,0.06,0.1,0.14,0.13,0.23c0.02,0.09,0.02,0.19,0,0.31c-0.02,0.12-0.07,0.26-0.15,0.41
			c-0.08,0.16-0.19,0.3-0.33,0.42c-0.13,0.12-0.29,0.22-0.47,0.32c-0.12,0.07-0.24,0.12-0.35,0.16c-0.11,0.04-0.2,0.08-0.27,0.1
			c-0.06,0.02-0.1,0.04-0.14,0.07c-0.03,0.02-0.05,0.04-0.07,0.07c-0.02,0.04-0.02,0.1-0.01,0.19l0.32,1.15
			c0.02,0.1,0.06,0.16,0.11,0.19c0.04,0.02,0.12,0.02,0.23,0c0-0.01,0.01-0.01,0.01-0.01c0,0,0.01,0,0.02,0c0,0,0,0,0.01-0.01
			c0,0,0.01,0,0.02,0l0.02-0.01c0.08-0.02,0.18-0.05,0.3-0.09c0.12-0.04,0.26-0.09,0.41-0.16c0.35-0.18,0.68-0.39,0.97-0.66
			c0.3-0.26,0.53-0.56,0.71-0.9c0.19-0.36,0.32-0.72,0.38-1.09c0.06-0.36,0.06-0.71,0.01-1.04c-0.07-0.33-0.19-0.63-0.38-0.9
			c-0.2-0.28-0.45-0.5-0.78-0.67c-0.3-0.17-0.59-0.25-0.86-0.26c-0.27-0.01-0.54,0.04-0.79,0.15c-0.26,0.11-0.51,0.27-0.76,0.47
			c-0.25,0.2-0.51,0.43-0.78,0.69c-0.14,0.13-0.26,0.25-0.37,0.34c-0.11,0.1-0.21,0.17-0.31,0.23c-0.1,0.05-0.19,0.08-0.27,0.09
			c-0.08,0.01-0.16-0.01-0.25-0.05c-0.08-0.04-0.14-0.1-0.18-0.17c-0.04-0.07-0.05-0.15-0.06-0.23c0-0.08,0.01-0.17,0.04-0.27
			c0.03-0.09,0.07-0.19,0.12-0.28c0.05-0.1,0.11-0.18,0.19-0.26c0.08-0.08,0.16-0.14,0.25-0.2c0.09-0.06,0.17-0.12,0.27-0.16
			c0.09-0.04,0.18-0.08,0.26-0.12l0.06-0.02c0.06-0.02,0.11-0.04,0.15-0.06c0.04-0.02,0.07-0.05,0.1-0.1
			c0.03-0.05,0.03-0.11,0.01-0.19l-0.36-1.06c-0.02-0.06-0.04-0.11-0.06-0.15c-0.02-0.03-0.05-0.06-0.09-0.08
			c-0.04-0.02-0.09-0.03-0.17-0.02c-0.08,0.01-0.16,0.04-0.26,0.08c-0.09,0.04-0.2,0.08-0.31,0.14c-0.11,0.06-0.22,0.12-0.33,0.19
			c-0.26,0.17-0.48,0.36-0.67,0.57c-0.19,0.21-0.36,0.46-0.5,0.72c-0.19,0.35-0.32,0.7-0.39,1.04c-0.07,0.33-0.07,0.64-0.02,0.93
			C18.85,45.11,18.96,45.37,19.12,45.59z M45.03,43.22l-1.19-2.13l-0.29,2.42l-2.39,0.47l2.21,1.03l-0.29,2.42l1.66-1.79l2.22,1.03
			l-1.19-2.14l1.66-1.79L45.03,43.22z M85.34,35.28l-1.19-2.13l-0.29,2.43l-2.4,0.47l2.22,1.03l-0.29,2.43l1.66-1.79l2.22,1.02
			l-1.19-2.13l1.66-1.8L85.34,35.28z M54.82,40.7L57,38.35l-3.15,0.63l-1.56-2.8l-0.38,3.19l-3.15,0.62l2.91,1.35l-0.38,3.19
			l2.18-2.36l2.91,1.35L54.82,40.7z M75.64,37.78l2.91,1.35l-1.56-2.8l2.18-2.35l-3.15,0.62l-1.56-2.8l-0.38,3.19l-3.15,0.62
			l2.91,1.35l-0.38,3.18L75.64,37.78z M68.25,40.59l-2.04-3.66l2.85-3.07l-4.11,0.81l-2.04-3.66l-0.5,4.17l-4.11,0.81l3.8,1.76
			l-0.5,4.16l2.85-3.08L68.25,40.59z M74.62,50.57c0.19,0.15,0.42,0.26,0.68,0.31c0.26,0.06,0.53,0.05,0.81-0.02
			c0.29-0.07,0.55-0.19,0.79-0.37c0.25-0.18,0.46-0.39,0.64-0.63c0.18-0.24,0.32-0.51,0.41-0.82c0.09-0.3,0.13-0.6,0.12-0.9
			c-0.01-0.31-0.08-0.59-0.2-0.83c-0.12-0.24-0.28-0.44-0.48-0.6c-0.2-0.16-0.42-0.26-0.68-0.32c-0.26-0.05-0.52-0.04-0.81,0.02
			c-0.29,0.07-0.55,0.19-0.8,0.37c-0.25,0.17-0.46,0.39-0.63,0.63c-0.18,0.25-0.32,0.52-0.41,0.82c-0.09,0.3-0.13,0.6-0.12,0.91
			c0.01,0.31,0.08,0.59,0.2,0.83C74.26,50.22,74.42,50.42,74.62,50.57z M75.41,48.51c0.03-0.09,0.07-0.17,0.12-0.25
			c0.06-0.07,0.12-0.13,0.19-0.18c0.07-0.05,0.15-0.08,0.25-0.11c0.09-0.02,0.17-0.02,0.25-0.01c0.08,0.02,0.15,0.05,0.2,0.09
			c0.06,0.05,0.11,0.11,0.14,0.18c0.03,0.07,0.06,0.16,0.06,0.25c0,0.1-0.01,0.19-0.03,0.28c-0.03,0.09-0.07,0.18-0.12,0.25
			c-0.05,0.07-0.12,0.14-0.19,0.19c-0.08,0.05-0.16,0.09-0.24,0.11c-0.18,0.04-0.34,0.02-0.46-0.08c-0.13-0.1-0.19-0.25-0.2-0.44
			C75.38,48.7,75.39,48.6,75.41,48.51z M54.11,51.88l-1.21,0.29c-0.14,0.04-0.26,0.07-0.34,0.1c-0.09,0.03-0.18,0.09-0.27,0.18
			l-0.71,0.56c-0.15,0.13-0.23,0.27-0.21,0.41l0.06,1.25c0,0.08,0.03,0.13,0.07,0.18c0.04,0.05,0.09,0.06,0.16,0.05
			c0.01-0.02,0.02-0.03,0.04-0.03c0.02,0,0.03-0.01,0.05-0.02l0.72-0.57l0.3,6.37c0,0.06,0.03,0.11,0.06,0.15
			c0.04,0.04,0.1,0.06,0.19,0.03l1.53-0.37c0.17-0.03,0.25-0.14,0.24-0.31l-0.38-8.08c-0.01-0.07-0.03-0.13-0.08-0.17
			C54.24,51.88,54.17,51.87,54.11,51.88z M76.65,55.17l1.28-0.31c0.08-0.02,0.14-0.05,0.17-0.1c0.03-0.04,0.07-0.12,0.11-0.22
			l3-8.89c0.01-0.01,0.01-0.04,0.01-0.08c0-0.06-0.03-0.1-0.09-0.11c-0.06-0.02-0.12-0.02-0.19,0l-1.17,0.28
			c-0.09,0.02-0.16,0.06-0.21,0.13c-0.05,0.06-0.09,0.13-0.12,0.21l-3,8.89l-0.02,0.08l-0.01,0.03
			C76.42,55.17,76.5,55.2,76.65,55.17z M65.74,55.7c0.19,0.28,0.42,0.53,0.68,0.73c0.26,0.22,0.55,0.38,0.86,0.5
			c0.31,0.12,0.65,0.19,1,0.21c0.35,0.02,0.72-0.02,1.1-0.11c0.38-0.09,0.74-0.23,1.08-0.42c0.35-0.19,0.67-0.42,0.96-0.68
			c0.3-0.26,0.56-0.56,0.8-0.89c0.23-0.33,0.44-0.68,0.6-1.04c0.16-0.37,0.28-0.75,0.36-1.15c0.08-0.4,0.11-0.8,0.09-1.21
			c-0.02-0.41-0.08-0.78-0.2-1.14c-0.12-0.35-0.28-0.67-0.46-0.96c-0.2-0.29-0.42-0.54-0.68-0.74c-0.26-0.21-0.55-0.38-0.86-0.49
			c-0.31-0.12-0.65-0.19-1.01-0.21c-0.36-0.02-0.72,0.01-1.1,0.11c-0.38,0.09-0.74,0.23-1.08,0.42c-0.34,0.19-0.67,0.42-0.96,0.68
			c-0.29,0.26-0.56,0.56-0.79,0.89c-0.24,0.33-0.44,0.68-0.6,1.05c-0.17,0.37-0.29,0.75-0.37,1.16c-0.08,0.4-0.11,0.8-0.09,1.21
			c0.02,0.41,0.09,0.79,0.2,1.14C65.39,55.1,65.54,55.42,65.74,55.7z M67.22,52.17c0.09-0.31,0.22-0.59,0.4-0.85
			c0.17-0.25,0.39-0.47,0.63-0.65c0.25-0.18,0.52-0.31,0.82-0.38c0.29-0.07,0.57-0.08,0.83-0.02c0.26,0.06,0.49,0.17,0.69,0.34
			c0.19,0.17,0.36,0.38,0.48,0.64c0.12,0.26,0.19,0.55,0.2,0.86c0.01,0.33-0.02,0.64-0.11,0.94c-0.1,0.31-0.23,0.59-0.41,0.84
			c-0.17,0.25-0.39,0.47-0.64,0.65c-0.25,0.18-0.52,0.3-0.82,0.38c-0.3,0.07-0.57,0.07-0.83,0.02c-0.26-0.06-0.49-0.17-0.68-0.33
			c-0.2-0.16-0.35-0.37-0.47-0.63c-0.12-0.26-0.19-0.54-0.2-0.87C67.09,52.79,67.13,52.48,67.22,52.17z M56.47,57.92
			c0.19,0.28,0.42,0.53,0.68,0.74c0.26,0.21,0.55,0.38,0.86,0.5c0.31,0.11,0.65,0.19,1,0.21c0.35,0.02,0.72-0.01,1.1-0.11
			c0.38-0.09,0.74-0.22,1.08-0.42c0.34-0.19,0.67-0.41,0.96-0.68c0.3-0.27,0.56-0.57,0.8-0.9c0.23-0.33,0.44-0.67,0.6-1.04
			c0.16-0.37,0.28-0.75,0.36-1.15c0.08-0.4,0.11-0.8,0.09-1.21c-0.02-0.41-0.08-0.79-0.2-1.14c-0.12-0.35-0.27-0.67-0.46-0.96
			c-0.19-0.29-0.42-0.53-0.68-0.74c-0.26-0.21-0.55-0.37-0.87-0.49c-0.31-0.12-0.64-0.19-1-0.21c-0.36-0.02-0.72,0.01-1.1,0.1
			c-0.38,0.09-0.74,0.23-1.08,0.42c-0.34,0.19-0.67,0.42-0.96,0.68c-0.3,0.26-0.56,0.56-0.79,0.89c-0.24,0.33-0.44,0.68-0.6,1.05
			c-0.16,0.37-0.29,0.76-0.36,1.16c-0.08,0.4-0.11,0.81-0.09,1.21c0.02,0.41,0.08,0.79,0.2,1.14
			C56.11,57.32,56.27,57.64,56.47,57.92z M57.95,54.39c0.09-0.31,0.22-0.59,0.4-0.85c0.17-0.25,0.39-0.47,0.63-0.65
			c0.25-0.18,0.52-0.31,0.81-0.38c0.3-0.07,0.57-0.07,0.84-0.01c0.26,0.06,0.49,0.17,0.68,0.34c0.2,0.17,0.36,0.38,0.48,0.64
			c0.12,0.26,0.19,0.55,0.2,0.86c0.02,0.32-0.02,0.64-0.11,0.94c-0.1,0.3-0.23,0.58-0.41,0.84c-0.17,0.25-0.39,0.47-0.64,0.65
			c-0.26,0.18-0.52,0.31-0.82,0.38c-0.3,0.07-0.57,0.08-0.83,0.02c-0.26-0.06-0.49-0.17-0.68-0.34c-0.19-0.16-0.36-0.37-0.47-0.62
			c-0.12-0.26-0.19-0.54-0.2-0.87C57.81,55.02,57.85,54.7,57.95,54.39z M80.2,53.78c0.2,0.16,0.42,0.26,0.68,0.32
			c0.26,0.05,0.53,0.05,0.81-0.02c0.29-0.07,0.55-0.19,0.8-0.37c0.24-0.17,0.46-0.38,0.63-0.63c0.18-0.24,0.32-0.52,0.41-0.82
			c0.09-0.3,0.14-0.6,0.12-0.91c-0.01-0.31-0.08-0.59-0.2-0.83c-0.12-0.24-0.28-0.44-0.48-0.6c-0.2-0.16-0.42-0.26-0.68-0.32
			c-0.26-0.05-0.52-0.05-0.81,0.02c-0.29,0.07-0.55,0.2-0.8,0.37c-0.25,0.17-0.46,0.38-0.64,0.63c-0.17,0.25-0.31,0.52-0.4,0.81
			c-0.09,0.3-0.13,0.6-0.12,0.9c0.01,0.31,0.08,0.58,0.2,0.83C79.85,53.42,80.01,53.63,80.2,53.78z M80.99,51.72
			c0.03-0.09,0.07-0.17,0.12-0.25c0.05-0.07,0.12-0.13,0.19-0.19c0.07-0.05,0.16-0.08,0.25-0.11c0.09-0.02,0.17-0.03,0.25-0.01
			c0.08,0.02,0.15,0.04,0.21,0.09c0.06,0.05,0.1,0.11,0.14,0.18c0.03,0.07,0.05,0.16,0.06,0.26c0,0.09-0.01,0.19-0.04,0.27
			c-0.03,0.09-0.07,0.17-0.12,0.25c-0.05,0.07-0.11,0.14-0.19,0.19c-0.08,0.05-0.16,0.09-0.24,0.12c-0.18,0.04-0.34,0.01-0.46-0.08
			c-0.12-0.1-0.19-0.25-0.2-0.44C80.96,51.9,80.97,51.81,80.99,51.72z M36.04,94.37c-0.02-0.5-0.22-0.88-0.59-1.13
			c-0.41-0.44-0.9-0.6-1.47-0.45c-0.38,0.09-0.64,0.26-0.78,0.49c-2.12,2.15-4.17,3.47-6.15,3.97c-0.8,0.2-1.62,0.24-2.46,0.1
			l-0.43-0.19l-0.02-0.07l-0.09-0.05c-0.1,0.02-0.17-0.06-0.22-0.24c-0.01-0.05,0-0.07,0.02-0.08c0.02-0.01,0.03-0.03,0.02-0.08
			c0.03-0.11,0.04-0.2,0.04-0.28c0-0.07,0.03-0.14,0.06-0.2c0.21-0.76,0.8-1.55,1.77-2.38c0.97-0.82,2.14-1.41,3.51-1.76l0.35-0.09
			c2.03-0.52,3.73-0.44,5.1,0.21c1.37,0.66,2.68,1.46,3.93,2.4l0.07-0.02c0.63,0.49,1.31,0.99,2.04,1.48
			c0.73,0.5,1.51,0.91,2.35,1.25c0.84,0.34,1.75,0.58,2.75,0.74c1,0.15,2.07,0.13,3.23-0.06l0.36-0.09
			c0.89-0.23,1.72-0.49,2.47-0.78c0.76-0.29,1.49-0.65,2.21-1.09c0.72-0.43,1.43-0.93,2.14-1.49c0.71-0.56,1.47-1.24,2.27-2.05
			c0.32-0.33,0.48-0.71,0.5-1.14c0.01-0.43-0.14-0.81-0.48-1.13c-0.43-0.49-0.97-0.65-1.63-0.48c-0.33,0.08-0.57,0.22-0.73,0.41
			c-1.54,1.45-2.84,2.47-3.9,3.06c-1.06,0.6-2.29,1.1-3.69,1.5c-1.3,0.23-2.46,0.17-3.48-0.18c-1.02-0.34-2.04-0.86-3.07-1.55
			l-0.19-0.18l-0.27-0.16c-1.49-1.13-1.72-2.81-0.67-5.03l0.09-0.25l0.07-0.02c0.57-1.3,1.08-2.57,1.52-3.81
			c0.44-1.24,0.79-2.52,1.06-3.85c0.51-2.14,0.86-4.28,1.05-6.41c0.19-2.13,0.19-4.14,0.01-6.03c-0.18-1.89-0.51-3.66-1-5.29
			c-0.49-1.64-1.14-3.08-1.96-4.33c-1.6-2.36-3.58-3.72-5.93-4.07c-1.53-0.27-3.09-0.19-4.7,0.21c-2.64,0.67-5.05,2.16-7.23,4.47
			c-0.79,0.85-1.55,1.8-2.29,2.84c-0.74,1.04-1.44,2.23-2.11,3.55c-0.63,1.26-1.18,2.58-1.63,3.96c-0.46,1.37-0.87,2.89-1.26,4.54
			c-0.7,3.19-1.05,6.35-1.07,9.47c-0.01,3.12,0.31,6.38,0.97,9.78c0.01,0.45,0.23,0.8,0.64,1.04c0.38,0.31,0.78,0.41,1.21,0.3
			l0.14-0.03c0.42-0.11,0.74-0.34,0.95-0.7c0.21-0.35,0.29-0.75,0.23-1.19c-0.6-3.17-0.9-6.21-0.88-9.12
			c0.02-2.92,0.37-5.9,1.05-8.94c0.62-2.72,1.48-5.23,2.58-7.51c1.1-2.29,2.41-4.2,3.93-5.75c1.88-1.89,3.77-3.07,5.66-3.55
			c1.09-0.27,2.18-0.32,3.28-0.15c1.47,0.23,2.7,1.12,3.7,2.68c1.31,1.98,2.11,4.77,2.42,8.35c0.31,3.59,0,7.31-0.94,11.17
			c-0.49,2.03-1.14,4.01-1.96,5.92l-0.09,0.25l-0.14,0.33c-0.4,0.81-0.95,1.41-1.65,1.82c-0.7,0.4-1.36,0.68-1.97,0.84
			c-0.61,0.15-1.14,0.24-1.56,0.24c-0.42,0.01-0.66,0.02-0.71,0.03c-0.93-0.11-2.13,0.01-3.6,0.38l-0.21,0.05
			c-0.9,0.23-1.77,0.55-2.62,0.97c-0.85,0.42-1.63,0.91-2.34,1.5c-1.5,1.23-2.44,2.55-2.84,3.96c-0.24,0.81-0.27,1.6-0.08,2.36
			c0.03,0.5,0.17,0.89,0.45,1.17c0.44,0.74,0.98,1.23,1.62,1.47c0.64,0.24,1.01,0.35,1.1,0.33c0.65,0.18,1.3,0.26,1.94,0.22
			c0.65-0.04,1.32-0.15,2.03-0.33c0.71-0.18,1.4-0.43,2.07-0.75c2.03-0.92,3.89-2.29,5.58-4.14C35.85,95.27,36.02,94.87,36.04,94.37
			z M108.39,44.09c-0.23-0.32-0.29-0.85-0.17-1.58l0.42-3.12c-0.03-0.5-0.21-0.87-0.54-1.11c-0.34-0.24-0.74-0.3-1.22-0.18
			c-0.42,0.11-0.78,0.35-1.06,0.72c-0.28,0.37-0.42,0.78-0.41,1.23l-0.73,4.26l-3.22,21.77c-0.07,0.59-0.13,1.17-0.19,1.77
			c-0.22,0.9-0.56,1.95-1.01,3.17c-0.46,1.25-1.18,2.23-2.16,2.93c-0.39,0.25-0.77,0.32-1.15,0.22c-0.3-0.18-0.51-0.63-0.64-1.35
			c-0.01-0.45,0.01-1.12,0.09-2.02c0.07-0.9,0.17-1.72,0.28-2.45l-0.12,0.71l1.14-7.68L98.27,58c0.06-0.37,0.06-0.67,0-0.9
			c-0.11-0.42-0.36-0.75-0.74-0.98c-0.39-0.23-0.79-0.29-1.21-0.18c-0.76,0.19-1.14,0.69-1.13,1.49l-1.61,10.83
			c-0.14,0.17-0.24,0.37-0.31,0.59c-0.06,0.16-0.1,0.31-0.12,0.44c-0.01,0.13-0.05,0.28-0.11,0.44c-0.26,0.97-0.61,2.07-1.05,3.28
			c-0.44,1.22-1.16,2.18-2.13,2.88c-0.48,0.28-0.86,0.37-1.13,0.29c-0.33-0.12-0.54-0.56-0.64-1.34c-0.04-0.55,0.01-1.34,0.15-2.38
			c0.03-0.06,0.05-0.11,0.03-0.16l3.67-23.85l0.64-4.31c-0.01-0.04-0.01-0.08,0.01-0.11c0.02-0.03,0.02-0.07,0.01-0.11l-0.02-0.07
			c-0.03-0.5-0.19-0.87-0.51-1.11c-0.31-0.25-0.71-0.31-1.18-0.19c-0.42,0.11-0.79,0.38-1.11,0.81c-0.32,0.43-0.49,0.88-0.53,1.34
			l-3.6,23.53c0.01,0.05,0.01,0.09-0.01,0.12c-0.02,0.03-0.02,0.07-0.01,0.11c-0.06,0.17-0.11,0.36-0.15,0.6
			c-0.04,0.23-0.07,0.5-0.09,0.81c-0.05,0.24-0.09,0.48-0.13,0.73c-0.07,0.12-0.14,0.26-0.18,0.41c-0.07,0.12-0.11,0.25-0.12,0.41
			c-0.01,0.15-0.05,0.29-0.12,0.41c-0.14,0.44-0.3,0.97-0.46,1.59c-0.17,0.62-0.38,1.24-0.62,1.85c-0.25,0.62-0.54,1.17-0.86,1.65
			c-0.33,0.48-0.69,0.83-1.1,1.03c-0.4,0.2-0.72,0.24-0.96,0.09c-0.45-0.19-0.73-0.79-0.84-1.82c-0.12-0.88-0.13-1.81-0.03-2.82
			c0.1-1.01,0.18-1.87,0.25-2.59c0.07-0.32,0.12-0.62,0.15-0.9c0.03-0.28,0.07-0.53,0.11-0.74c-0.01-0.45-0.15-0.83-0.4-1.14
			c-0.25-0.31-0.59-0.51-1.02-0.61c-0.72-0.07-1.28,0.23-1.66,0.88c-0.06,0.16-0.14,0.36-0.23,0.58c-0.11,0.38-0.19,1.05-0.24,2.02
			c0.02,0.1,0.03,0.16,0.01,0.19c-0.02,0.03-0.02,0.09,0.01,0.19c-0.14,1.04-0.4,2.28-0.79,3.71c-0.39,1.43-0.96,2.65-1.71,3.64
			c-0.99,1.26-2.13,1.89-3.43,1.93c-0.55-0.01-0.99-0.19-1.3-0.54c-0.32-0.35-0.56-0.76-0.73-1.25c-0.17-0.49-0.29-0.99-0.34-1.5
			c-0.06-0.51-0.08-0.94-0.07-1.3c-0.02-2.46,0.4-4.54,1.25-6.23c0.85-1.7,1.75-2.95,2.71-3.74c1.04-0.87,1.97-1.25,2.8-1.16
			c0.42,0.09,0.82,0.01,1.18-0.26c0.36-0.27,0.59-0.62,0.68-1.04c0.09-0.43,0.01-0.82-0.26-1.18c-0.27-0.36-0.61-0.59-1.04-0.68
			c-1.8-0.35-3.62,0.27-5.49,1.84c-1.48,1.28-2.69,2.97-3.61,5.06c-0.47,1.12-0.83,2.31-1.06,3.55c-0.24,1.24-0.37,2.52-0.39,3.83
			c0,0.08,0.01,0.16,0.01,0.24c-0.1,0.29-0.18,0.53-0.22,0.72c-0.14,0.44-0.3,0.97-0.46,1.59c-0.17,0.62-0.38,1.23-0.63,1.85
			c-0.24,0.62-0.53,1.17-0.86,1.65c-0.33,0.49-0.69,0.83-1.1,1.03c-0.4,0.2-0.72,0.23-0.95,0.09c-0.18-0.11-0.36-0.3-0.53-0.58
			c-0.17-0.28-0.28-0.69-0.31-1.24c-0.09-0.74-0.11-1.49-0.09-2.28c0.03-0.79,0.07-1.53,0.11-2.22c0.05-0.69,0.12-1.26,0.21-1.71
			c0.09-0.45,0.13-0.67,0.13-0.67l-0.02-0.07c0.27-1.53,0.47-2.82,0.6-3.89c0.13-1.06,0.28-1.97,0.44-2.71
			c0.23-1.06,0-1.78-0.7-2.16c-0.44-0.14-0.87-0.14-1.28-0.01c-0.42,0.13-0.7,0.42-0.84,0.85l-1.58,8.62
			c-0.21,0.75-0.41,1.7-0.6,2.83c-0.19,1.13-0.46,2.23-0.82,3.3c-0.36,1.07-0.81,2-1.36,2.8c-0.55,0.79-1.24,1.24-2.07,1.35
			c-0.25,0.01-0.43-0.01-0.54-0.05c-0.11-0.05-0.23-0.11-0.35-0.18c-0.13-0.12-0.33-0.45-0.6-1.02c-0.27-0.56-0.44-1.56-0.5-3
			c-0.09-1.13-0.05-2.3,0.1-3.49c0.15-1.19,0.32-2.3,0.52-3.3c0.2-1,0.4-1.88,0.61-2.64c0.21-0.75,0.36-1.27,0.44-1.54
			c0.14-0.44,0.12-0.86-0.06-1.27c-0.18-0.41-0.48-0.68-0.92-0.82c-0.44-0.14-0.86-0.12-1.27,0.06c-0.4,0.18-0.68,0.49-0.82,0.92
			c-0.12,0.33-0.28,0.91-0.5,1.75c-0.22,0.84-0.44,1.81-0.66,2.92c-0.22,1.11-0.4,2.33-0.55,3.64c-0.14,1.32-0.17,2.62-0.1,3.91
			c0.13,3.08,0.87,5.2,2.22,6.37c0.32,0.27,0.76,0.51,1.31,0.73c0.56,0.21,1.25,0.26,2.08,0.15c1.21-0.16,2.23-0.59,3.06-1.31
			c0.05-0.01,0.06-0.04,0.05-0.08c1.04-0.87,1.72-1.34,2.05-1.43c0.24-0.06,0.45-0.07,0.63-0.05c0.19,0.03,0.5,0.14,0.95,0.33
			c0.18,0.11,0.32,0.17,0.42,0.19c0.79,0.36,1.64,0.42,2.53,0.19c0.19-0.05,0.46-0.17,0.81-0.36l0.07-0.02
			c0.72-0.33,1.35-0.83,1.88-1.5c0.53-0.66,0.99-1.38,1.37-2.16c0.09-0.18,0.18-0.36,0.26-0.55c0.06,0.08,0.12,0.17,0.19,0.25
			c0.53,0.62,1.14,1.07,1.81,1.35c0.67,0.28,1.37,0.43,2.08,0.45c0.6,0,1.16-0.07,1.68-0.2c0.99-0.26,1.94-0.77,2.84-1.55
			c0.09-0.07,0.17-0.15,0.25-0.22c0.08-0.07,0.17-0.14,0.25-0.21c0.46-0.37,0.78-0.6,0.95-0.69c0.17-0.09,0.36-0.17,0.55-0.21
			c0.23-0.06,0.46-0.09,0.69-0.1c0.23,0,0.62,0.09,1.17,0.31c0.92,0.47,1.9,0.58,2.94,0.31c0.14-0.03,0.28-0.08,0.41-0.14
			c0.13-0.06,0.27-0.11,0.41-0.14l-0.02-0.07c0.77-0.35,1.42-0.85,1.95-1.52c0.35-0.43,0.66-0.89,0.93-1.37
			c0.39,0.48,0.83,0.86,1.34,1.13c0.89,0.33,1.78,0.38,2.68,0.15c0.57-0.14,1.08-0.37,1.55-0.69c0.78-0.5,1.43-1.09,1.96-1.78
			c0.22-0.29,0.43-0.58,0.62-0.88c0.39,0.5,0.89,0.9,1.49,1.18c0.76,0.41,1.63,0.49,2.62,0.24c0.66-0.17,1.18-0.4,1.56-0.7
			l0.07-0.02c0.77-0.5,1.41-1.1,1.91-1.8c0.22-0.31,0.43-0.63,0.63-0.96c0.34,0.35,0.73,0.63,1.19,0.83c0.4,0.2,0.83,0.32,1.3,0.35
			c0.46,0.04,0.9,0,1.33-0.11c0.24-0.06,0.5-0.15,0.79-0.28c0.3-0.12,0.55-0.26,0.76-0.42c0.78-0.5,1.43-1.1,1.95-1.81
			c0.5-0.68,0.91-1.35,1.25-2.03c0.35,0.71,0.78,1.28,1.31,1.72c0.32,0.28,0.75,0.52,1.28,0.74c0.53,0.21,1.21,0.27,2.04,0.16
			c0.15,0.01,0.32,0,0.48-0.04c0.16-0.04,0.3-0.08,0.39-0.1c0.85-0.22,1.4-0.2,1.64,0.07c0.24,0.27,0.36,0.55,0.33,0.86l-0.71,5.83
			c-0.09,0.83-0.3,1.94-0.63,3.33c-0.33,1.39-0.76,2.78-1.32,4.18c-0.55,1.39-1.2,2.65-1.94,3.77c-0.74,1.12-1.61,1.8-2.6,2.06
			c-0.19,0.05-0.48,0.08-0.89,0.08c-0.66-0.04-1.14-0.24-1.44-0.62c-0.29-0.38-0.51-0.75-0.66-1.11c-0.4-1.21-0.26-2.6,0.44-4.19
			c0.81-1.96,2.26-3.79,4.34-5.47c0.36-0.34,0.7-0.6,1.01-0.78c0.31-0.18,0.71-0.38,1.2-0.61l0.07-0.02
			c0.09-0.02,0.2-0.08,0.33-0.16c0.08-0.07,0.17-0.12,0.27-0.14c0.1-0.02,0.18-0.07,0.27-0.14c0.21-0.15,0.38-0.31,0.48-0.46
			c0.11-0.16,0.19-0.54,0.24-1.15l-0.02-0.07c0.03-0.26-0.01-0.51-0.12-0.76c-0.11-0.25-0.31-0.44-0.6-0.57
			c-0.22-0.09-0.47-0.11-0.73-0.04c-0.26,0.06-0.48,0.12-0.67,0.17l-0.07,0.02l-0.05,0.09c-1.36,0.6-2.58,1.31-3.68,2.14
			c-2.5,2.04-4.27,4.27-5.31,6.7c-0.91,2.34-1.07,4.49-0.47,6.45c0.39,1.16,1.03,2.07,1.9,2.76c0.88,0.68,1.91,1.08,3.09,1.18
			c0.26,0.03,0.55,0.03,0.87,0.01c0.32-0.03,0.65-0.09,0.97-0.18c0.61-0.15,1.25-0.43,1.9-0.82c0.65-0.39,1.31-0.97,1.97-1.74
			c1.13-1.29,2.16-3.16,3.1-5.61c0.56-1.55,0.98-3.03,1.25-4.42c0.28-1.4,0.46-2.39,0.57-2.97l2.55-20.25
			c-0.03-0.3,0.02-0.85,0.15-1.66c0.12-0.81,0.26-1.66,0.4-2.55c0.15-0.9,0.29-1.71,0.4-2.44c0.12-0.73,0.18-1.17,0.2-1.33
			c0.08-0.47,0.08-0.9,0.01-1.28c-0.07-0.39-0.33-0.67-0.79-0.85c-0.39-0.16-0.81-0.16-1.25-0.03c-0.44,0.14-0.73,0.43-0.87,0.86
			l-1.58,8.62c-0.17,0.74-0.35,1.69-0.57,2.82c-0.22,1.13-0.49,2.24-0.82,3.3c-0.34,1.06-0.78,1.99-1.33,2.78
			c-0.55,0.8-1.24,1.25-2.07,1.36c-0.44,0.06-0.73-0.01-0.89-0.23c-0.18-0.11-0.4-0.44-0.67-1c-0.27-0.56-0.43-1.56-0.5-3
			c-0.09-1.14-0.05-2.3,0.09-3.49c0.15-1.2,0.32-2.3,0.52-3.3c0.2-1.01,0.4-1.89,0.61-2.65c0.21-0.76,0.36-1.27,0.44-1.55
			c0.14-0.43,0.12-0.86-0.06-1.27c-0.18-0.4-0.49-0.68-0.93-0.81c-0.44-0.14-0.85-0.13-1.23,0.04c-0.38,0.18-0.65,0.48-0.78,0.92
			c-0.12,0.33-0.3,0.92-0.54,1.75c-0.24,0.84-0.47,1.82-0.69,2.93c-0.22,1.11-0.4,2.33-0.55,3.64c-0.07,0.64-0.11,1.27-0.13,1.9
			c-0.23,0.2-0.41,0.46-0.51,0.78l-0.23,0.89c-0.26,0.97-0.61,2.06-1.05,3.28c-0.44,1.22-1.18,2.18-2.2,2.89
			c-0.47,0.33-0.83,0.39-1.08,0.2c-0.12-0.07-0.24-0.21-0.37-0.43c-0.13-0.22-0.22-0.5-0.25-0.84c-0.03-0.49,0.03-1.17,0.15-2.02
			c0.05-0.2,0.12-0.43,0.22-0.71c0.11-0.34,0.11-0.67,0-0.97c0.03-0.27,0.06-0.53,0.08-0.79l1.83-12.98
			c0.18-1.05,0.39-1.83,0.61-2.34c0.22-0.51,0.42-0.89,0.62-1.14c0.17-0.29,0.44-0.55,0.79-0.76c0.35-0.22,1.02-0.45,2.01-0.7
			l1.41-0.36c1.51-0.39,2.25-1.13,2.23-2.23c0.05-0.57-0.15-0.93-0.61-1.09c-0.47-0.16-0.91-0.19-1.34-0.07l-1.84,0.46
			c-0.53,0.09-0.96,0.07-1.29-0.05C108.88,44.63,108.62,44.41,108.39,44.09z M98.84,47.91c-0.31-0.12-0.57-0.21-0.78-0.26
			c-0.37-0.06-0.74,0.01-1.12,0.21c-0.38,0.19-0.67,0.6-0.87,1.2c-0.13,0.49-0.17,1.04-0.14,1.66c0.03,0.62,0.24,1.01,0.63,1.16
			c0.4,0.2,0.8,0.21,1.18,0.04c0.38-0.17,0.71-0.44,1-0.82c0.28-0.37,0.5-0.78,0.67-1.22c0.16-0.45,0.21-0.81,0.14-1.09
			C99.38,48.32,99.15,48.03,98.84,47.91z"/>
	</g>
</g>
</svg>
